<svg width="48" height="48" viewBox="0 0 48 48" fill="none" xmlns="http://www.w3.org/2000/svg">
    <path d="M5.793 24 32.276 9.104v9.93L5.793 42.208V24zM43.035 42.207V19.035h-4.138L28.552 42.207h14.483z" fill="#F1F1F1"/>
    <path fill-rule="evenodd" clip-rule="evenodd" d="M32.018 19.312a.207.207 0 0 1-.02.292l-.602.527a.207.207 0 0 1-.272-.312l.602-.527a.207.207 0 0 1 .292.02zm-1.806 1.58a.207.207 0 0 1-.02.292l-1.203 1.053a.207.207 0 1 1-.273-.311l1.204-1.054a.207.207 0 0 1 .292.02zm-2.407 2.106a.207.207 0 0 1-.02.292l-1.204 1.054a.207.207 0 1 1-.272-.312l1.204-1.053a.207.207 0 0 1 .292.02zm-2.408 2.107a.207.207 0 0 1-.02.292l-1.203 1.053a.207.207 0 1 1-.273-.311l1.204-1.053a.207.207 0 0 1 .292.019zm-2.407 2.107a.207.207 0 0 1-.02.291l-1.204 1.054a.207.207 0 0 1-.272-.312l1.204-1.053a.207.207 0 0 1 .291.02zm-2.408 2.106a.207.207 0 0 1-.02.292l-1.203 1.053a.207.207 0 0 1-.273-.311l1.204-1.053a.207.207 0 0 1 .292.02zm-2.408 2.107a.207.207 0 0 1-.019.292l-1.204 1.053a.207.207 0 1 1-.272-.312l1.204-1.053a.207.207 0 0 1 .291.02zm-2.407 2.106a.207.207 0 0 1-.02.292l-1.203 1.053a.207.207 0 1 1-.273-.31l1.204-1.054a.207.207 0 0 1 .292.02zm-2.408 2.107a.207.207 0 0 1-.019.292l-1.204 1.053a.207.207 0 1 1-.272-.311l1.204-1.054a.207.207 0 0 1 .291.02zm-2.407 2.107a.207.207 0 0 1-.02.291L9.73 39.09a.207.207 0 1 1-.273-.312l1.204-1.053a.207.207 0 0 1 .292.02zM8.544 39.85a.207.207 0 0 1-.02.292l-1.203 1.053a.207.207 0 0 1-.272-.311l1.203-1.053a.207.207 0 0 1 .292.02zm-2.407 2.107a.207.207 0 0 1-.02.292l-.601.526a.207.207 0 1 1-.273-.311l.602-.527a.207.207 0 0 1 .292.02zM32.042 9.416c.056.1.021.226-.079.282l-.735.414a.207.207 0 0 1-.203-.361l.736-.414c.1-.056.225-.02.281.08zm-2.207 1.241c.056.1.021.226-.078.282l-1.472.828a.207.207 0 1 1-.203-.36l1.472-.829c.1-.055.226-.02.282.08zm-2.942 1.656c.056.1.02.225-.079.281l-1.471.828a.207.207 0 1 1-.203-.36l1.471-.828c.1-.056.226-.021.282.079zm-2.943 1.655c.056.1.021.226-.078.281l-1.472.828a.207.207 0 0 1-.203-.36l1.472-.828c.1-.056.225-.02.281.079zm-2.942 1.655c.056.1.02.226-.079.282l-1.471.827a.207.207 0 1 1-.203-.36l1.471-.828c.1-.056.226-.02.282.079zm-2.943 1.655c.056.1.021.226-.079.282l-1.47.828a.207.207 0 1 1-.204-.361l1.472-.828c.1-.056.225-.02.281.08zm-2.942 1.655c.056.1.02.226-.08.282l-1.47.828a.207.207 0 1 1-.203-.361l1.471-.828c.1-.056.226-.02.282.08zm-2.943 1.655c.056.1.021.226-.079.282l-1.47.828a.207.207 0 0 1-.204-.36l1.472-.828c.1-.057.225-.021.281.078zm-2.942 1.656c.056.1.02.225-.08.281l-1.47.828a.207.207 0 0 1-.203-.36l1.471-.828c.1-.056.226-.021.282.079zm-2.943 1.655c.056.1.021.226-.079.282l-.735.413a.207.207 0 0 1-.203-.36l.736-.414c.1-.056.225-.02.281.079zM38.981 18.846c.105.046.151.169.105.273l-.337.75a.207.207 0 0 1-.377-.169l.336-.75a.207.207 0 0 1 .273-.104zm-1.008 2.25c.104.046.15.169.104.273l-.672 1.5a.207.207 0 0 1-.378-.169l.672-1.5a.207.207 0 0 1 .274-.104zm-1.345 3c.104.046.15.169.104.273l-.672 1.5a.207.207 0 0 1-.378-.169l.672-1.5a.207.207 0 0 1 .274-.104zm-1.345 3c.104.046.151.169.104.273l-.672 1.5a.207.207 0 1 1-.378-.169l.673-1.5a.207.207 0 0 1 .273-.104zm-1.345 3c.104.046.151.169.104.273l-.672 1.5a.207.207 0 0 1-.378-.169l.673-1.5a.207.207 0 0 1 .273-.104zm-1.345 3c.105.047.151.169.105.273l-.673 1.5a.207.207 0 0 1-.377-.169l.672-1.5a.207.207 0 0 1 .273-.104zm-1.344 3c.104.047.15.169.104.273l-.673 1.5a.207.207 0 1 1-.377-.169l.672-1.5a.207.207 0 0 1 .274-.104zm-1.345 3c.104.047.15.169.104.273l-.672 1.5a.207.207 0 1 1-.378-.169l.672-1.5a.207.207 0 0 1 .274-.104zm-1.345 3c.104.047.15.169.104.273l-.336.75a.207.207 0 0 1-.378-.169l.336-.75a.207.207 0 0 1 .274-.104z" fill="#A5A5A5"/>
    <path fill-rule="evenodd" clip-rule="evenodd" d="M14.07 4.759c.114 0 .206.092.206.207v.827a.207.207 0 1 1-.414 0v-.827c0-.115.093-.207.207-.207zm0 2.483c.114 0 .206.092.206.206v1.656a.207.207 0 1 1-.414 0V7.448c0-.114.093-.206.207-.206zm0 3.31c.114 0 .206.093.206.207v1.655a.207.207 0 0 1-.414 0v-1.655c0-.114.093-.207.207-.207zm0 3.31c.114 0 .206.093.206.207v1.655a.207.207 0 1 1-.414 0V14.07c0-.114.093-.207.207-.207zm0 3.31c.114 0 .206.093.206.207v1.656a.207.207 0 0 1-.414 0V17.38c0-.115.093-.207.207-.207zm0 3.31c.114 0 .206.094.206.208v1.655a.207.207 0 1 1-.414 0V20.69c0-.114.093-.207.207-.207zm0 3.311c.114 0 .206.093.206.207v1.655a.207.207 0 1 1-.414 0V24c0-.114.093-.207.207-.207zm0 3.31c.114 0 .206.093.206.207v1.656a.207.207 0 1 1-.414 0V27.31c0-.115.093-.207.207-.207zm0 3.311c.114 0 .206.093.206.207v1.655a.207.207 0 1 1-.414 0v-1.655c0-.114.093-.207.207-.207zm0 3.31c.114 0 .206.093.206.207v.828a.207.207 0 1 1-.414 0v-.828c0-.114.093-.207.207-.207zM23.172 4.759c.114 0 .207.092.207.207v.798a.207.207 0 1 1-.414 0v-.798c0-.115.093-.207.207-.207zm0 2.394c.114 0 .207.093.207.207v1.596a.207.207 0 1 1-.414 0V7.36c0-.114.093-.207.207-.207zm0 3.192c.114 0 .207.093.207.207v1.596a.207.207 0 0 1-.414 0v-1.596c0-.114.093-.207.207-.207zm0 3.192c.114 0 .207.093.207.207v1.596a.207.207 0 0 1-.414 0v-1.596c0-.114.093-.207.207-.207zm0 3.192c.114 0 .207.093.207.207v1.596a.207.207 0 1 1-.414 0v-1.596c0-.114.093-.207.207-.207zm0 3.192c.114 0 .207.093.207.207v1.596a.207.207 0 1 1-.414 0v-1.596c0-.114.093-.207.207-.207zm0 3.192c.114 0 .207.093.207.207v1.596a.207.207 0 1 1-.414 0V23.32c0-.114.093-.207.207-.207zm0 3.193c.114 0 .207.092.207.206v.799a.207.207 0 1 1-.414 0v-.799c0-.114.093-.206.207-.206zM32.276 4.759c.114 0 .207.092.207.207v.879a.207.207 0 1 1-.414 0v-.88c0-.114.092-.206.207-.206zm0 2.638c.114 0 .207.092.207.207v1.758a.207.207 0 1 1-.414 0V7.604c0-.115.092-.207.207-.207zm0 3.517c.114 0 .207.093.207.207v1.758a.207.207 0 0 1-.414 0v-1.758c0-.114.092-.207.207-.207zm0 3.517c.114 0 .207.093.207.207v1.759a.207.207 0 1 1-.414 0v-1.759c0-.114.092-.207.207-.207zm0 3.517c.114 0 .207.093.207.207v.88a.207.207 0 0 1-.414 0v-.88c0-.114.092-.207.207-.207z" fill="#A5A5A5"/>
    <path fill-rule="evenodd" clip-rule="evenodd" d="M32.069 19.035c0-.115.092-.207.207-.207h.896a.207.207 0 0 1 0 .413h-.896a.207.207 0 0 1-.207-.206zm2.69 0c0-.115.092-.207.206-.207h1.793a.207.207 0 0 1 0 .413h-1.793a.207.207 0 0 1-.207-.206zm3.586 0c0-.115.092-.207.207-.207h1.793a.207.207 0 0 1 0 .413h-1.793a.207.207 0 0 1-.207-.206zm3.586 0c0-.115.093-.207.207-.207h.896a.207.207 0 0 1 0 .413h-.896a.207.207 0 0 1-.207-.206zM22.965 27.31c0-.114.093-.206.207-.206h.814a.207.207 0 0 1 0 .413h-.814a.207.207 0 0 1-.207-.207zm2.44 0c0-.114.093-.206.208-.206h1.627a.207.207 0 0 1 0 .413h-1.627a.207.207 0 0 1-.207-.207zm3.255 0c0-.114.092-.206.206-.206h1.627a.207.207 0 0 1 0 .413h-1.627a.207.207 0 0 1-.206-.207zm3.253 0c0-.114.093-.206.207-.206h1.627a.207.207 0 0 1 0 .413H32.12a.207.207 0 0 1-.207-.207zm3.254 0c0-.114.093-.206.207-.206h1.627a.207.207 0 1 1 0 .413h-1.627a.207.207 0 0 1-.207-.207zm3.254 0c0-.114.093-.206.207-.206h1.627a.207.207 0 1 1 0 .413h-1.627a.207.207 0 0 1-.207-.207zm3.254 0c0-.114.092-.206.207-.206h.813a.207.207 0 1 1 0 .413h-.813a.207.207 0 0 1-.207-.207zM14.69 34.759c0-.115.092-.207.206-.207h.87a.207.207 0 0 1 0 .414h-.87a.207.207 0 0 1-.207-.207zm2.606 0c0-.115.092-.207.207-.207h1.737a.207.207 0 1 1 0 .414h-1.737a.207.207 0 0 1-.207-.207zm3.474 0c0-.115.093-.207.207-.207h1.738a.207.207 0 1 1 0 .414h-1.738a.207.207 0 0 1-.207-.207zm3.475 0c0-.115.093-.207.207-.207h1.737a.207.207 0 1 1 0 .414h-1.737a.207.207 0 0 1-.207-.207zm3.475 0c0-.115.093-.207.207-.207h1.737a.207.207 0 0 1 0 .414h-1.737a.207.207 0 0 1-.207-.207zm3.475 0c0-.115.093-.207.207-.207h1.737a.207.207 0 1 1 0 .414h-1.737a.207.207 0 0 1-.207-.207zm3.475 0c0-.115.092-.207.207-.207h1.737a.207.207 0 1 1 0 .414h-1.737a.207.207 0 0 1-.207-.207zm3.474 0c0-.115.093-.207.207-.207h1.738a.207.207 0 1 1 0 .414H38.35a.207.207 0 0 1-.206-.207zm3.475 0c0-.115.093-.207.207-.207h.869a.207.207 0 0 1 0 .414h-.869a.207.207 0 0 1-.207-.207z" fill="#A5A5A5"/>
    <path fill-rule="evenodd" clip-rule="evenodd" d="M4.965 4.138c.457 0 .828.37.828.827v38.07a.828.828 0 1 1-1.655 0V4.964c0-.457.37-.827.827-.827z" fill="#BEBEBE"/>
    <path fill-rule="evenodd" clip-rule="evenodd" d="M4.138 43.035c0-.457.37-.828.827-.828h38.07a.828.828 0 0 1 0 1.655H4.964a.828.828 0 0 1-.827-.827z" fill="#BEBEBE"/>
    <path fill-rule="evenodd" clip-rule="evenodd" d="M36.879 12.678a3.31 3.31 0 1 1-.58-6.595 3.31 3.31 0 0 1 .58 6.595zm-2.66 10.605c-.348-3.97-3.363-7.056-7.125-7.669l.021.14c.015.097.03.195.039.29a7.833 7.833 0 0 1-7.114 8.484 7.723 7.723 0 0 1-2.855-.285c.002.179.003.357.019.535a8.538 8.538 0 0 0 9.736 7.704 3.835 3.835 0 1 0 6.076-4.024 8.503 8.503 0 0 0 1.203-5.175zM12.974 17.29a6.405 6.405 0 1 0 12.762-1.12 6.405 6.405 0 0 0-12.762 1.12zm.383 22.69a4.898 4.898 0 1 1-.857-9.759 4.898 4.898 0 0 1 .857 9.759z" fill="#878787"/>
</svg>
