<svg width="48" height="48" viewBox="0 0 48 48" fill="none" xmlns="http://www.w3.org/2000/svg">
    <g clip-path="url(#08xm8jdl0a)">
        <path fill-rule="evenodd" clip-rule="evenodd" d="M32.018 19.312a.207.207 0 0 1-.02.292l-.602.527a.207.207 0 0 1-.272-.312l.602-.527a.207.207 0 0 1 .292.02zm-1.806 1.58a.207.207 0 0 1-.02.292l-1.203 1.053a.207.207 0 1 1-.273-.311l1.204-1.054a.207.207 0 0 1 .292.02zm-2.407 2.106a.207.207 0 0 1-.02.292l-1.204 1.054a.207.207 0 1 1-.272-.312l1.204-1.053a.207.207 0 0 1 .292.02zm-2.408 2.107a.207.207 0 0 1-.02.292l-1.203 1.053a.207.207 0 1 1-.273-.311l1.204-1.053a.207.207 0 0 1 .292.019zm-2.407 2.107a.207.207 0 0 1-.02.291l-1.204 1.054a.207.207 0 0 1-.272-.312l1.204-1.053a.207.207 0 0 1 .291.02zm-2.408 2.106a.207.207 0 0 1-.02.292l-1.203 1.053a.207.207 0 0 1-.273-.311l1.204-1.053a.207.207 0 0 1 .292.02zm-2.408 2.107a.207.207 0 0 1-.019.292l-1.204 1.053a.207.207 0 0 1-.272-.311l1.204-1.054a.207.207 0 0 1 .291.02zm-2.407 2.106a.207.207 0 0 1-.02.292l-1.203 1.053a.207.207 0 1 1-.273-.31l1.204-1.054a.207.207 0 0 1 .292.02zm-2.408 2.107a.207.207 0 0 1-.019.292l-1.204 1.053a.207.207 0 1 1-.272-.311l1.204-1.054a.207.207 0 0 1 .291.02zm-2.407 2.107a.207.207 0 0 1-.02.291L9.73 39.09a.207.207 0 1 1-.273-.312l1.204-1.053a.207.207 0 0 1 .292.02zM8.544 39.85a.207.207 0 0 1-.02.292l-1.203 1.053a.207.207 0 0 1-.272-.311l1.203-1.053a.207.207 0 0 1 .292.02zm-2.407 2.107a.207.207 0 0 1-.02.292l-.601.526a.207.207 0 1 1-.273-.311l.602-.527a.207.207 0 0 1 .292.02z" fill="#A5A5A5"/>
        <path fill-rule="evenodd" clip-rule="evenodd" d="M14.07 4.759c.114 0 .206.092.206.207v.827a.207.207 0 1 1-.414 0v-.827c0-.115.093-.207.207-.207zm0 2.483c.114 0 .206.092.206.206v1.656a.207.207 0 1 1-.414 0V7.448c0-.114.093-.206.207-.206zm0 3.31c.114 0 .206.093.206.207v1.655a.207.207 0 0 1-.414 0v-1.655c0-.114.093-.207.207-.207zm0 3.31c.114 0 .206.093.206.207v1.655a.207.207 0 1 1-.414 0V14.07c0-.114.093-.207.207-.207zm0 3.31c.114 0 .206.093.206.207v1.656a.207.207 0 0 1-.414 0V17.38c0-.115.093-.207.207-.207zm0 3.31c.114 0 .206.094.206.208v1.655a.207.207 0 1 1-.414 0V20.69c0-.114.093-.207.207-.207zm0 3.311c.114 0 .206.093.206.207v1.655a.207.207 0 1 1-.414 0V24c0-.114.093-.207.207-.207zm0 3.31c.114 0 .206.093.206.207v1.656a.207.207 0 1 1-.414 0V27.31c0-.115.093-.207.207-.207zm0 3.311c.114 0 .206.093.206.207v1.655a.207.207 0 1 1-.414 0v-1.655c0-.114.093-.207.207-.207zm0 3.31c.114 0 .206.093.206.207v.828a.207.207 0 1 1-.414 0v-.828c0-.114.093-.207.207-.207zM23.172 4.759c.114 0 .207.092.207.207v.798a.207.207 0 1 1-.414 0v-.798c0-.115.093-.207.207-.207zm0 2.394c.114 0 .207.093.207.207v1.596a.207.207 0 1 1-.414 0V7.36c0-.114.093-.207.207-.207zm0 3.192c.114 0 .207.093.207.207v1.596a.207.207 0 0 1-.414 0v-1.596c0-.114.093-.207.207-.207zm0 3.192c.114 0 .207.093.207.207v1.596a.207.207 0 0 1-.414 0v-1.596c0-.114.093-.207.207-.207zm0 3.192c.114 0 .207.093.207.207v1.596a.207.207 0 1 1-.414 0v-1.596c0-.114.093-.207.207-.207zm0 3.192c.114 0 .207.093.207.207v1.596a.207.207 0 1 1-.414 0v-1.596c0-.114.093-.207.207-.207zm0 3.192c.114 0 .207.093.207.207v1.596a.207.207 0 1 1-.414 0V23.32c0-.114.093-.207.207-.207zm0 3.193c.114 0 .207.092.207.206v.799a.207.207 0 1 1-.414 0v-.799c0-.114.093-.206.207-.206z" fill="#A5A5A5"/>
        <path d="M5.793 24 32.276 9.104v9.93L5.793 42.208V24zM43.035 42.207V19.035h-4.138L28.552 42.207h14.483z" fill="#F3F3F3"/>
        <path d="M5.38 24.414 31.861 9.517M28.138 43.035l10.758-24" stroke="#A5A5A5" stroke-width=".5" stroke-miterlimit="10" stroke-linecap="round" stroke-dasharray="2 2"/>
        <path fill-rule="evenodd" clip-rule="evenodd" d="M24.62 25.655c0-.114.093-.207.207-.207h.894a.207.207 0 0 1 0 .414h-.893a.207.207 0 0 1-.207-.207zm2.68 0c0-.114.093-.207.208-.207h1.786a.207.207 0 0 1 0 .414h-1.786a.207.207 0 0 1-.207-.207zm3.574 0c0-.114.093-.207.207-.207h1.787a.207.207 0 0 1 0 .414H31.08a.207.207 0 0 1-.207-.207zm3.574 0c0-.114.092-.207.207-.207h1.786a.207.207 0 0 1 0 .414h-1.786a.207.207 0 0 1-.207-.207zm3.573 0c0-.114.093-.207.207-.207h1.787a.207.207 0 0 1 0 .414h-1.787a.207.207 0 0 1-.207-.207zm3.574 0c0-.114.092-.207.207-.207h.893a.207.207 0 0 1 0 .414h-.893a.207.207 0 0 1-.207-.207zM32.276 4.759c.114 0 .207.092.207.207v.879a.207.207 0 1 1-.414 0v-.88c0-.114.092-.206.207-.206zm0 2.638c.114 0 .207.092.207.207v1.758a.207.207 0 1 1-.414 0V7.604c0-.115.092-.207.207-.207zm0 3.517c.114 0 .207.093.207.207v1.758a.207.207 0 0 1-.414 0v-1.758c0-.114.092-.207.207-.207zm0 3.517c.114 0 .207.093.207.207v1.759a.207.207 0 1 1-.414 0v-1.759c0-.114.092-.207.207-.207zm0 3.517c.114 0 .207.093.207.207v.88a.207.207 0 0 1-.414 0v-.88c0-.114.092-.207.207-.207z" fill="#A5A5A5"/>
        <path fill-rule="evenodd" clip-rule="evenodd" d="M32.069 19.035c0-.115.092-.207.207-.207h.896a.207.207 0 0 1 0 .413h-.896a.207.207 0 0 1-.207-.206zm2.69 0c0-.115.092-.207.206-.207h1.793a.207.207 0 0 1 0 .413h-1.793a.207.207 0 0 1-.207-.206zm3.586 0c0-.115.092-.207.207-.207h1.793a.207.207 0 0 1 0 .413h-1.793a.207.207 0 0 1-.207-.206zm3.586 0c0-.115.093-.207.207-.207h.896a.207.207 0 0 1 0 .413h-.896a.207.207 0 0 1-.207-.206z" fill="#A5A5A5"/>
        <path fill-rule="evenodd" clip-rule="evenodd" d="M4.965 4.138c.457 0 .828.37.828.827v38.07a.828.828 0 1 1-1.655 0V4.964c0-.457.37-.827.827-.827z" fill="#BEBEBE"/>
        <path fill-rule="evenodd" clip-rule="evenodd" d="M4.138 43.035c0-.457.37-.828.827-.828h38.07a.828.828 0 0 1 0 1.655H4.964a.828.828 0 0 1-.827-.827z" fill="#BEBEBE"/>
        <path d="M14.897 18.207H9.104v20.69h5.793v-20.69z" fill="#A5A5A5"/>
        <path d="M14.897 18.207H9.104l3.31-1.655h5.793l-3.31 1.655z" fill="#C1C1C1"/>
        <path d="m18.207 35.586-3.31 3.31v-20.69l3.31-1.654v19.034z" fill="#6A6A6A"/>
        <path d="M23.172 9.104H17.38v29.793h5.793V9.104z" fill="#A5A5A5"/>
        <path d="M23.172 9.103H17.38l3.31-1.655h5.794l-3.31 1.655z" fill="#C1C1C1"/>
        <path d="m26.483 35.586-3.31 3.31V9.104l3.31-1.655v28.138z" fill="#6A6A6A"/>
        <path d="M31.448 22.345h-5.793v16.552h5.793V22.345z" fill="#A5A5A5"/>
        <path d="M31.448 22.345h-5.793l3.31-1.655h5.794l-3.31 1.655z" fill="#C1C1C1"/>
        <path d="m34.759 35.586-3.31 3.31V22.345l3.31-1.655v14.896z" fill="#6A6A6A"/>
        <path d="M39.724 27.31h-5.793v11.587h5.793V27.31z" fill="#A5A5A5"/>
        <path d="M39.724 27.31h-5.793l3.31-1.655h5.794l-3.31 1.655z" fill="#C1C1C1"/>
        <path d="m43.035 35.586-3.31 3.31V27.31l3.31-1.655v9.931z" fill="#6A6A6A"/>
    </g>
    <defs>
        <clipPath id="08xm8jdl0a">
            <path fill="#fff" d="M0 0h48v48H0z"/>
        </clipPath>
    </defs>
</svg>
