<svg width="48" height="48" viewBox="0 0 48 48" fill="none" xmlns="http://www.w3.org/2000/svg">
    <g clip-path="url(#vc9kp4g3ka)">
        <path fill-rule="evenodd" clip-rule="evenodd" d="M4.965 4.138c.457 0 .828.37.828.827v38.07a.828.828 0 1 1-1.655 0V4.964c0-.457.37-.827.827-.827z" fill="#BEBEBE"/>
        <path fill-rule="evenodd" clip-rule="evenodd" d="M4.138 43.035c0-.457.37-.828.827-.828h38.07a.828.828 0 0 1 0 1.655H4.964a.828.828 0 0 1-.827-.827z" fill="#BEBEBE"/>
        <path d="M16.916 27.31h-6.157a1.66 1.66 0 0 0-1.655 1.656v8.276c0 .91.744 1.655 1.655 1.655h28.949c.918 0 1.663-.753 1.655-1.672-.05-4.957-.166-22.096-.1-28.452.009-.828-1.067-1.159-1.514-.464-2.143 3.319-5.793 10.61-7.043 12.53a.823.823 0 0 1-1.117.256l-6.886-4.13a.838.838 0 0 0-1.133.274l-5.95 9.666a.816.816 0 0 1-.704.397v.009z" fill="#878787"/>
    </g>
    <defs>
        <clipPath id="vc9kp4g3ka">
            <path fill="#fff" d="M0 0h48v48H0z"/>
        </clipPath>
    </defs>
</svg>
