<svg width="48" height="48" viewBox="0 0 48 48" fill="none" xmlns="http://www.w3.org/2000/svg">
    <path fill-rule="evenodd" clip-rule="evenodd" d="M4.965 4.138c.457 0 .828.37.828.827v38.07a.828.828 0 1 1-1.655 0V4.964c0-.457.37-.827.827-.827z" fill="#BEBEBE"/>
    <path fill-rule="evenodd" clip-rule="evenodd" d="M4.138 43.035c0-.457.37-.828.827-.828h38.07a.828.828 0 0 1 0 1.655H4.964a.828.828 0 0 1-.827-.827z" fill="#BEBEBE"/>
    <path fill-rule="evenodd" clip-rule="evenodd" d="M33.104 11.172a4.552 4.552 0 1 0 9.103 0 4.552 4.552 0 0 0-9.103 0zm-3.75 4.461c4.296 1.093 7.474 4.974 7.474 9.608a9.928 9.928 0 0 1-9.931 9.931 9.928 9.928 0 0 1-9.931-9.93c0-.207.016-.414.033-.621a8.98 8.98 0 0 0 3.277.62c5.023 0 9.103-4.08 9.103-9.103 0-.112-.007-.227-.015-.34v-.001l-.01-.164zm-9.078 7.953a7.448 7.448 0 1 1 0-14.896 7.448 7.448 0 0 1 0 14.896zm-7.862 12.828a3.31 3.31 0 1 1 0-6.621 3.31 3.31 0 0 1 0 6.62z" fill="#878787"/>
</svg>
