<svg width="48" height="48" viewBox="0 0 48 48" fill="none" xmlns="http://www.w3.org/2000/svg">
    <g clip-path="url(#ameiojn1xa)">
        <path d="M12.414 19.035h-3.31c-.915 0-1.656.74-1.656 1.655v17.38c0 .913.741 1.654 1.655 1.654h3.31c.915 0 1.656-.74 1.656-1.655V20.69c0-.913-.741-1.654-1.655-1.654zM21.517 5.793h-3.31c-.914 0-1.655.741-1.655 1.655v30.62c0 .915.74 1.656 1.655 1.656h3.31c.914 0 1.655-.741 1.655-1.655V7.449c0-.915-.74-1.656-1.655-1.656zM30.62 14.896h-3.31c-.914 0-1.655.741-1.655 1.656v21.517c0 .914.741 1.655 1.655 1.655h3.31c.915 0 1.656-.741 1.656-1.655V16.552c0-.915-.741-1.655-1.655-1.655zM39.724 25.655h-3.31c-.914 0-1.655.741-1.655 1.655v10.76c0 .913.74 1.654 1.655 1.654h3.31c.914 0 1.656-.74 1.656-1.655V27.31c0-.914-.742-1.655-1.656-1.655z" fill="#878787"/>
        <path fill-rule="evenodd" clip-rule="evenodd" d="M4.138 43.035c0-.457.37-.828.827-.828h38.07a.828.828 0 0 1 0 1.655H4.964a.828.828 0 0 1-.827-.827z" fill="#BEBEBE"/>
    </g>
    <defs>
        <clipPath id="ameiojn1xa">
            <path fill="#fff" d="M0 0h48v48H0z"/>
        </clipPath>
    </defs>
</svg>
