<svg width="48" height="48" viewBox="0 0 48 48" fill="none" xmlns="http://www.w3.org/2000/svg">
    <g clip-path="url(#g8knofpsha)">
        <path fill-rule="evenodd" clip-rule="evenodd" d="M19.035 3.931c.457 0 .827.37.827.828V9.31h1.242c.91 0 1.655.745 1.655 1.656v10.758a1.66 1.66 0 0 1-1.655 1.655h-1.242v5.38a.828.828 0 0 1-1.655 0v-5.38h-1.241a1.66 1.66 0 0 1-1.656-1.655V10.966c0-.91.745-1.656 1.656-1.656h1.241V4.76c0-.457.37-.828.828-.828zM9.104 8.07c.457 0 .827.37.827.828v3.724h1.242c.914 0 1.655.74 1.655 1.655V26.69c0 .914-.741 1.655-1.655 1.655H9.93v6.207a.828.828 0 1 1-1.655 0v-6.207H7.035a1.655 1.655 0 0 1-1.656-1.655V14.276c0-.914.741-1.655 1.656-1.655h1.24V8.897c0-.457.371-.828.829-.828zm12 13.655V10.966h-4.138v10.758h4.137zm7.862-7.862c.457 0 .827.37.827.828v3.724h1.242c.914 0 1.655.741 1.655 1.655v10.759c0 .914-.741 1.655-1.655 1.655h-1.242v7.862a.828.828 0 1 1-1.655 0v-7.862h-1.241a1.655 1.655 0 0 1-1.655-1.655V20.069c0-.914.74-1.655 1.655-1.655h1.241V14.69c0-.457.37-.828.828-.828zm9.93-.827c.458 0 .828.37.828.827v4.552h1.242c.914 0 1.655.741 1.655 1.655v16.552c0 .914-.741 1.655-1.655 1.655h-1.242v4.552a.828.828 0 1 1-1.655 0v-4.552h-1.241a1.655 1.655 0 0 1-1.656-1.655V20.069c0-.914.742-1.655 1.656-1.655h1.241v-4.552c0-.457.37-.827.828-.827z" fill="#878787"/>
    </g>
    <defs>
        <clipPath id="g8knofpsha">
            <path fill="#fff" d="M0 0h48v48H0z"/>
        </clipPath>
    </defs>
</svg>
