<svg width="48" height="48" viewBox="0 0 48 48" fill="none" xmlns="http://www.w3.org/2000/svg">
    <g clip-path="url(#kgyt4b3zla)">
        <path fill-rule="evenodd" clip-rule="evenodd" d="M4.965 4.138c.457 0 .828.37.828.827v38.07a.828.828 0 1 1-1.655 0V4.964c0-.457.37-.827.827-.827z" fill="#BEBEBE"/>
        <path d="M29.793 12.414v-3.31c0-.915-.741-1.656-1.655-1.656H9.93c-.914 0-1.655.741-1.655 1.655v3.31c0 .915.74 1.656 1.655 1.656h18.207c.914 0 1.655-.741 1.655-1.655zM43.035 21.517v-3.31c0-.914-.741-1.655-1.655-1.655H9.93c-.914 0-1.655.74-1.655 1.655v3.31c0 .914.741 1.655 1.655 1.655H41.38c.914 0 1.655-.74 1.655-1.655zM33.931 30.62v-3.31c0-.914-.74-1.655-1.655-1.655H9.931c-.914 0-1.655.741-1.655 1.655v3.31c0 .915.741 1.656 1.655 1.656h22.345c.914 0 1.655-.741 1.655-1.655zM23.172 39.724v-3.31c0-.914-.74-1.655-1.655-1.655H9.931c-.914 0-1.655.74-1.655 1.655v3.31c0 .914.74 1.656 1.655 1.656h11.586c.914 0 1.655-.742 1.655-1.656z" fill="#878787"/>
    </g>
    <defs>
        <clipPath id="kgyt4b3zla">
            <path fill="#fff" d="M0 0h48v48H0z"/>
        </clipPath>
    </defs>
</svg>
