<svg width="58" height="58" viewBox="0 0 58 58" fill="none" xmlns="http://www.w3.org/2000/svg">
    <g clip-path="url(#e2d8ytrjla)">
        <path fill-rule="evenodd" clip-rule="evenodd" d="M30.01 38.94c-.33.03-.66.05-1 .05a10.012 10.012 0 0 1-10-10 9.995 9.995 0 0 1 1.95-5.92c.4-.54.85-1.03 1.34-1.48a9.96 9.96 0 0 1 5.71-2.55V6.01a22.88 22.88 0 0 0-15.38 6.84c-.47.47-.92.97-1.34 1.48a22.87 22.87 0 0 0-5.262 13.986c-.01.222-.018.446-.018.674 0 .34.01.67.03 1 .51 11.91 10.07 21.47 21.97 21.97l.326.012c.222.009.446.018.674.018.34 0 .67-.01 1-.03a22.88 22.88 0 0 0 15.38-6.84l-9.68-8.74A9.96 9.96 0 0 1 30 38.93l.01.01zm8.95-10.95h.008l.001.01-.01-.01zm.008 0H51.99C51.48 16.08 41.92 6.53 30.02 6.02v13.03a10.012 10.012 0 0 1 8.95 8.94zm7.772 15.66-9.68-8.74a9.995 9.995 0 0 0 1.9-4.92h13.03a22.87 22.87 0 0 1-5.25 13.66z" fill="#4A4A4A"/>
    </g>
    <defs>
        <clipPath id="e2d8ytrjla">
            <path fill="#fff" d="M0 0h58v58H0z"/>
        </clipPath>
    </defs>
</svg>
