<svg width="48" height="48" viewBox="0 0 48 48" fill="none" xmlns="http://www.w3.org/2000/svg">
    <g clip-path="url(#qmi6cx8v2a)">
        <path fill-rule="evenodd" clip-rule="evenodd" d="M24.836 32.226a9.057 9.057 0 0 1-.828.041 8.286 8.286 0 0 1-8.276-8.276 8.272 8.272 0 0 1 2.723-6.124 8.243 8.243 0 0 1 4.726-2.11V4.974a18.935 18.935 0 0 0-12.729 5.66 18.927 18.927 0 0 0-5.454 12.53c-.002.09-.006.18-.01.27a13.616 13.616 0 0 0 .01 1.385c.423 9.857 8.334 17.768 18.183 18.182l.27.01c.183.008.368.015.557.015.282 0 .555-.008.828-.025a18.935 18.935 0 0 0 12.728-5.66l-8.011-7.234a8.243 8.243 0 0 1-4.726 2.11l.009.009zm7.406-9.062h.008v.008l-.008-.008zm.008 0h10.776c-.422-9.857-8.334-17.76-18.182-18.182v10.783a8.286 8.286 0 0 1 7.406 7.399zm6.431 12.96-8.011-7.233a8.272 8.272 0 0 0 1.572-4.072h10.784a18.927 18.927 0 0 1-4.345 11.305z" fill="#878787"/>
    </g>
    <defs>
        <clipPath id="qmi6cx8v2a">
            <path fill="#fff" d="M0 0h48v48H0z"/>
        </clipPath>
    </defs>
</svg>
