<svg width="58" height="58" viewBox="0 0 58 58" fill="none" xmlns="http://www.w3.org/2000/svg">
    <g clip-path="url(#s8mjh1zapa)" fill="#4A4A4A">
        <path d="M45.88 19H12.12l4.23 9h25.3l4.23-9zM48.85 6H9.15C7.68 6 6.72 7.53 7.34 8.85L11.17 17h35.65l3.83-8.15C51.27 7.52 50.31 6 48.84 6h.01zM23.27 40h11.46c.77 0 1.48-.45 1.81-1.15L40.71 30H17.29l4.17 8.85c.33.7 1.03 1.15 1.81 1.15zM24 52h10c1.1 0 2-.9 2-2v-8H22v8c0 1.1.9 2 2 2z"/>
    </g>
    <defs>
        <clipPath id="s8mjh1zapa">
            <path fill="#fff" d="M0 0h58v58H0z"/>
        </clipPath>
    </defs>
</svg>
