<svg width="48" height="48" viewBox="0 0 48 48" fill="none" xmlns="http://www.w3.org/2000/svg">
    <g clip-path="url(#v7bwp6z8ya)" fill="#878787">
        <path d="M9.103 8.276h29.794c.91 0 1.655.745 1.655 1.655v4.138H7.448V9.931c0-.91.745-1.655 1.655-1.655z"/>
        <path fill-rule="evenodd" clip-rule="evenodd" d="M8.334 8.69a.393.393 0 0 0-.058.22v29.352c0 .11.033.184.058.22h31.331a.392.392 0 0 0 .06-.22V8.911a.392.392 0 0 0-.06-.221H8.335zm-1.713.22c0-.842.569-1.875 1.655-1.875h31.448c1.086 0 1.655 1.033 1.655 1.876v29.351c0 .843-.57 1.876-1.655 1.876H8.276c-1.086 0-1.655-1.033-1.655-1.876V8.911z"/>
        <path fill-rule="evenodd" clip-rule="evenodd" d="M15.724 9.931c.457 0 .828.37.828.828v28.138a.828.828 0 0 1-1.655 0V10.759c0-.457.37-.828.827-.828zM24 9.931c.457 0 .828.37.828.828v28.138a.828.828 0 0 1-1.656 0V10.759c0-.457.37-.828.828-.828zM32.276 9.931c.457 0 .827.37.827.828v28.138a.828.828 0 0 1-1.655 0V10.759c0-.457.37-.828.828-.828z"/>
        <path fill-rule="evenodd" clip-rule="evenodd" d="M6.62 19.448c0-.457.371-.827.828-.827h33.104a.828.828 0 1 1 0 1.655H7.448a.828.828 0 0 1-.827-.828zM6.62 26.069c0-.457.371-.828.828-.828h33.104a.828.828 0 1 1 0 1.655H7.448a.828.828 0 0 1-.827-.827z"/>
        <path fill-rule="evenodd" clip-rule="evenodd" d="M6.62 26.069c0-.457.371-.828.828-.828h33.104a.828.828 0 1 1 0 1.655H7.448a.828.828 0 0 1-.827-.827z"/>
        <path fill-rule="evenodd" clip-rule="evenodd" d="M6.62 26.069c0-.457.371-.828.828-.828h33.104a.828.828 0 1 1 0 1.655H7.448a.828.828 0 0 1-.827-.827zM6.62 32.69c0-.457.371-.828.828-.828h33.104a.828.828 0 1 1 0 1.655H7.448a.828.828 0 0 1-.827-.827z"/>
    </g>
    <defs>
        <clipPath id="v7bwp6z8ya">
            <path fill="#fff" d="M0 0h48v48H0z"/>
        </clipPath>
    </defs>
</svg>
