<svg width="48" height="48" viewBox="0 0 48 48" fill="none" xmlns="http://www.w3.org/2000/svg">
    <g clip-path="url(#cwwcnsjrca)" fill="#878787">
        <path d="M24.058 36.588a2.069 2.069 0 1 0 0-4.138 2.069 2.069 0 0 0 0 4.138zM23.23 22.146v-9.12a19.812 19.812 0 0 0-12.62 5.222l6.447 6.456a10.636 10.636 0 0 1 6.165-2.55l.009-.008zM13.3 32.864c0-2.673.976-5.115 2.59-6.993l-6.447-6.455a19.802 19.802 0 0 0-5.247 13.448H13.3zM31.051 24.704l6.447-6.456a19.794 19.794 0 0 0-12.62-5.222v9.129a10.723 10.723 0 0 1 6.165 2.549h.008zM43.92 32.864c0-5.19-1.986-9.906-5.247-13.448l-6.446 6.455a10.693 10.693 0 0 1 2.59 6.993h9.103zM37.507 18.248c.405.373.794.762 1.167 1.167z"/>
        <path d="m24.886 34.867.347-.348-.347-.34v.688zM22.892 34.519l.339.348v-.687l-.34.339z"/>
        <path d="m27.816 26.202-4.643 7.73 1.713.934 3.641-8.242c.224-.455-.414-.836-.711-.43v.008z"/>
    </g>
    <defs>
        <clipPath id="cwwcnsjrca">
            <path fill="#fff" d="M0 0h48v48H0z"/>
        </clipPath>
    </defs>
</svg>
