<svg width="58" height="58" viewBox="0 0 58 58" fill="none" xmlns="http://www.w3.org/2000/svg">
    <g clip-path="url(#fuyhrkhjla)">
        <path d="M29 19H19v10h10V19z" fill="#4A4A4A"/>
        <path d="M48 10.5H10a1 1 0 0 0-1 1v35a1 1 0 0 0 1 1h38a1 1 0 0 0 1-1v-35a1 1 0 0 0-1-1zM19 47.5v-37M29 47.5v-37M39 47.5v-37M49 19.75H9M49 29H9M49 38.25H9" stroke="#4A4A4A" stroke-width="2" stroke-miterlimit="10" stroke-linecap="round"/>
        <path d="M20 10v10H10V10M40 38v10H30V38" fill="#4A4A4A"/>
        <path d="M48 38v10H38V38M48 28v10H38V28M48 18v10H38V18" fill="#4A4A4A"/>
    </g>
    <defs>
        <clipPath id="fuyhrkhjla">
            <path fill="#fff" d="M0 0h58v58H0z"/>
        </clipPath>
    </defs>
</svg>
