<svg width="48" height="48" viewBox="0 0 48 48" fill="none" xmlns="http://www.w3.org/2000/svg">
    <g clip-path="url(#uckptubhha)" fill-rule="evenodd" clip-rule="evenodd">
        <path d="M4.286 3.429c.473 0 .857.383.857.857v39.428a.857.857 0 1 1-1.714 0V4.286c0-.474.383-.857.857-.857z" fill="#BEBEBE"/>
        <path d="M3.429 43.714c0-.473.383-.857.857-.857h39.428a.857.857 0 0 1 0 1.714H4.286a.857.857 0 0 1-.857-.857z" fill="#BEBEBE"/>
        <path d="M18.784 19.552c.563.433.668 1.24.235 1.803l-8.572 11.143A1.286 1.286 0 0 1 8.41 30.93l8.572-11.142a1.286 1.286 0 0 1 1.803-.236z" fill="#878787"/>
        <path d="M16.89 19.924a1.286 1.286 0 0 1 1.758-.463l10.285 6a1.286 1.286 0 1 1-1.295 2.221l-10.286-6a1.286 1.286 0 0 1-.463-1.758z" fill="#878787"/>
        <path d="M42.881 11.064c.517.486.542 1.3.055 1.817L29.222 27.453a1.286 1.286 0 0 1-1.873-1.763L41.064 11.12a1.286 1.286 0 0 1 1.817-.055z" fill="#878787"/>
    </g>
    <defs>
        <clipPath id="uckptubhha">
            <path fill="#fff" d="M0 0h48v48H0z"/>
        </clipPath>
    </defs>
</svg>
