<svg width="48" height="48" viewBox="0 0 48 48" fill="none" xmlns="http://www.w3.org/2000/svg">
    <path fill-rule="evenodd" clip-rule="evenodd" d="M4.138 43.035a.83.83 0 0 1 .827-.828h38.07a.83.83 0 0 1 .827.828.83.83 0 0 1-.828.827H4.965a.83.83 0 0 1-.827-.827z" fill="#BEBEBE"/>
    <path d="M6.62 34.759h6.621v3.31a1.66 1.66 0 0 1-1.655 1.655h-3.31A1.66 1.66 0 0 1 6.62 38.07v-3.31zM13.241 29.794h-6.62v4.137h6.62v-4.137zM13.241 28.965h-6.62v-4.137c0-.91.744-1.656 1.655-1.656h3.31c.91 0 1.655.745 1.655 1.655v4.138zM15.724 31.448h6.62v6.62a1.66 1.66 0 0 1-1.654 1.656h-3.31a1.66 1.66 0 0 1-1.656-1.655v-6.62zM24.827 28.966h6.62v9.103a1.66 1.66 0 0 1-1.654 1.655h-3.31a1.66 1.66 0 0 1-1.656-1.655v-9.103zM22.345 25.655h-6.62v4.966h6.62v-4.966zM22.345 24.828h-6.62v-2.483c0-.91.744-1.655 1.654-1.655h3.31c.911 0 1.656.745 1.656 1.655v2.483zM31.448 23.172h-6.62v4.966h6.62v-4.966zM31.448 22.345h-6.62V20.69c0-.91.744-1.655 1.654-1.655h3.31c.911 0 1.656.744 1.656 1.655v1.655zM33.93 35.586h6.621v2.483a1.66 1.66 0 0 1-1.655 1.655h-3.31a1.66 1.66 0 0 1-1.655-1.655v-2.483zM40.551 33.103h-6.62v1.656h6.62v-1.656zM40.551 32.276h-6.62v-.827c0-.91.745-1.655 1.655-1.655h3.31c.91 0 1.655.744 1.655 1.655v.827z" fill="#878787"/>
    <path fill-rule="evenodd" clip-rule="evenodd" d="m30.838 5.378-7.496 8.217-6.615-3.921a1.256 1.256 0 0 0-.746-.178 1.234 1.234 0 0 0-.635.236l-7.369 5.166a1.241 1.241 0 1 0 1.425 2.033l6.735-4.721 6.784 4.021a1.24 1.24 0 0 0 1.592-.237l7.114-7.796 7.423 10.78a1.241 1.241 0 0 0 2.044-1.409l-8.297-12.05a1.24 1.24 0 0 0-1.959-.14z" fill="#878787"/>
</svg>
