<svg width="48" height="48" viewBox="0 0 48 48" fill="none" xmlns="http://www.w3.org/2000/svg">
    <g clip-path="url(#yjmee9tr4a)">
        <path fill-rule="evenodd" clip-rule="evenodd" d="M4.138 43.035c0-.457.37-.828.827-.828h38.07a.828.828 0 0 1 0 1.655H4.964a.828.828 0 0 1-.827-.827z" fill="#BEBEBE"/>
        <path d="M11.586 30.62h-3.31c-.914 0-1.655.628-1.655 1.401v6.303c0 .773.74 1.4 1.655 1.4h3.31c.914 0 1.655-.627 1.655-1.4V32.02c0-.773-.74-1.4-1.655-1.4zM20.69 26.483h-3.31c-.915 0-1.656.624-1.656 1.394V38.33c0 .77.741 1.393 1.655 1.393h3.31c.915 0 1.656-.624 1.656-1.393V27.877c0-.77-.741-1.394-1.655-1.394zM29.793 20.69h-3.31c-.914 0-1.655.608-1.655 1.36v16.314c0 .751.74 1.36 1.655 1.36h3.31c.914 0 1.655-.609 1.655-1.36V22.05c0-.75-.74-1.36-1.655-1.36zM38.897 29.793h-3.31c-.915 0-1.656.635-1.656 1.419v7.093c0 .784.741 1.419 1.655 1.419h3.31c.915 0 1.656-.635 1.656-1.419v-7.093c0-.784-.741-1.419-1.655-1.419z" fill="#878787"/>
        <path fill-rule="evenodd" clip-rule="evenodd" d="m27.703 7.595 10.482 8.735a.828.828 0 1 1-1.06 1.272l-9.38-7.818-7.783 7.005-10.801 7.478a.828.828 0 1 1-.943-1.361l10.716-7.418 8.77-7.893z" fill="#878787"/>
        <path d="M9.931 25.241a2.483 2.483 0 1 0 0-4.965 2.483 2.483 0 0 0 0 4.965z" fill="#fff"/>
        <path fill-rule="evenodd" clip-rule="evenodd" d="M9.93 21.103a1.655 1.655 0 1 0 .001 3.31 1.655 1.655 0 0 0 0-3.31zM6.62 22.76a3.31 3.31 0 1 1 6.621 0 3.31 3.31 0 0 1-6.62 0z" fill="#878787"/>
        <path d="M19.035 18.62a2.483 2.483 0 1 0 0-4.965 2.483 2.483 0 0 0 0 4.966z" fill="#fff"/>
        <path fill-rule="evenodd" clip-rule="evenodd" d="M19.035 14.483a1.655 1.655 0 1 0 0 3.31 1.655 1.655 0 0 0 0-3.31zm-3.31 1.655a3.31 3.31 0 1 1 6.62 0 3.31 3.31 0 0 1-6.62 0z" fill="#878787"/>
        <path d="M28.138 11.172a2.483 2.483 0 1 0 0-4.965 2.483 2.483 0 0 0 0 4.965z" fill="#fff"/>
        <path fill-rule="evenodd" clip-rule="evenodd" d="M28.138 7.035a1.655 1.655 0 1 0 0 3.31 1.655 1.655 0 0 0 0-3.31zm-3.31 1.655a3.31 3.31 0 1 1 6.62 0 3.31 3.31 0 0 1-6.62 0z" fill="#878787"/>
        <path d="M37.242 19.448a2.483 2.483 0 1 0 0-4.965 2.483 2.483 0 0 0 0 4.965z" fill="#fff"/>
        <path fill-rule="evenodd" clip-rule="evenodd" d="M37.242 15.31a1.655 1.655 0 1 0 0 3.31 1.655 1.655 0 0 0 0-3.31zm-3.31 1.656a3.31 3.31 0 1 1 6.62 0 3.31 3.31 0 0 1-6.62 0z" fill="#878787"/>
    </g>
    <defs>
        <clipPath id="yjmee9tr4a">
            <path fill="#fff" d="M0 0h48v48H0z"/>
        </clipPath>
    </defs>
</svg>
