<svg width="48" height="48" viewBox="0 0 48 48" fill="none" xmlns="http://www.w3.org/2000/svg">
    <g clip-path="url(#bdd2umcgya)">
        <path fill-rule="evenodd" clip-rule="evenodd" d="m34.229 13.192.008-.009 2.26-2.259c.694-.695.645-1.846-.117-2.45A19.802 19.802 0 0 0 26.25 4.27c-.976-.107-1.828.67-1.828 1.655v12.282a6.179 6.179 0 0 1 3.62 1.17l3.265-3.264 2.922-2.921zm-5.278 6.986a6.223 6.223 0 0 0-.266-.268l2.763-2.762c.24-.24.638-.24.853.024v.009a.579.579 0 0 1-.133.844l-3.217 2.154zm1.614 3.4a6.174 6.174 0 0 0-1.092-2.76l3.672-2.462 1.928-1.291c.852-.571 2.011-.232 2.441.703.555 1.208.96 2.508 1.176 3.865.165 1.018-.596 1.953-1.63 1.953h-2.326v-.008h-4.17zm-1.478 4.921a6.183 6.183 0 0 0 1.534-4.085h11.462c.984 0 1.762.852 1.655 1.829a19.8 19.8 0 0 1-4.204 10.138c-.605.76-1.755.81-2.45.115l-2.268-2.267-2.93-2.93-2.8-2.8zm-4.673 2.122a6.183 6.183 0 0 0 4.085-1.534l2.809 2.808 1.638 1.639c.728.728.613 1.928-.223 2.532a14.78 14.78 0 0 1-6.456 2.648c-.976.15-1.853-.654-1.853-1.647v-6.446zm-5.239-2.877a6.208 6.208 0 0 0 4.42 2.823V42.083c0 .984-.853 1.762-1.83 1.655a19.82 19.82 0 0 1-12.902-6.894c-.637-.753-.455-1.887.356-2.433l2.657-1.78 3.434-2.308.008.008 3.857-2.587zm-.968-3.33c0 .926.203 1.806.567 2.595L15.6 29.14v-.008a.831.831 0 0 1-1.208-.315 10.581 10.581 0 0 1-1.052-3.459.84.84 0 0 1 .828-.943h4.039zm.055-.828H5.925c-.984 0-1.762-.852-1.655-1.829A19.8 19.8 0 0 1 8.474 11.62c.604-.761 1.755-.81 2.45-.116l2.268 2.268 2.93 2.93 3.623 3.623a6.182 6.182 0 0 0-1.483 3.262zm5.324-5.324a6.182 6.182 0 0 0-3.258 1.479l-2.99-2.99a.834.834 0 0 1 .082-1.25 10.659 10.659 0 0 1 5.214-2.16.833.833 0 0 1 .952.819v4.102z" fill="#878787"/>
    </g>
    <defs>
        <clipPath id="bdd2umcgya">
            <path fill="#fff" d="M0 0h48v48H0z"/>
        </clipPath>
    </defs>
</svg>
