<svg width="58" height="58" viewBox="0 0 58 58" fill="none" xmlns="http://www.w3.org/2000/svg">
    <g clip-path="url(#maqrv64dea)">
        <path fill-rule="evenodd" clip-rule="evenodd" d="m45.61 11.69-4.25 4.25v-.01l-3.54 3.54-8.32 8.32V5.02c6.25.13 11.91 2.64 16.11 6.67zM16.03 28.5H27.8l-8.32-8.32-3.54-3.54-4.25-4.25c-4.03 4.2-6.54 9.86-6.67 16.11h11.01zm30.94 1H30.21l8.32 8.32 3.54 3.54 4.25 4.25c4.03-4.2 6.54-9.86 6.67-16.11h-6.02zm-17.47.71v16.77c4.59-.13 8.75-1.97 11.86-4.91l-3.54-3.54-8.32-8.32zm-1-14.19v11.77l-8.32-8.32c2.2-2.05 5.11-3.33 8.32-3.45zm-10 20.62-4.15 2.79-4.99 3.35c.7 1 1.48 1.95 2.33 2.83a23.913 23.913 0 0 0 16.82 7.38V29.94l-3.47 2.33-6.53 4.38-.01-.01zm21-15.29-6.53 4.38.01-.01 5.55-5.55c.35.37.67.77.97 1.18zM17.94 35.81l9.41-6.31H16.02c.09 2.31.78 4.46 1.92 6.31zm29.03-7.31h-5v-.01H30.64l9.41-6.31 4.15-2.78c1.68 2.65 2.68 5.76 2.77 9.1z" fill="#4A4A4A"/>
    </g>
    <defs>
        <clipPath id="maqrv64dea">
            <path fill="#fff" d="M0 0h58v58H0z"/>
        </clipPath>
    </defs>
</svg>
