<svg width="48" height="48" viewBox="0 0 48 48" fill="none" xmlns="http://www.w3.org/2000/svg">
    <g clip-path="url(#fzif9e0tqa)">
        <path fill-rule="evenodd" clip-rule="evenodd" d="M4.965 4.138c.457 0 .828.37.828.827v38.07a.828.828 0 1 1-1.655 0V4.964c0-.457.37-.827.827-.827z" fill="#BEBEBE"/>
        <path d="M11.586 7.448v6.62H9.931a1.66 1.66 0 0 1-1.655-1.654v-3.31c0-.91.745-1.656 1.655-1.656h1.655zM12.414 16.552v6.62H9.93a1.66 1.66 0 0 1-1.655-1.655v-3.31c0-.91.744-1.655 1.655-1.655h2.483zM14.069 25.655v6.621H9.93a1.66 1.66 0 0 1-1.655-1.655v-3.31c0-.91.745-1.656 1.655-1.656h4.138zM16.552 34.759v6.62h-6.62a1.66 1.66 0 0 1-1.656-1.655v-3.31c0-.91.745-1.655 1.655-1.655h6.62zM14.896 14.069v-6.62h-2.482v6.62h2.482zM17.38 23.172v-6.62h-4.138v6.62h4.137zM23.172 32.276v-6.62h-8.276v6.62h8.276zM32.276 41.38v-6.621H17.379v6.62h14.897zM15.724 14.069v-6.62h.828c.91 0 1.655.744 1.655 1.654v3.31a1.66 1.66 0 0 1-1.655 1.656h-.828zM18.207 23.172v-6.62h1.655c.91 0 1.655.745 1.655 1.655v3.31a1.66 1.66 0 0 1-1.655 1.655h-1.655zM24 32.276v-6.62h3.31c.91 0 1.655.744 1.655 1.654v3.31a1.66 1.66 0 0 1-1.655 1.656H24zM33.103 41.38v-6.621h4.966c.91 0 1.655.745 1.655 1.655v3.31a1.66 1.66 0 0 1-1.655 1.656h-4.966zM40.833 8.366l-5.9 5.74 7.911 2.272c.124-.614.19-1.261.19-1.908a9.492 9.492 0 0 0-2.2-6.096v-.008zM34.246 4.965v7.763l5.553-5.407a9.463 9.463 0 0 0-5.553-2.356z" fill="#878787"/>
        <path d="m33.724 15.283-.935-.265V4.964a9.524 9.524 0 0 0-8.185 6.18c-.165.455-.314.92-.414 1.41A9.708 9.708 0 0 0 24 14.47c0 2.322.828 4.446 2.201 6.096.315.373.662.722 1.027 1.045a9.463 9.463 0 0 0 5.553 2.356c.24.016.488.033.728.033s.488-.017.728-.033a9.502 9.502 0 0 0 8.177-6.18l-8.177-2.346-.53-.15.017-.008z" fill="#878787"/>
    </g>
    <defs>
        <clipPath id="fzif9e0tqa">
            <path fill="#fff" d="M0 0h48v48H0z"/>
        </clipPath>
    </defs>
</svg>
