<svg width="48" height="48" viewBox="0 0 48 48" fill="none" xmlns="http://www.w3.org/2000/svg">
    <path fill-rule="evenodd" clip-rule="evenodd" d="M4.138 43.035a.83.83 0 0 1 .827-.828h38.07a.83.83 0 0 1 .827.828.83.83 0 0 1-.828.827H4.965a.83.83 0 0 1-.827-.827z" fill="#BEBEBE"/>
    <path fill-rule="evenodd" clip-rule="evenodd" d="M41.338 35.603h-9.201v-.017l-8.099-4.005-.636-.397-.73.198-9.345 2.5-7.938-1.879-.424-.1C5 28.809 5.033 23.016 5 19.458v-.737l7.913 7.928c.16.24.432.373.712.373a.947.947 0 0 0 .44-.116l7.905-3.302a.828.828 0 0 1 .432-.116c.289 0 .56.14.721.397l7.794 6.356a.84.84 0 0 0 .72.398h9.702c.933 0 1.696.744 1.696 1.655v3.773a3.46 3.46 0 0 0-1.696-.463zm1.629 2.88a1.685 1.685 0 0 1-1.637 1.241H7.433c-2.295 0-2.343-.511-2.407-1.201a5.849 5.849 0 0 0-.027-.247c.02-.929.024-.965.022-1.002-.003-.057-.022-.113-.022-3.657l8.345 1.97 9.77-2.616 8.514 4.27h9.702c.788 0 1.45.53 1.637 1.242zM32.789 15.02l.935.265v.009h-.016l.53.149 8.176 2.35a9.503 9.503 0 0 1-8.177 6.182c-.24.016-.488.033-.728.033s-.488-.017-.728-.033a9.482 9.482 0 0 1-5.553-2.359c-.365-.322-.712-.67-1.027-1.042a9.504 9.504 0 0 1-2.201-6.1c0-.662.066-1.307.19-1.92.1-.488.249-.951.414-1.407 1.266-3.41 4.42-5.892 8.185-6.182v10.056zm1.456-10.055v7.763l5.553-5.404a9.483 9.483 0 0 0-5.553-2.359zm6.588 3.402-5.9 5.743 7.911 2.276c.124-.612.19-1.258.19-1.912a9.504 9.504 0 0 0-2.2-6.099v-.008z" fill="#878787"/>
</svg>
