<svg width="48" height="48" viewBox="0 0 48 48" fill="none" xmlns="http://www.w3.org/2000/svg">
    <rect x="6.621" y="30.621" width="6.621" height="9.103" rx="2" fill="#878787"/>
    <rect x="15.724" y="22.345" width="6.621" height="17.379" rx="2" fill="#878787"/>
    <rect x="24.828" y="28.138" width="6.621" height="11.586" rx="2" fill="#878787"/>
    <rect x="33.931" y="33.103" width="6.621" height="6.621" rx="2" fill="#878787"/>
    <path fill-rule="evenodd" clip-rule="evenodd" d="M4.138 43.035c0-.457.37-.828.827-.828h38.07a.828.828 0 0 1 0 1.655H4.964a.828.828 0 0 1-.827-.827z" fill="#BEBEBE"/>
    <path d="m40.833 8.366-5.9 5.74 7.911 2.272c.124-.614.19-1.261.19-1.908a9.492 9.492 0 0 0-2.2-6.096v-.008zM34.246 4.965v7.763l5.553-5.407a9.463 9.463 0 0 0-5.553-2.356z" fill="#878787"/>
    <path d="m33.724 15.283-.935-.265V4.964a9.524 9.524 0 0 0-8.185 6.18c-.165.455-.314.92-.414 1.41A9.708 9.708 0 0 0 24 14.47c0 2.322.828 4.446 2.201 6.096.315.373.662.722 1.027 1.045a9.463 9.463 0 0 0 5.553 2.356c.24.016.488.033.728.033s.488-.017.728-.033a9.502 9.502 0 0 0 8.177-6.18l-8.177-2.346-.53-.15.017-.008z" fill="#878787"/>
</svg>
