<svg width="48" height="48" viewBox="0 0 48 48" fill="none" xmlns="http://www.w3.org/2000/svg">
    <g clip-path="url(#uy1n5lbqna)">
        <path fill-rule="evenodd" clip-rule="evenodd" d="M24 4.966C13.488 4.966 4.966 13.488 4.966 24c0 10.513 8.522 19.035 19.034 19.035 10.513 0 19.035-8.522 19.035-19.035 0-10.512-8.522-19.034-19.035-19.034zM3.31 24C3.31 12.574 12.575 3.31 24 3.31c11.427 0 20.69 9.264 20.69 20.69 0 11.427-9.263 20.69-20.69 20.69-11.426 0-20.69-9.263-20.69-20.69z" fill="#BEBEBE"/>
        <path d="M28.858 36.745a13.55 13.55 0 0 1-4.858.91c-1.994 0-3.89-.439-5.594-1.217a13.897 13.897 0 0 1-4.055-2.789l-2.922 2.922a17.682 17.682 0 0 0 5.28 3.633A17.605 17.605 0 0 0 24 41.784c2.235 0 4.362-.43 6.331-1.183l-1.473-3.865v.009z" fill="#727272"/>
        <path d="M11.255 28.858a13.549 13.549 0 0 1-.91-4.858H6.207c0 2.235.43 4.361 1.183 6.331a17.925 17.925 0 0 0 4.03 6.248l2.922-2.921a13.697 13.697 0 0 1-3.095-4.792l.008-.008z" fill="#C2C2C2"/>
        <path d="M40.61 17.67a17.927 17.927 0 0 0-4.03-6.25 17.68 17.68 0 0 0-5.28-3.632 17.606 17.606 0 0 0-7.292-1.581v4.138c1.995 0 3.89.439 5.595 1.216a13.897 13.897 0 0 1 4.055 2.79 13.697 13.697 0 0 1 3.095 4.791 13.447 13.447 0 0 1-.306 10.452 13.897 13.897 0 0 1-2.789 4.056 13.698 13.698 0 0 1-4.792 3.095l1.473 3.865a17.925 17.925 0 0 0 6.249-4.03 17.679 17.679 0 0 0 3.633-5.28 17.605 17.605 0 0 0 1.58-7.292c0-2.234-.43-4.361-1.183-6.33l-.008-.009z" fill="#6A6A6A"/>
        <path d="M29.85 29.851a8.293 8.293 0 0 1-2.904 1.879 8.284 8.284 0 0 1-2.946.554 8.164 8.164 0 0 1-3.393-.736L18.91 35.32a12.261 12.261 0 0 0 9.509.273 12.52 12.52 0 0 0 4.362-2.813l-2.922-2.922-.008-.008z" fill="#7C7C7C"/>
        <path d="M35.586 19.58a12.522 12.522 0 0 0-2.814-4.36 12.625 12.625 0 0 0-3.682-2.541 12.323 12.323 0 0 0-5.09-1.1v4.137c1.208 0 2.359.265 3.393.737a8.286 8.286 0 0 1 2.458 1.688 8.293 8.293 0 0 1 1.879 2.905c.347.918.554 1.903.554 2.946a8.164 8.164 0 0 1-.736 3.393 8.288 8.288 0 0 1-1.689 2.458l2.922 2.921a12.624 12.624 0 0 0 2.54-3.682 12.264 12.264 0 0 0 .273-9.509l-.008.008z" fill="#6A6A6A"/>
        <path d="M18.15 29.85a8.292 8.292 0 0 1-1.88-2.904A8.286 8.286 0 0 1 15.716 24c0-1.209.265-2.359.737-3.393l-3.774-1.697a12.263 12.263 0 0 0-.273 9.509 12.522 12.522 0 0 0 2.813 4.362 12.624 12.624 0 0 0 3.683 2.54l1.697-3.774a8.286 8.286 0 0 1-2.458-1.688l.008-.008z" fill="#C2C2C2"/>
        <path d="M26.044 26.044a2.94 2.94 0 0 1-1.018.654 2.83 2.83 0 0 1-1.026.198v4.138c.886 0 1.721-.174 2.5-.471a7.008 7.008 0 0 0 2.465-1.598l-2.92-2.921z" fill="#7C7C7C"/>
        <path d="M30.563 21.5a7.008 7.008 0 0 0-1.598-2.466 7.17 7.17 0 0 0-2.085-1.44 6.977 6.977 0 0 0-2.88-.629v4.138a2.941 2.941 0 0 1 2.044.844c.29.29.505.638.654 1.018.124.323.199.662.199 1.026a2.944 2.944 0 0 1-.844 2.044l2.92 2.922a7.17 7.17 0 0 0 1.44-2.085 6.977 6.977 0 0 0 .63-2.88c0-.886-.174-1.722-.472-2.5l-.008.008z" fill="#6A6A6A"/>
        <path d="M24 26.897a2.944 2.944 0 0 1-2.044-.844 2.944 2.944 0 0 1-.654-1.018l-3.865 1.473a7.009 7.009 0 0 0 1.597 2.466 7.17 7.17 0 0 0 2.086 1.44 6.976 6.976 0 0 0 2.88.629v-4.146z" fill="#C2C2C2"/>
    </g>
    <defs>
        <clipPath id="uy1n5lbqna">
            <path fill="#fff" d="M0 0h48v48H0z"/>
        </clipPath>
    </defs>
</svg>
