<svg width="48" height="48" viewBox="0 0 48 48" fill="none" xmlns="http://www.w3.org/2000/svg">
    <g clip-path="url(#u6uwqaxlda)" fill-rule="evenodd" clip-rule="evenodd">
        <path d="M4.138 43.035c0-.457.37-.828.827-.828h38.07a.828.828 0 0 1 0 1.655H4.964a.828.828 0 0 1-.827-.827z" fill="#BEBEBE"/>
        <path d="m32.789 15.018.935.265-.016.008.53.15 8.176 2.347a9.503 9.503 0 0 1-8.177 6.179c-.24.016-.488.033-.728.033s-.488-.017-.728-.033a9.462 9.462 0 0 1-5.553-2.356 10.179 10.179 0 0 1-1.027-1.045A9.492 9.492 0 0 1 24 14.47c0-.655.066-1.302.19-1.916.1-.49.248-.954.414-1.41a9.524 9.524 0 0 1 8.185-6.179v10.053zm1.456-10.053v7.763l5.553-5.407a9.463 9.463 0 0 0-5.553-2.356zm6.588 3.401-5.9 5.74 7.911 2.272c.124-.614.19-1.26.19-1.908a9.492 9.492 0 0 0-2.201-6.096v-.008zm-7.87 25.625a1.238 1.238 0 0 0-.846-.035l-6.513 1.968-9.278-4.797a1.24 1.24 0 0 0-1.21.013l-8.593 4.689a1.241 1.241 0 1 0 1.189 2.18l8.036-4.386 9.163 4.738a1.238 1.238 0 0 0 .93.085l6.596-1.994 8.073 3.185a1.241 1.241 0 0 0 .911-2.31l-8.458-3.336zm1.021-6.438a1.25 1.25 0 0 0-.61-.222 1.247 1.247 0 0 0-.67.132l-6.908 3.41-9.203-9.39a1.228 1.228 0 0 0-.894-.38 1.24 1.24 0 0 0-.793.287L5.97 28.64a1.241 1.241 0 1 0 1.564 1.928l8.069-6.546 9.027 9.209a1.236 1.236 0 0 0 .642.366 1.236 1.236 0 0 0 .838-.11L33.171 30l7.926 5.371a1.241 1.241 0 0 0 1.393-2.055l-8.506-5.764z" fill="#878787"/>
    </g>
    <defs>
        <clipPath id="u6uwqaxlda">
            <path fill="#fff" d="M0 0h48v48H0z"/>
        </clipPath>
    </defs>
</svg>
