<svg width="48" height="48" viewBox="0 0 48 48" fill="none" xmlns="http://www.w3.org/2000/svg">
    <g clip-path="url(#dxc8y3qw2a)">
        <path fill-rule="evenodd" clip-rule="evenodd" d="M4.138 43.035c0-.457.37-.828.827-.828h38.07a.828.828 0 0 1 0 1.655H4.964a.828.828 0 0 1-.827-.827z" fill="#BEBEBE"/>
        <path d="m40.833 8.366-5.9 5.74 7.911 2.272c.124-.614.19-1.261.19-1.908a9.492 9.492 0 0 0-2.2-6.096v-.008zM34.246 4.965v7.763l5.553-5.407a9.463 9.463 0 0 0-5.553-2.356z" fill="#878787"/>
        <path d="m33.724 15.283-.935-.265V4.964a9.524 9.524 0 0 0-8.185 6.18c-.165.455-.314.92-.414 1.41A9.708 9.708 0 0 0 24 14.47c0 2.322.828 4.446 2.201 6.096.315.373.662.722 1.027 1.045a9.463 9.463 0 0 0 5.553 2.356c.24.016.488.033.728.033s.488-.017.728-.033a9.502 9.502 0 0 0 8.177-6.18l-8.177-2.346-.53-.15.017-.008zM33.815 31.983h7.266c1.075 0 1.954.497 1.954 1.106v5.53c0 .608-.88 1.105-1.954 1.105H6.92c-1.084 0-1.963-.503-1.953-1.117.058-3.312.195-17.247.117-21.494-.01-.553 1.26-.774 1.787-.31 3.647 5.542 6.837 9.572 8.311 10.855.284.25.87.327 1.319.172l8.125-3.587c.46-.155 1.055-.072 1.338.182l7.022 7.287c.176.166.489.265.83.265v.006z" fill="#878787"/>
    </g>
    <defs>
        <clipPath id="dxc8y3qw2a">
            <path fill="#fff" d="M0 0h48v48H0z"/>
        </clipPath>
    </defs>
</svg>
