<svg width="48" height="48" viewBox="0 0 48 48" fill="none" xmlns="http://www.w3.org/2000/svg">
    <g clip-path="url(#z1iwu5hp4a)">
        <path fill-rule="evenodd" clip-rule="evenodd" d="M4.138 43.035c0-.457.37-.828.827-.828h38.07a.828.828 0 0 1 0 1.655H4.964a.828.828 0 0 1-.827-.827z" fill="#BEBEBE"/>
        <path d="M6.62 26.483h6.621v11.586a1.66 1.66 0 0 1-1.655 1.655h-3.31A1.66 1.66 0 0 1 6.62 38.07V26.483zM13.241 19.035h-6.62v6.62h6.62v-6.62zM13.241 18.207h-6.62v-6.62c0-.911.744-1.656 1.655-1.656h3.31c.91 0 1.655.745 1.655 1.655v6.621zM15.724 31.448h6.62v6.62a1.66 1.66 0 0 1-1.654 1.656h-3.31a1.66 1.66 0 0 1-1.656-1.655v-6.62zM24.828 36.414h6.62v1.655a1.66 1.66 0 0 1-1.655 1.655h-3.31a1.66 1.66 0 0 1-1.655-1.655v-1.655zM22.345 25.655h-6.62v4.966h6.62v-4.966zM22.345 24.827h-6.62v-2.482c0-.91.744-1.655 1.654-1.655h3.31c.911 0 1.656.744 1.656 1.655v2.482zM31.448 30.62h-6.62v4.966h6.62v-4.965zM31.448 29.793h-6.62v-1.655c0-.91.745-1.655 1.655-1.655h3.31c.91 0 1.655.745 1.655 1.655v1.655zM33.931 35.586h6.62v2.483a1.66 1.66 0 0 1-1.654 1.655h-3.31a1.66 1.66 0 0 1-1.656-1.655v-2.483zM40.552 33.103h-6.62v1.656h6.62v-1.656zM40.552 32.276h-6.62v-.828c0-.91.744-1.655 1.654-1.655h3.31c.911 0 1.656.745 1.656 1.655v.828zM40.833 8.366l-5.9 5.74 7.911 2.272c.124-.614.19-1.261.19-1.908a9.492 9.492 0 0 0-2.2-6.096v-.008zM34.246 4.965v7.763l5.553-5.407a9.463 9.463 0 0 0-5.553-2.356z" fill="#878787"/>
        <path d="m33.724 15.283-.935-.265V4.964a9.524 9.524 0 0 0-8.185 6.18c-.165.455-.314.92-.414 1.41A9.708 9.708 0 0 0 24 14.47c0 2.322.828 4.446 2.201 6.096.315.373.662.722 1.027 1.045a9.463 9.463 0 0 0 5.553 2.356c.24.016.488.033.728.033s.488-.017.728-.033a9.502 9.502 0 0 0 8.177-6.18l-8.177-2.346-.53-.15.017-.008z" fill="#878787"/>
    </g>
    <defs>
        <clipPath id="z1iwu5hp4a">
            <path fill="#fff" d="M0 0h48v48H0z"/>
        </clipPath>
    </defs>
</svg>
