<svg width="48" height="48" viewBox="0 0 48 48" fill="none" xmlns="http://www.w3.org/2000/svg">
    <g clip-path="url(#olxzifip0a)">
        <path fill-rule="evenodd" clip-rule="evenodd" d="M24 4.759c.114 0 .207.092.207.207v.793a.207.207 0 0 1-.414 0v-.793c0-.115.093-.207.207-.207zm0 2.38c.114 0 .207.092.207.206v1.586a.207.207 0 0 1-.414 0V7.345c0-.114.093-.207.207-.207zm0 3.171c.114 0 .207.093.207.207v1.587a.207.207 0 0 1-.414 0v-1.587c0-.114.093-.207.207-.207zm0 3.173c.114 0 .207.093.207.207v1.586a.207.207 0 0 1-.414 0V13.69c0-.114.093-.207.207-.207zm0 3.172c.114 0 .207.093.207.207v1.586a.207.207 0 0 1-.414 0v-1.586c0-.114.093-.207.207-.207zm0 3.173c.114 0 .207.092.207.207v1.586a.207.207 0 0 1-.414 0v-1.586c0-.115.093-.207.207-.207zM24 23c.114 0 .207.093.207.207v1.586a.207.207 0 0 1-.414 0v-1.586c0-.114.093-.207.207-.207zm0 3.173c.114 0 .207.092.207.207v1.586a.207.207 0 0 1-.414 0v-1.587c0-.114.093-.206.207-.206zm0 3.172c.114 0 .207.093.207.207v1.586a.207.207 0 0 1-.414 0v-1.586c0-.114.093-.207.207-.207zm0 3.172c.114 0 .207.093.207.207v1.587a.207.207 0 0 1-.414 0v-1.587c0-.114.093-.207.207-.207zm0 3.173c.114 0 .207.093.207.207v1.586a.207.207 0 0 1-.414 0v-1.586c0-.114.093-.207.207-.207zm0 3.172c.114 0 .207.093.207.207v1.586a.207.207 0 0 1-.414 0V39.07c0-.114.093-.207.207-.207zm0 3.173c.114 0 .207.092.207.207v.793a.207.207 0 0 1-.414 0v-.793c0-.115.093-.207.207-.207z" fill="#A5A5A5"/>
        <path fill-rule="evenodd" clip-rule="evenodd" d="M37.388 10.612c.08.08.08.212 0 .293l-.561.56a.207.207 0 1 1-.293-.292l.56-.56c.082-.082.213-.082.294 0zm-1.683 1.682c.08.081.08.212 0 .293l-1.121 1.122a.207.207 0 1 1-.293-.293l1.122-1.122c.08-.08.211-.08.292 0zm-2.243 2.244c.08.08.08.212 0 .292l-1.122 1.122a.207.207 0 1 1-.292-.293l1.121-1.121c.081-.081.212-.081.293 0zm-2.243 2.243c.08.08.08.212 0 .293l-1.122 1.121a.207.207 0 1 1-.293-.292l1.122-1.122c.08-.08.212-.08.293 0zm-2.244 2.243c.081.081.081.212 0 .293l-1.121 1.122a.207.207 0 1 1-.293-.293l1.122-1.122c.08-.08.212-.08.292 0zm-2.243 2.243c.08.081.08.212 0 .293l-1.122 1.122a.207.207 0 1 1-.292-.293l1.121-1.122c.081-.08.212-.08.293 0zm-2.243 2.244c.08.08.08.212 0 .292l-1.122 1.122a.207.207 0 1 1-.292-.293l1.121-1.121c.081-.081.212-.081.293 0zm-2.243 2.243c.08.08.08.212 0 .293l-1.122 1.121a.207.207 0 1 1-.293-.292l1.122-1.122c.08-.08.212-.08.293 0zm-2.244 2.243c.081.081.081.212 0 .293l-1.121 1.121a.207.207 0 1 1-.293-.292l1.122-1.122c.08-.08.212-.08.292 0zM17.76 30.24c.081.081.081.212 0 .293l-1.121 1.122a.207.207 0 1 1-.293-.293l1.122-1.122c.08-.08.211-.08.292 0zm-2.243 2.244c.08.08.08.212 0 .292l-1.122 1.122a.207.207 0 1 1-.292-.293l1.121-1.121c.081-.081.212-.081.293 0zm-2.243 2.243c.08.08.08.212 0 .293L12.15 36.14a.207.207 0 1 1-.293-.292l1.122-1.122c.08-.08.212-.08.293 0zM11.03 36.97c.08.08.08.212 0 .293l-.561.56a.207.207 0 1 1-.293-.292l.56-.56c.082-.082.213-.082.293 0z" fill="#A5A5A5"/>
        <path fill-rule="evenodd" clip-rule="evenodd" d="M43.241 24a.207.207 0 0 1-.207.207h-.793a.207.207 0 0 1 0-.414h.793c.115 0 .207.093.207.207zm-2.38 0a.207.207 0 0 1-.206.207h-1.586a.207.207 0 0 1 0-.414h1.586c.114 0 .207.093.207.207zm-3.171 0a.207.207 0 0 1-.207.207h-1.587a.207.207 0 0 1 0-.414h1.587c.114 0 .207.093.207.207zm-3.173 0a.207.207 0 0 1-.207.207h-1.586a.207.207 0 0 1 0-.414h1.586c.114 0 .207.093.207.207zm-3.172 0a.207.207 0 0 1-.207.207h-1.586a.207.207 0 0 1 0-.414h1.586c.114 0 .207.093.207.207zm-3.173 0a.207.207 0 0 1-.207.207H26.38a.207.207 0 0 1 0-.414h1.586c.115 0 .207.093.207.207zM25 24a.207.207 0 0 1-.207.207h-1.586a.207.207 0 0 1 0-.414h1.586c.114 0 .207.093.207.207zm-3.173 0a.207.207 0 0 1-.207.207h-1.586a.207.207 0 0 1 0-.414h1.587c.114 0 .206.093.206.207zm-3.172 0a.207.207 0 0 1-.207.207h-1.586a.207.207 0 0 1 0-.414h1.586c.114 0 .207.093.207.207zm-3.172 0a.207.207 0 0 1-.207.207H13.69a.207.207 0 0 1 0-.414h1.586c.114 0 .207.093.207.207zm-3.173 0a.207.207 0 0 1-.207.207h-1.586a.207.207 0 0 1 0-.414h1.586c.114 0 .207.093.207.207zm-3.172 0a.207.207 0 0 1-.207.207H7.345a.207.207 0 0 1 0-.414H8.93c.114 0 .207.093.207.207zm-3.173 0a.207.207 0 0 1-.207.207h-.793a.207.207 0 0 1 0-.414h.793c.115 0 .207.093.207.207z" fill="#A5A5A5"/>
        <path fill-rule="evenodd" clip-rule="evenodd" d="M38.215 38.215a.207.207 0 0 1-.293 0l-.573-.573a.207.207 0 1 1 .293-.293l.573.574c.08.08.08.211 0 .292zm-1.719-1.719a.207.207 0 0 1-.293 0l-1.146-1.146a.207.207 0 1 1 .293-.293l1.146 1.146c.08.081.08.212 0 .293zm-2.292-2.292a.207.207 0 0 1-.293 0l-1.146-1.146a.207.207 0 1 1 .293-.292l1.146 1.145c.08.081.08.212 0 .293zm-2.292-2.292a.207.207 0 0 1-.293 0l-1.146-1.146a.207.207 0 1 1 .293-.292l1.146 1.145c.08.081.08.212 0 .293zM29.62 29.62a.207.207 0 0 1-.293 0l-1.146-1.146a.207.207 0 1 1 .293-.293l1.146 1.146c.08.081.08.212 0 .293zm-2.292-2.292a.207.207 0 0 1-.293 0l-1.146-1.146a.207.207 0 1 1 .293-.292l1.146 1.145c.08.081.08.212 0 .293zm-2.292-2.292a.207.207 0 0 1-.293 0l-1.146-1.146a.207.207 0 1 1 .293-.293l1.146 1.146c.08.081.08.212 0 .293zm-2.292-2.292a.207.207 0 0 1-.293 0l-1.146-1.146a.207.207 0 1 1 .293-.293l1.146 1.146c.08.081.08.212 0 .293zm-2.292-2.292a.207.207 0 0 1-.293 0l-1.146-1.146a.207.207 0 1 1 .293-.293l1.146 1.146c.08.081.08.212 0 .293zM18.16 18.16a.207.207 0 0 1-.293 0l-1.146-1.146a.207.207 0 1 1 .293-.293l1.146 1.146c.08.081.08.212 0 .293zm-2.292-2.292a.207.207 0 0 1-.293 0l-1.146-1.146a.207.207 0 1 1 .293-.292l1.146 1.146c.08.08.08.211 0 .292zm-2.292-2.292a.207.207 0 0 1-.293 0l-1.146-1.146a.207.207 0 1 1 .293-.293l1.146 1.146c.08.081.08.212 0 .293zm-2.292-2.292a.207.207 0 0 1-.293 0l-.573-.573a.207.207 0 1 1 .293-.293l.573.574c.08.08.08.211 0 .292z" fill="#A5A5A5"/>
        <path fill-rule="evenodd" clip-rule="evenodd" d="M24 41.793c-9.807 0-17.793-7.986-17.793-17.793a17.768 17.768 0 0 1 5.214-12.58l2.93 2.93a13.574 13.574 0 0 0-3.005 4.527A13.54 13.54 0 0 0 10.353 24c0 7.531 6.124 13.655 13.655 13.655S37.664 31.531 37.664 24c0-7.53-6.125-13.655-13.656-13.655V6.207c9.807 0 17.793 7.986 17.793 17.793 0 9.807-7.986 17.793-17.793 17.793H24zM18.15 29.851A8.25 8.25 0 0 0 24 32.276c4.56 0 8.276-3.716 8.276-8.276S28.56 15.724 24 15.724v-4.138c6.844 0 12.414 5.57 12.414 12.414 0 6.844-5.57 12.414-12.414 12.414-3.426 0-6.53-1.39-8.772-3.642l2.921-2.92zM24 16.966A7.04 7.04 0 0 1 31.035 24h-4.138A2.9 2.9 0 0 0 24 21.104v-4.138z" fill="#878787"/>
        <path d="M24 44.69C12.588 44.69 3.31 35.413 3.31 24 3.31 12.588 12.589 3.31 24 3.31c11.413 0 20.69 9.278 20.69 20.69 0 11.413-9.277 20.69-20.69 20.69zm0-39.724C13.506 4.966 4.966 13.506 4.966 24S13.506 43.035 24 43.035 43.035 34.494 43.035 24 34.494 4.966 24 4.966z" fill="#BEBEBE"/>
    </g>
    <defs>
        <clipPath id="olxzifip0a">
            <path fill="#fff" d="M0 0h48v48H0z"/>
        </clipPath>
    </defs>
</svg>
