<svg width="48" height="48" viewBox="0 0 48 48" fill="none" xmlns="http://www.w3.org/2000/svg">
    <g clip-path="url(#p79oz4h1ra)">
        <path fill-rule="evenodd" clip-rule="evenodd" d="M4.138 43.035c0-.457.37-.828.827-.828h38.07a.828.828 0 0 1 0 1.655H4.964a.828.828 0 0 1-.827-.827z" fill="#BEBEBE"/>
        <path fill-rule="evenodd" clip-rule="evenodd" d="M41.816 15.969c.642.241.966.957.725 1.599l-5.623 14.964c-.414 1.185-1.34 2.019-2.483 2.211-1.154.195-2.308-.3-3.074-1.312a1.24 1.24 0 0 1-.225-.49l-1.408-6.606c-.204-.188-.395-.209-.513-.191-.147.022-.382.135-.535.518l-2.08 7.231c-.008.03-.018.059-.029.088-.489 1.322-1.598 2.15-2.874 2.18-1.26.029-2.416-.725-3.038-1.975a1.246 1.246 0 0 1-.062-.147l-1.852-5.352c-.247-.45-.559-.541-.726-.537-.159.004-.431.094-.603.56l-1.527 4.113-.001.004c-.38 1.014-1.148 1.777-2.128 2.061-.99.287-2.05.04-2.882-.68-.213-.184-.401-.205-.527-.181-.122.022-.292.107-.435.35l-2.165 4.76a1.241 1.241 0 1 1-2.26-1.028l2.187-4.808c.012-.027.026-.054.04-.08.473-.866 1.255-1.462 2.175-1.635.92-.173 1.864.1 2.609.743l.002.002c.237.206.435.21.565.173.14-.041.355-.18.493-.546v-.002l1.525-4.108c.49-1.323 1.599-2.15 2.875-2.18 1.26-.03 2.415.725 3.038 1.975.023.047.044.096.061.147l1.853 5.352c.246.45.558.54.726.537.154-.004.416-.09.589-.523l2.08-7.232c.008-.03.017-.058.028-.087.432-1.169 1.37-1.976 2.507-2.148 1.141-.172 2.275.327 3.025 1.33.108.144.183.31.22.485l1.408 6.601c.21.192.406.21.525.19.152-.026.405-.153.554-.588l.012-.034 5.63-14.979a1.241 1.241 0 0 1 1.598-.725z" fill="#878787"/>
        <path d="m20.971 8.366-5.9 5.74 7.911 2.272c.124-.614.19-1.261.19-1.908a9.492 9.492 0 0 0-2.201-6.096v-.008zM14.383 4.965v7.763l5.553-5.407a9.463 9.463 0 0 0-5.553-2.356z" fill="#878787"/>
        <path d="m13.862 15.283-.935-.265V4.964a9.524 9.524 0 0 0-8.185 6.18 9.89 9.89 0 0 0-.414 1.41 9.704 9.704 0 0 0-.19 1.915c0 2.322.827 4.446 2.201 6.096.315.373.662.722 1.026 1.045a9.463 9.463 0 0 0 5.553 2.356c.24.016.489.033.729.033s.488-.017.728-.033a9.502 9.502 0 0 0 8.177-6.18l-8.177-2.346-.53-.15.017-.008z" fill="#878787"/>
    </g>
    <defs>
        <clipPath id="p79oz4h1ra">
            <path fill="#fff" d="M0 0h48v48H0z"/>
        </clipPath>
    </defs>
</svg>
