<svg width="48" height="48" viewBox="0 0 48 48" fill="none" xmlns="http://www.w3.org/2000/svg">
    <g clip-path="url(#qv4yihyl6a)">
        <path fill-rule="evenodd" clip-rule="evenodd" d="m23.603 24.654.136.143v-.007l1.02 1.035 10.861 11.08a17.312 17.312 0 0 1-10.86 4.437c-.25.015-.5.022-.756.022-.173 0-.342-.006-.51-.013l-.246-.01c-7.996-.34-14.594-6.084-16.234-13.672a16.09 16.09 0 0 1-.25-1.489 17.526 17.526 0 0 1-.143-2.199 17.43 17.43 0 0 1 .891-5.502 17.437 17.437 0 0 1 4.875-7.422 17.312 17.312 0 0 1 10.861-4.436v17.67l.355.363zM24.76 6.62v16.468l16.234-2.796C39.354 12.705 32.756 6.96 24.76 6.62zm16.483 15.168-.007.001h.007zm-.007.001c.09.718.143 1.45.143 2.198a17.43 17.43 0 0 1-.892 5.503 17.437 17.437 0 0 1-3.794 6.363L26.543 25.5l-.99-1.013 1.837-.317 13.846-2.38z" fill="#878787"/>
    </g>
    <defs>
        <clipPath id="qv4yihyl6a">
            <path fill="#fff" d="M0 0h48v48H0z"/>
        </clipPath>
    </defs>
</svg>
