<svg width="48" height="48" viewBox="0 0 48 48" fill="none" xmlns="http://www.w3.org/2000/svg">
    <g clip-path="url(#2dytoeb2ba)">
        <path d="m40.833 8.366-5.9 5.74 7.911 2.272c.124-.614.19-1.261.19-1.908a9.492 9.492 0 0 0-2.2-6.096v-.008zM34.246 4.965v7.763l5.553-5.407a9.463 9.463 0 0 0-5.553-2.356z" fill="#878787"/>
        <path d="m33.724 15.283-.935-.265V4.964a9.524 9.524 0 0 0-8.185 6.18c-.165.455-.314.92-.414 1.41A9.708 9.708 0 0 0 24 14.47c0 2.322.828 4.446 2.201 6.096.315.373.662.722 1.027 1.045a9.463 9.463 0 0 0 5.553 2.356c.24.016.488.033.728.033s.488-.017.728-.033a9.502 9.502 0 0 0 8.177-6.18l-8.177-2.346-.53-.15.017-.008z" fill="#878787"/>
        <path fill-rule="evenodd" clip-rule="evenodd" d="M4.965 4.138c.457 0 .828.37.828.827v38.07a.828.828 0 1 1-1.655 0V4.964c0-.457.37-.827.827-.827z" fill="#BEBEBE"/>
        <rect x="8.276" y="34.759" width="34.759" height="6.621" rx="2" fill="#878787"/>
        <rect x="8.276" y="16.552" width="12.414" height="6.621" rx="2" fill="#878787"/>
        <rect x="8.276" y="25.655" width="19.035" height="6.621" rx="2" fill="#878787"/>
        <rect x="8.276" y="7.448" width="7.448" height="6.621" rx="2" fill="#878787"/>
    </g>
    <defs>
        <clipPath id="2dytoeb2ba">
            <path fill="#fff" d="M0 0h48v48H0z"/>
        </clipPath>
    </defs>
</svg>
