<svg width="48" height="48" viewBox="0 0 48 48" fill="none" xmlns="http://www.w3.org/2000/svg">
    <path fill-rule="evenodd" clip-rule="evenodd" d="m35.572 11.763.009-.01 2.557-2.556c.787-.787.73-2.089-.131-2.772a22.41 22.41 0 0 0-11.464-4.758c-1.105-.122-2.07.758-2.07 1.873v8.883a11.542 11.542 0 0 1 7.38 3.059l.412-.412 3.307-3.307zm-2.357 5.213c-.219-.287-.452-.564-.696-.83l.734-.733c.272-.272.721-.272.965.028v.01c.243.299.168.74-.15.955l-.853.57zm2.361 6.542a11.522 11.522 0 0 0-1.707-5.591l.476-.32 2.182-1.46c.965-.647 2.276-.263 2.763.796a16.812 16.812 0 0 1 1.33 4.374c.188 1.152-.674 2.21-1.845 2.21h-2.632v-.01h-.566zm-3.057 8.336a11.542 11.542 0 0 0 3.058-7.39H44.46c1.115 0 1.995.965 1.874 2.07a22.407 22.407 0 0 1-4.758 11.473c-.684.862-1.986.918-2.773.131l-2.566-2.566-3.316-3.316-.402-.402zm-8.055 3.723a11.542 11.542 0 0 0 7.39-3.058l.412.412 1.854 1.854c.824.824.693 2.183-.253 2.866a16.727 16.727 0 0 1-7.305 2.997c-1.106.169-2.098-.74-2.098-1.864v-3.207zm-9.816-4.737a11.57 11.57 0 0 0 8.888 4.737v8.883c0 1.115-.965 1.995-2.07 1.874a22.431 22.431 0 0 1-14.602-7.802c-.72-.853-.515-2.136.403-2.754l3.007-2.014 3.887-2.613.01.01.477-.32zm-2.163-5.549a11.51 11.51 0 0 0 1.29 4.162l-1.769 1.187v-.01a.941.941 0 0 1-1.367-.356 11.975 11.975 0 0 1-1.19-3.915.95.95 0 0 1 .937-1.068h2.099zm3.001-9.15a11.543 11.543 0 0 0-3.063 7.386H3.54c-1.115 0-1.995-.965-1.873-2.07A22.408 22.408 0 0 1 6.425 9.984c.683-.862 1.985-.918 2.772-.132l2.566 2.567 3.316 3.315.407.408zm7.214-3.655a11.526 11.526 0 0 0-5.65 2.243l-1.422-1.421a.944.944 0 0 1 .094-1.415 12.063 12.063 0 0 1 5.9-2.444.942.942 0 0 1 1.078.927v2.11z" fill="#878787"/>
    <path d="m30.361 18.681-5.13 4.99 6.88 1.977a8.416 8.416 0 0 0 .165-1.659c0-2.02-.72-3.865-1.915-5.3v-.008zM24.633 15.724v6.75l4.83-4.702a8.229 8.229 0 0 0-4.83-2.048z" fill="#AFAFAF"/>
    <path d="m24.18 24.696-.813-.23v-8.742a8.282 8.282 0 0 0-7.117 5.373 8.6 8.6 0 0 0-.36 1.226 8.442 8.442 0 0 0-.166 1.666c0 2.02.72 3.866 1.914 5.301.274.325.576.628.893.909a8.229 8.229 0 0 0 4.829 2.048c.208.014.424.029.633.029.209 0 .424-.015.633-.029a8.263 8.263 0 0 0 7.11-5.373l-7.11-2.041-.46-.13.014-.007z" fill="#AFAFAF"/>
</svg>
