<svg width="48" height="48" viewBox="0 0 48 48" fill="none" xmlns="http://www.w3.org/2000/svg">
    <path fill-rule="evenodd" clip-rule="evenodd" d="M33.215 33.51A13.198 13.198 0 0 1 24 37.241c-7.313 0-13.241-5.929-13.241-13.242 0-7.014 5.453-12.754 12.35-13.212V3.311A20.59 20.59 0 0 0 9.27 9.466a20.581 20.581 0 0 0-5.941 13.918c-.01.2-.017.402-.017.607 0 .306.009.603.027.9.459 10.718 9.062 19.322 19.771 19.772l.293.01c.2.009.402.017.607.017.306 0 .603-.01.9-.027a20.59 20.59 0 0 0 13.841-6.156l-5.535-4.998zM37.21 23.09c-.447-6.586-5.709-11.85-12.294-12.3V3.32c10.71.459 19.313 9.053 19.772 19.771H37.21zm-2.794 9.084a13.177 13.177 0 0 0 2.795-7.284h7.478a20.582 20.582 0 0 1-4.725 12.293l-5.548-5.009z" fill="#878787"/>
    <path d="m30.998 18.15-5.645 5.49 7.568 2.173a9.266 9.266 0 0 0 .182-1.825 9.08 9.08 0 0 0-2.105-5.83v-.009zM24.696 14.896v7.426l5.312-5.172a9.053 9.053 0 0 0-5.312-2.253z" fill="#AFAFAF"/>
    <path d="m24.198 24.765-.895-.253v-9.616a9.11 9.11 0 0 0-7.829 5.91c-.158.437-.3.881-.395 1.35a9.278 9.278 0 0 0-.183 1.832 9.08 9.08 0 0 0 2.106 5.831c.301.357.633.69.982 1a9.051 9.051 0 0 0 5.311 2.253c.23.015.467.031.697.031.23 0 .467-.016.697-.031a9.09 9.09 0 0 0 7.82-5.91l-7.82-2.246-.507-.143.016-.008z" fill="#AFAFAF"/>
</svg>
