<svg width="48" height="48" viewBox="0 0 48 48" fill="none" xmlns="http://www.w3.org/2000/svg">
    <g clip-path="url(#chnq0g1ora)" fill-rule="evenodd" clip-rule="evenodd">
        <path d="M4.965 4.138c.457 0 .828.37.828.827v38.07a.828.828 0 1 1-1.655 0V4.964c0-.457.37-.827.827-.827z" fill="#BEBEBE"/>
        <path d="M4.138 43.035c0-.457.37-.828.827-.828h38.07a.828.828 0 0 1 0 1.655H4.964a.828.828 0 0 1-.827-.827z" fill="#BEBEBE"/>
        <path d="M17.38 29.793a2.069 2.069 0 1 0 0 4.138 2.069 2.069 0 0 0 0-4.138zm-3.725 2.069a3.724 3.724 0 1 1 7.448 0 3.724 3.724 0 0 1-7.448 0zM19.035 19.862a2.069 2.069 0 1 0 0 4.138 2.069 2.069 0 0 0 0-4.138zm-3.725 2.07a3.724 3.724 0 1 1 7.449 0 3.724 3.724 0 0 1-7.449 0zM24.828 12.414a2.069 2.069 0 1 0 0 4.138 2.069 2.069 0 0 0 0-4.138zm-3.724 2.069a3.724 3.724 0 1 1 7.448 0 3.724 3.724 0 0 1-7.448 0zM35.586 9.931a2.069 2.069 0 1 0 0 4.138 2.069 2.069 0 0 0 0-4.138zM31.862 12a3.724 3.724 0 1 1 7.449 0 3.724 3.724 0 0 1-7.449 0zM33.931 20.69a2.069 2.069 0 1 0 0 4.138 2.069 2.069 0 0 0 0-4.138zm-3.724 2.069a3.724 3.724 0 1 1 7.448 0 3.724 3.724 0 0 1-7.448 0zM28.138 28.966a2.069 2.069 0 1 0 0 4.138 2.069 2.069 0 0 0 0-4.138zm-3.724 2.069a3.724 3.724 0 1 1 7.448 0 3.724 3.724 0 0 1-7.448 0z" fill="#878787"/>
    </g>
    <defs>
        <clipPath id="chnq0g1ora">
            <path fill="#fff" d="M0 0h48v48H0z"/>
        </clipPath>
    </defs>
</svg>
