<svg width="48" height="48" viewBox="0 0 48 48" fill="none" xmlns="http://www.w3.org/2000/svg">
    <path fill-rule="evenodd" clip-rule="evenodd" d="M4.138 43.035a.83.83 0 0 1 .827-.828h38.07a.83.83 0 0 1 .827.828.83.83 0 0 1-.828.827H4.965a.83.83 0 0 1-.827-.827z" fill="#BEBEBE"/>
    <path fill-rule="evenodd" clip-rule="evenodd" d="M18.583 21.36h-1.42V13.77h-.053l-2.213 1.399V13.87l2.304-1.456h1.382v8.946zm1.587-.967 2.985-3.085c.944-1.005 1.413-1.567 1.413-2.34 0-.875-.688-1.43-1.596-1.43-.956 0-1.565.624-1.572 1.56h-1.236c-.012-1.617 1.188-2.684 2.832-2.684 1.645 0 2.809 1.08 2.82 2.51-.011.986-.462 1.773-2.082 3.402l-1.749 1.817v.075h3.972v1.149h-5.793v-.974h.006zm5.786-1.417v-.006.006zm0 0c.06 1.426 1.347 2.39 3.16 2.39 1.815 0 3.16-1.065 3.16-2.513.006-1.103-.694-1.904-1.89-2.07v-.062c.942-.235 1.562-.943 1.55-1.935.012-1.288-1.073-2.372-2.795-2.372-1.63 0-2.95.967-2.987 2.384h1.283c.025-.789.812-1.275 1.691-1.275.924 0 1.525.499 1.525 1.337s-.694 1.386-1.692 1.386h-.75v1.085h.75c1.252.006 1.97.634 1.97 1.479 0 .844-.768 1.417-1.827 1.417-.98 0-1.741-.487-1.791-1.251h-1.357z" fill="#878787"/>
    <path d="M28.759 4.965H18.414c-.572 0-1.035.695-1.035 1.552V8.38c0 .857.463 1.552 1.035 1.552h10.345c.571 0 1.034-.695 1.034-1.552V6.517c0-.857-.463-1.552-1.034-1.552z" fill="#BEBEBE"/>
    <path d="M15.26 32.276H6.62a1.66 1.66 0 0 0-1.655 1.655v4.138c0 .91.745 1.655 1.655 1.655h34.743c.918 0 1.663-.753 1.655-1.671-.05-4.958-.166-15.476-.1-21.832.009-.828-1.067-1.159-1.514-.464-2.144 3.32-7.448 11.438-8.698 13.358a.822.822 0 0 1-1.117.256l-7.713-4.13a.837.837 0 0 0-1.134.274l-6.778 6.355a.816.816 0 0 1-.704.398v.008z" fill="#878787"/>
</svg>
