<svg width="58" height="58" viewBox="0 0 58 58" fill="none" xmlns="http://www.w3.org/2000/svg">
    <g clip-path="url(#cdjw8wg0ra)" stroke-width="2" stroke-miterlimit="10" stroke-linecap="round">
        <path d="M6 6v46M52 52H6" stroke="#BEBEBE"/>
        <path d="M21 42a3.5 3.5 0 1 0 0-7 3.5 3.5 0 0 0 0 7z" fill="#fff" stroke="#4A4A4A"/>
        <path d="M23 30a3.5 3.5 0 1 0 0-7 3.5 3.5 0 0 0 0 7zM30 21a3.5 3.5 0 1 0 0-7 3.5 3.5 0 0 0 0 7zM43 18a3.5 3.5 0 1 0 0-7 3.5 3.5 0 0 0 0 7zM41 31a3.5 3.5 0 1 0 0-7 3.5 3.5 0 0 0 0 7zM34 41a3.5 3.5 0 1 0 0-7 3.5 3.5 0 0 0 0 7z" stroke="#4A4A4A"/>
    </g>
    <defs>
        <clipPath id="cdjw8wg0ra">
            <path fill="#fff" d="M0 0h58v58H0z"/>
        </clipPath>
    </defs>
</svg>
