<svg width="48" height="48" viewBox="0 0 48 48" fill="none" xmlns="http://www.w3.org/2000/svg">
    <g clip-path="url(#4iht32awra)">
        <path fill-rule="evenodd" clip-rule="evenodd" d="M4.138 43.035c0-.457.37-.828.827-.828h38.07a.828.828 0 0 1 0 1.655H4.964a.828.828 0 0 1-.827-.827z" fill="#BEBEBE"/>
        <path d="M6.62 26.483h6.621v11.586a1.66 1.66 0 0 1-1.655 1.655h-3.31A1.66 1.66 0 0 1 6.62 38.07V26.483zM13.241 14.896h-6.62v9.931h6.62v-9.93zM13.241 13.241h-6.62v-6.62c0-.91.744-1.656 1.655-1.656h3.31c.91 0 1.655.745 1.655 1.655v6.621zM15.724 31.448h6.62v6.62a1.66 1.66 0 0 1-1.654 1.656h-3.31a1.66 1.66 0 0 1-1.656-1.655v-6.62zM22.345 24.828h-6.62v4.965h6.62v-4.965zM22.345 23.173h-6.62V20.69c0-.91.744-1.655 1.654-1.655h3.31c.911 0 1.656.744 1.656 1.655v2.483zM24.828 27.31h6.62v10.76a1.66 1.66 0 0 1-1.655 1.654h-3.31a1.66 1.66 0 0 1-1.655-1.655V27.31zM31.448 19.862h-6.62v5.793h6.62v-5.793zM31.448 18.207h-6.62v-3.31c0-.911.745-1.656 1.655-1.656h3.31c.91 0 1.655.745 1.655 1.655v3.31zM33.931 35.586h6.62v2.483a1.66 1.66 0 0 1-1.654 1.655h-3.31a1.66 1.66 0 0 1-1.656-1.655v-2.483zM40.552 27.31h-6.62v6.621h6.62v-6.62zM40.552 25.655h-6.62V24c0-.91.744-1.655 1.654-1.655h3.31c.911 0 1.656.745 1.656 1.655v1.655z" fill="#878787"/>
    </g>
    <defs>
        <clipPath id="4iht32awra">
            <path fill="#fff" d="M0 0h48v48H0z"/>
        </clipPath>
    </defs>
</svg>
