<svg width="48" height="48" viewBox="0 0 48 48" fill="none" xmlns="http://www.w3.org/2000/svg">
    <g clip-path="url(#jxb1eufola)" fill="#878787">
        <path d="M43.837 23.793h-7.473a12.338 12.338 0 0 0-3.037-7.332 12.941 12.941 0 0 0-1.167-1.167 12.338 12.338 0 0 0-7.333-3.037V4.784c-.273-.009-.546-.025-.827-.025-.282 0-.555.008-.828.025a19.646 19.646 0 0 0-5.934 1.183 19.16 19.16 0 0 0-1.53.629 19.852 19.852 0 0 0-6.315 4.585l1.167 1.167 4.105 4.105a12.338 12.338 0 0 0-3.038 7.332H4.163c-.009.273-.025.546-.025.828 0 .281.008.554.025.827a19.817 19.817 0 0 0 6.397 13.78l1.167-1.167 4.104-4.105a12.339 12.339 0 0 0 7.333 3.037v7.473c.273.008.546.025.827.025.282 0 .555-.008.828-.025a19.683 19.683 0 0 0 5.81-1.142 17.535 17.535 0 0 0 1.539-.62 19.757 19.757 0 0 0 6.439-4.643 19.755 19.755 0 0 0 5.23-12.613c.008-.273.025-.546.025-.827 0-.282-.008-.555-.025-.828v.008zM32.16 17.628a10.7 10.7 0 0 1 2.557 6.165h-4.99a5.78 5.78 0 0 0-1.093-2.631l3.526-3.526v-.008zM28.634 28.08a5.728 5.728 0 0 0 1.093-2.632h4.99a10.723 10.723 0 0 1-2.557 6.166l-3.526-3.526v-.008zm2.359 4.7a10.809 10.809 0 0 1-2.251 1.482c-.488.24-1.002.447-1.54.613-.76.24-1.555.397-2.375.463v-4.99c.166-.025.331-.066.489-.1a5.94 5.94 0 0 0 1.547-.595c.207-.116.406-.249.596-.398l3.526 3.526h.008zm-6.166-18.876a10.723 10.723 0 0 1 6.166 2.557l-3.526 3.525a5.727 5.727 0 0 0-2.631-1.092v-4.99h-.009zM23.172 6.43v5.817c-1.084.075-2.135.29-3.128.621L17.859 7.5a17.935 17.935 0 0 1 5.305-1.06l.008-.008zm-6.165 10.022a10.846 10.846 0 0 1 3.658-2.061 10.86 10.86 0 0 1 2.507-.497v4.99a5.306 5.306 0 0 0-.629.133c-.546.14-1.06.356-1.523.646-.165.099-.33.206-.488.322l-3.525-3.525v-.008zm-5.28-5.28a18.184 18.184 0 0 1 4.601-3.054l2.185 5.38a12.69 12.69 0 0 0-2.682 1.778l-4.104-4.104zm4.104 6.446 3.526 3.526a5.73 5.73 0 0 0-1.092 2.632h-4.99a10.723 10.723 0 0 1 2.556-6.166v.008zm2.434 7.821a5.78 5.78 0 0 0 1.092 2.632l-3.525 3.525a10.7 10.7 0 0 1-2.558-6.165h4.99v.008zm-7.713 11.446a18.116 18.116 0 0 1-4.75-11.446h5.817a12.338 12.338 0 0 0 3.037 7.333l-4.104 4.104v.009zm12.612-1.556a10.722 10.722 0 0 1-6.166-2.557l3.526-3.526a5.73 5.73 0 0 0 2.632 1.093v4.99h.008zm1.514-6.646a3.788 3.788 0 0 1-.687.066 4.53 4.53 0 0 1-.827-.082 4.017 4.017 0 0 1-1.448-.604 4.124 4.124 0 0 1-1.167-1.167 4.08 4.08 0 0 1-.687-2.276c0-.281.033-.563.083-.828.107-.53.314-1.018.604-1.448.29-.439.67-.82 1.1-1.117l-.082-.207.149.149a4.081 4.081 0 0 1 2.275-.687c.282 0 .563.033.828.083.53.107 1.018.314 1.448.604.464.306.861.703 1.167 1.167a4.08 4.08 0 0 1 .687 2.276c0 .281-.033.562-.083.827a4.017 4.017 0 0 1-.604 1.448c-.306.464-.703.861-1.167 1.167l-.05.025c-.421.273-.893.48-1.406.58-.042.008-.091 0-.14.016l.007.008zm6.861 12.48a18.276 18.276 0 0 1-6.712 1.639v-5.818a11.936 11.936 0 0 0 2.996-.58c.53-.173 1.035-.388 1.531-.62a12.202 12.202 0 0 0 2.797-1.837l4.105 4.105a18.134 18.134 0 0 1-4.725 3.111h.008zm5.892-4.278-4.104-4.105a12.339 12.339 0 0 0 3.037-7.333h5.818a18.154 18.154 0 0 1-4.75 11.446v-.008z"/>
        <path opacity=".67" d="m28.634 28.08 3.526 3.526a10.699 10.699 0 0 0 2.557-6.166h-4.99a5.781 5.781 0 0 1-1.093 2.632v.008zM19.366 21.162l-3.526-3.526a10.7 10.7 0 0 0-2.557 6.166h4.99a5.78 5.78 0 0 1 1.093-2.632v-.008zM27.459 19.987l3.525-3.526a10.7 10.7 0 0 0-6.165-2.557v4.99c.976.14 1.879.53 2.632 1.093h.008zM33.335 32.78l4.105 4.105a18.116 18.116 0 0 0 4.75-11.445h-5.818a12.339 12.339 0 0 1-3.037 7.332v.009z"/>
        <path d="m21.575 21.021.082.207s.042-.042.067-.058l-.15-.149z"/>
    </g>
    <defs>
        <clipPath id="jxb1eufola">
            <path fill="#fff" d="M0 0h48v48H0z"/>
        </clipPath>
    </defs>
</svg>
