<svg width="48" height="48" viewBox="0 0 48 48" fill="none" xmlns="http://www.w3.org/2000/svg">
    <g clip-path="url(#i44ifn22za)">
        <path fill-rule="evenodd" clip-rule="evenodd" d="M16.25 36.854h-2.435V23.84h-.09l-3.794 2.399v-2.225l3.951-2.497h2.369v15.337zm2.72-1.659 5.117-5.287c1.618-1.723 2.422-2.686 2.422-4.013 0-1.499-1.18-2.451-2.736-2.451-1.639 0-2.683 1.07-2.694 2.675h-2.12c-.02-2.772 2.037-4.602 4.856-4.602 2.82 0 4.814 1.852 4.835 4.303-.02 1.69-.793 3.04-3.571 5.833l-2.997 3.114v.129h6.808v1.97h-9.93v-1.67h.01zm9.92-2.428v-.01.01zm0 0c.102 2.444 2.31 4.098 5.417 4.098 3.112 0 5.417-1.827 5.417-4.31.01-1.89-1.19-3.264-3.24-3.549v-.105c1.615-.402 2.677-1.616 2.656-3.317.021-2.208-1.837-4.067-4.79-4.067-2.794 0-5.056 1.659-5.12 4.088h2.199c.042-1.352 1.391-2.187 2.9-2.187 1.582 0 2.612.856 2.612 2.293 0 1.436-1.19 2.376-2.9 2.376h-1.284v1.86h1.285c2.145.01 3.377 1.087 3.377 2.534 0 1.448-1.317 2.43-3.133 2.43-1.678 0-2.985-.835-3.07-2.144h-2.325z" fill="#878787"/>
        <path d="M22.138 9.435H11.793c-.571 0-1.034.694-1.034 1.551v1.862c0 .857.463 1.552 1.034 1.552h10.345c.571 0 1.035-.695 1.035-1.552v-1.862c0-.857-.464-1.551-1.035-1.551z" fill="#BEBEBE"/>
    </g>
    <defs>
        <clipPath id="i44ifn22za">
            <path fill="#fff" d="M0 0h48v48H0z"/>
        </clipPath>
    </defs>
</svg>
