<svg width="48" height="48" viewBox="0 0 48 48" fill="none" xmlns="http://www.w3.org/2000/svg">
    <g clip-path="url(#sj39dvyfba)">
        <path fill-rule="evenodd" clip-rule="evenodd" d="M4.965 4.138c.457 0 .828.37.828.827v38.07a.828.828 0 1 1-1.655 0V4.964c0-.457.37-.827.827-.827z" fill="#BEBEBE"/>
        <path d="M21.517 6.62v6.621H9.931a1.66 1.66 0 0 1-1.655-1.655v-3.31c0-.91.745-1.655 1.655-1.655h11.586zM33.103 13.241v-6.62h-9.93v6.62h9.93zM34.759 13.241v-6.62h6.62c.91 0 1.656.744 1.656 1.655v3.31a1.66 1.66 0 0 1-1.655 1.655h-6.621zM16.552 15.724v6.62h-6.62a1.66 1.66 0 0 1-1.656-1.654v-3.31c0-.911.745-1.656 1.655-1.656h6.62zM23.172 22.345v-6.62h-4.965v6.62h4.965zM24.828 22.345v-6.62h2.482c.91 0 1.656.744 1.656 1.654v3.31a1.66 1.66 0 0 1-1.656 1.656h-2.482zM20.69 24.828v6.62H9.93a1.66 1.66 0 0 1-1.654-1.655v-3.31c0-.91.744-1.655 1.655-1.655h10.758zM28.138 31.448v-6.62h-5.793v6.62h5.793zM29.793 31.448v-6.62h3.31c.91 0 1.655.745 1.655 1.655v3.31a1.66 1.66 0 0 1-1.655 1.655h-3.31zM12.414 33.931v6.62H9.93a1.66 1.66 0 0 1-1.655-1.654v-3.31c0-.911.744-1.656 1.655-1.656h2.483zM20.69 40.552v-6.62h-6.621v6.62h6.62zM22.345 40.552v-6.62H24c.91 0 1.655.744 1.655 1.654v3.31A1.66 1.66 0 0 1 24 40.553h-1.655z" fill="#878787"/>
    </g>
    <defs>
        <clipPath id="sj39dvyfba">
            <path fill="#fff" d="M0 0h48v48H0z"/>
        </clipPath>
    </defs>
</svg>
