<svg width="48" height="48" viewBox="0 0 48 48" fill="none" xmlns="http://www.w3.org/2000/svg">
    <path fill-rule="evenodd" clip-rule="evenodd" d="M33.215 33.51A13.198 13.198 0 0 1 24 37.241c-7.313 0-13.241-5.929-13.241-13.242 0-7.014 5.453-12.754 12.35-13.212V3.311A20.59 20.59 0 0 0 9.27 9.466a20.581 20.581 0 0 0-5.941 13.918c-.01.2-.017.402-.017.607 0 .306.009.603.027.9.459 10.718 9.062 19.322 19.771 19.772l.293.01c.2.009.402.017.607.017.306 0 .603-.01.9-.027a20.59 20.59 0 0 0 13.841-6.156l-5.535-4.998zM37.21 23.09c-.447-6.586-5.709-11.85-12.294-12.3V3.32c10.71.459 19.313 9.053 19.772 19.771H37.21zm-2.794 9.084a13.177 13.177 0 0 0 2.795-7.284h7.478a20.582 20.582 0 0 1-4.725 12.293l-5.548-5.009z" fill="#878787"/>
    <path fill-rule="evenodd" clip-rule="evenodd" d="M18.184 32.269h-1.586v-8.474h-.059l-2.47 1.562v-1.45l2.573-1.625h1.542v9.987zm1.771-1.08 3.332-3.443c1.054-1.122 1.578-1.75 1.578-2.613 0-.976-.769-1.596-1.782-1.596-1.068 0-1.747.697-1.754 1.742h-1.38c-.014-1.805 1.325-2.997 3.161-2.997s3.135 1.206 3.148 2.802c-.013 1.1-.516 1.979-2.325 3.798L21.98 30.91v.084h4.434v1.282h-6.467v-1.087h.007zm6.459-1.582V29.6v.007zm0 0c.066 1.592 1.503 2.669 3.527 2.669 2.026 0 3.527-1.19 3.527-2.806.007-1.232-.775-2.126-2.11-2.311v-.07c1.052-.26 1.744-1.051 1.73-2.159.014-1.437-1.197-2.648-3.12-2.648-1.818 0-3.291 1.08-3.333 2.662h1.432c.027-.88.906-1.424 1.888-1.424 1.03 0 1.701.557 1.701 1.493 0 .935-.774 1.547-1.888 1.547h-.837v1.21h.837c1.397.008 2.2.71 2.2 1.652s-.858 1.581-2.04 1.581c-1.094 0-1.944-.543-2-1.396h-1.514z" fill="#878787"/>
    <path d="M28.759 14.896H18.414c-.572 0-1.035.695-1.035 1.552v1.862c0 .857.463 1.552 1.035 1.552h10.345c.571 0 1.034-.695 1.034-1.552v-1.862c0-.857-.463-1.552-1.034-1.552z" fill="#BEBEBE"/>
</svg>
