<svg width="48" height="48" viewBox="0 0 48 48" fill="none" xmlns="http://www.w3.org/2000/svg">
    <g clip-path="url(#bfvf58j4wa)">
        <path fill-rule="evenodd" clip-rule="evenodd" d="M4.138 43.035c0-.457.37-.828.827-.828h38.07a.828.828 0 0 1 0 1.655H4.964a.828.828 0 0 1-.827-.827z" fill="#BEBEBE"/>
        <path fill-rule="evenodd" clip-rule="evenodd" d="m16.593 21.483 9.203 9.39 6.907-3.41a1.247 1.247 0 0 1 1.281.09l8.506 5.764a1.241 1.241 0 0 1-1.393 2.056L33.17 30l-7.06 3.485a1.243 1.243 0 0 1-1.48-.256l-9.027-9.21-8.069 6.547a1.241 1.241 0 0 1-1.564-1.928l8.935-7.249a1.234 1.234 0 0 1 .793-.287c.328 0 .653.13.894.38zm-.267 9.645 9.278 4.796 6.513-1.968a1.24 1.24 0 0 1 .846.035l8.458 3.337a1.241 1.241 0 1 1-.911 2.31l-8.073-3.185-6.596 1.993a1.238 1.238 0 0 1-.93-.085l-9.163-4.737-8.036 4.384a1.241 1.241 0 1 1-1.19-2.18l8.594-4.688a1.26 1.26 0 0 1 .618-.164 1.233 1.233 0 0 1 .592.152zM19.41 21.36h-1.42V13.77h-.053l-2.213 1.399V13.87l2.305-1.456h1.382v8.946zm1.588-.967 2.985-3.085c.944-1.005 1.413-1.567 1.413-2.34 0-.875-.689-1.43-1.596-1.43-.957 0-1.566.624-1.572 1.56h-1.236c-.013-1.617 1.187-2.684 2.832-2.684 1.645 0 2.808 1.08 2.82 2.51-.012.986-.462 1.773-2.083 3.402l-1.748 1.817v.075h3.972v1.149h-5.793v-.974h.006zm5.786-1.417v-.006.006zm0 0c.06 1.426 1.347 2.39 3.16 2.39 1.815 0 3.16-1.065 3.16-2.513.006-1.103-.694-1.904-1.89-2.07v-.062c.942-.235 1.561-.943 1.549-1.935.012-1.288-1.072-2.372-2.794-2.372-1.63 0-2.95.967-2.987 2.384h1.283c.024-.789.811-1.275 1.691-1.275.923 0 1.524.499 1.524 1.337s-.694 1.386-1.691 1.386h-.75v1.085h.75c1.251.006 1.97.634 1.97 1.479 0 .844-.768 1.417-1.828 1.417-.979 0-1.74-.487-1.79-1.251h-1.357z" fill="#878787"/>
        <path d="M29.586 4.965H19.241c-.57 0-1.034.695-1.034 1.552V8.38c0 .857.463 1.552 1.034 1.552h10.345c.572 0 1.035-.695 1.035-1.552V6.517c0-.857-.463-1.552-1.035-1.552z" fill="#BEBEBE"/>
    </g>
    <defs>
        <clipPath id="bfvf58j4wa">
            <path fill="#fff" d="M0 0h48v48H0z"/>
        </clipPath>
    </defs>
</svg>
