<svg width="48" height="48" viewBox="0 0 48 48" fill="none" xmlns="http://www.w3.org/2000/svg">
    <g clip-path="url(#h6kfmpf57a)">
        <path fill-rule="evenodd" clip-rule="evenodd" d="M4.138 43.035c0-.457.37-.828.827-.828h38.07a.828.828 0 0 1 0 1.655H4.964a.828.828 0 0 1-.827-.827z" fill="#BEBEBE"/>
        <path d="M6.62 31.448h6.621v6.62a1.66 1.66 0 0 1-1.655 1.656h-3.31A1.66 1.66 0 0 1 6.62 38.07v-6.62zM13.241 26.483h-6.62v4.138h6.62v-4.138zM13.241 25.655h-6.62v-4.138c0-.91.744-1.655 1.655-1.655h3.31c.91 0 1.655.745 1.655 1.655v4.138zM24.828 36.414h6.62v1.655a1.66 1.66 0 0 1-1.655 1.655h-3.31a1.66 1.66 0 0 1-1.655-1.655v-1.655zM15.724 36.414h6.62v1.655a1.66 1.66 0 0 1-1.654 1.655h-3.31a1.66 1.66 0 0 1-1.656-1.655v-1.655zM31.448 31.448h-6.62v4.138h6.62v-4.138zM31.448 30.62h-6.62v-.827c0-.91.745-1.655 1.655-1.655h3.31c.91 0 1.655.744 1.655 1.655v.828zM22.345 30.62h-6.62v4.966h6.62v-4.965zM22.345 29.793h-6.62v-1.655c0-.91.744-1.655 1.654-1.655h3.31c.911 0 1.656.745 1.656 1.655v1.655zM33.931 36.414h6.62v1.655a1.66 1.66 0 0 1-1.654 1.655h-3.31a1.66 1.66 0 0 1-1.656-1.655v-1.655zM40.552 33.931h-6.62v1.655h6.62v-1.655zM40.552 33.103h-6.62v-.827c0-.91.744-1.655 1.654-1.655h3.31c.911 0 1.656.744 1.656 1.655v.827z" fill="#878787"/>
        <path fill-rule="evenodd" clip-rule="evenodd" d="M19.41 21.36h-1.42V13.77h-.053l-2.213 1.399V13.87l2.305-1.456h1.382v8.946zm1.588-.967 2.985-3.085c.944-1.005 1.413-1.567 1.413-2.34 0-.875-.689-1.43-1.596-1.43-.957 0-1.566.624-1.572 1.56h-1.236c-.013-1.617 1.187-2.684 2.832-2.684 1.645 0 2.808 1.08 2.82 2.51-.012.986-.462 1.773-2.083 3.402l-1.748 1.817v.075h3.972v1.149h-5.793v-.974h.006zm5.786-1.417v-.006.006zm0 0c.06 1.426 1.347 2.39 3.16 2.39 1.815 0 3.16-1.065 3.16-2.513.006-1.103-.694-1.904-1.89-2.07v-.062c.942-.235 1.561-.943 1.549-1.935.012-1.288-1.072-2.372-2.794-2.372-1.63 0-2.95.967-2.987 2.384h1.283c.024-.789.811-1.275 1.691-1.275.923 0 1.524.499 1.524 1.337s-.694 1.386-1.691 1.386h-.75v1.085h.75c1.251.006 1.97.634 1.97 1.479 0 .844-.768 1.417-1.828 1.417-.979 0-1.74-.487-1.79-1.251h-1.357z" fill="#878787"/>
        <path d="M29.586 4.965H19.241c-.57 0-1.034.695-1.034 1.552V8.38c0 .857.463 1.552 1.034 1.552h10.345c.572 0 1.035-.695 1.035-1.552V6.517c0-.857-.463-1.552-1.035-1.552z" fill="#BEBEBE"/>
    </g>
    <defs>
        <clipPath id="h6kfmpf57a">
            <path fill="#fff" d="M0 0h48v48H0z"/>
        </clipPath>
    </defs>
</svg>
