<svg width="48" height="48" viewBox="0 0 48 48" fill="none" xmlns="http://www.w3.org/2000/svg">
    <g clip-path="url(#xvuuu8ehza)" fill-rule="evenodd" clip-rule="evenodd">
        <path d="M4.965 4.138c.457 0 .828.37.828.827v38.07a.828.828 0 1 1-1.655 0V4.964c0-.457.37-.827.827-.827z" fill="#BEBEBE"/>
        <path d="M4.138 43.035c0-.457.37-.828.827-.828h38.07a.828.828 0 0 1 0 1.655H4.964a.828.828 0 0 1-.827-.827z" fill="#BEBEBE"/>
        <path d="m33.277 32.105-7.643 6.289a1.244 1.244 0 0 1-1.388.164l-6.875-3.362-6.818 3.947a1.241 1.241 0 1 1-1.244-2.149l7.39-4.278a1.235 1.235 0 0 1 1.183-.034l6.765 3.308 7.548-6.21a1.246 1.246 0 0 1 1.152-.243l8.317 2.45a1.241 1.241 0 1 1-.701 2.381l-7.686-2.263z" fill="#878787"/>
        <path d="M41.623 21.08a1.241 1.241 0 1 0-.487-2.435L32.86 20.3c-.28.056-.52.203-.693.403l-7.655 8.42-6.623-2.945a1.246 1.246 0 0 0-.994-.01l-.025.01-7.443 3.308a1.241 1.241 0 0 0 1.008 2.27l6.944-3.087 6.916 3.074a1.235 1.235 0 0 0 .716.106c.287-.043.555-.186.75-.409l7.987-8.786 7.875-1.575zM42.573 9.379c.533.43.617 1.212.186 1.745l-4.484 5.558c-1.017 1.91-3.671 2.22-5.097.552l-1.255-1.47h-.001a.62.62 0 0 0-1.027.126l-2.118 4.238c-1.116 2.232-4.3 2.307-5.503.096l-1.555-2.845-.001-.002a.62.62 0 0 0-1.1.017l-.001.003-1.546 3.091-.001.002c-.862 1.735-3.095 2.25-4.637 1.094l-.001-.002a.616.616 0 0 0-.873.132l-.002.003-3.03 4.245a1.241 1.241 0 0 1-2.02-1.442l3.027-4.242v-.002a3.099 3.099 0 0 1 4.39-.677l-.746.991.745-.993c.311.234.758.121.924-.212l.001-.004 1.547-3.092v-.001c1.12-2.25 4.305-2.3 5.503-.098h.001l1.556 2.848a.623.623 0 0 0 1.101-.02l2.119-4.238c.993-1.986 3.683-2.315 5.13-.635l.003.004 1.257 1.472a.624.624 0 0 0 1.035-.14 1.24 1.24 0 0 1 .159-.255l4.568-5.66a1.241 1.241 0 0 1 1.746-.187z" fill="#878787"/>
    </g>
    <defs>
        <clipPath id="xvuuu8ehza">
            <path fill="#fff" d="M0 0h48v48H0z"/>
        </clipPath>
    </defs>
</svg>
