<svg width="58" height="58" viewBox="0 0 58 58" fill="none" xmlns="http://www.w3.org/2000/svg">
    <g clip-path="url(#h1eibufq0a)">
        <path d="M6 52h46" stroke="#BEBEBE" stroke-width="2" stroke-miterlimit="10" stroke-linecap="round"/>
        <path d="M8 32h8v14c0 1.1-.9 2-2 2h-4c-1.1 0-2-.9-2-2V32zM16 18H8v12h8V18zM16 16H8V8c0-1.1.9-2 2-2h4c1.1 0 2 .9 2 2v8zM19 38h8v8c0 1.1-.9 2-2 2h-4c-1.1 0-2-.9-2-2v-8zM27 30h-8v6h8v-6zM27 28h-8v-3c0-1.1.9-2 2-2h4c1.1 0 2 .9 2 2v3zM30 33h8v13c0 1.1-.9 2-2 2h-4c-1.1 0-2-.9-2-2V33zM38 24h-8v7h8v-7zM38 22h-8v-4c0-1.1.9-2 2-2h4c1.1 0 2 .9 2 2v4zM41 43h8v3c0 1.1-.9 2-2 2h-4c-1.1 0-2-.9-2-2v-3zM49 33h-8v8h8v-8zM49 31h-8v-2c0-1.1.9-2 2-2h4c1.1 0 2 .9 2 2v2z" fill="#4A4A4A"/>
    </g>
    <defs>
        <clipPath id="h1eibufq0a">
            <path fill="#fff" d="M0 0h58v58H0z"/>
        </clipPath>
    </defs>
</svg>
