<svg width="48" height="48" viewBox="0 0 48 48" fill="none" xmlns="http://www.w3.org/2000/svg">
    <path fill-rule="evenodd" clip-rule="evenodd" d="m35.572 11.763.009-.01 2.557-2.556c.787-.787.73-2.089-.131-2.772a22.41 22.41 0 0 0-11.464-4.758c-1.105-.122-2.07.758-2.07 1.873v12.974a9.323 9.323 0 0 1 5.12 1.229l2.672-2.673 3.307-3.307zm-4.573 6.97a9.354 9.354 0 0 0-.598-.469l2.024-2.024c.272-.271.721-.271.965.028v.01c.243.3.169.74-.15.955l-2.24 1.5zm3.002 4.785a9.351 9.351 0 0 0-2.309-4.132l2.653-1.778 2.182-1.462c.965-.646 2.276-.262 2.763.797a16.812 16.812 0 0 1 1.33 4.374c.188 1.152-.674 2.21-1.845 2.21h-2.632v-.01h-2.142zm-1.694 8.124a9.326 9.326 0 0 0 1.991-5.773c0-.478-.036-.947-.105-1.405H44.46c1.115 0 1.995.965 1.874 2.07a22.407 22.407 0 0 1-4.758 11.473c-.684.862-1.986.918-2.773.131l-2.566-2.566-3.316-3.316-.614-.614zm-7.843 3.581a9.34 9.34 0 0 0 7.226-2.869l.576.577 1.854 1.854c.824.824.693 2.183-.253 2.866a16.727 16.727 0 0 1-7.305 2.997c-1.106.169-2.098-.74-2.098-1.864v-3.56zm-8.09-5.541a9.377 9.377 0 0 0 7.162 5.45V44.46c0 1.115-.965 1.995-2.07 1.874a22.431 22.431 0 0 1-14.602-7.802c-.72-.853-.515-2.136.403-2.754l3.007-2.014 3.887-2.613.01.01 2.204-1.48zm-.703-5.218a9.432 9.432 0 0 0 .356 4.316l-1.538 1.032v-.01a.94.94 0 0 1-1.368-.355 11.974 11.974 0 0 1-1.19-3.915.95.95 0 0 1 .937-1.068h2.803zm2.78-5.357a9.359 9.359 0 0 0-2.59 4.42H3.54c-1.115 0-1.995-.965-1.873-2.07A22.408 22.408 0 0 1 6.425 9.984c.683-.862 1.985-.918 2.772-.132l2.566 2.567 3.316 3.315 3.372 3.373zm5.076-2.5a9.322 9.322 0 0 0-4.369 1.886l-2.702-2.702a.944.944 0 0 1 .093-1.415 12.065 12.065 0 0 1 5.901-2.444.942.942 0 0 1 1.077.927v3.748zM21.437 30.616h-.926V25.67h-.034l-1.442.912v-.846l1.502-.95h.9v5.831zm1.035-.63 1.945-2.01c.615-.655.92-1.022.92-1.526 0-.57-.448-.932-1.04-.932-.623 0-1.02.407-1.024 1.017h-.805c-.008-1.054.774-1.75 1.846-1.75s1.83.705 1.838 1.636c-.008.643-.302 1.156-1.358 2.218l-1.14 1.184v.049h2.59v.749h-3.776v-.635h.004zm3.77-.924v-.004.004zm0 0c.04.93.879 1.559 2.06 1.559 1.183 0 2.06-.695 2.06-1.639.003-.719-.453-1.24-1.232-1.35v-.04c.614-.152 1.017-.614 1.01-1.26.007-.84-.7-1.546-1.822-1.546-1.062 0-1.922.63-1.946 1.554h.836c.016-.514.529-.831 1.102-.831.602 0 .993.325.993.87 0 .547-.452.904-1.102.904h-.489v.707h.489c.816.004 1.284.414 1.284.964s-.5.924-1.191.924c-.638 0-1.135-.318-1.167-.816h-.884z" fill="#878787"/>
    <path d="M28.276 19.862h-6.897c-.38 0-.69.464-.69 1.035v1.241c0 .571.31 1.035.69 1.035h6.897c.38 0 .69-.463.69-1.035v-1.241c0-.571-.31-1.035-.69-1.035z" fill="#BEBEBE"/>
</svg>
