<svg width="48" height="48" viewBox="0 0 48 48" fill="none" xmlns="http://www.w3.org/2000/svg">
    <g clip-path="url(#u7m7x02o8a)">
        <path fill-rule="evenodd" clip-rule="evenodd" d="M4.965 4.138c.457 0 .828.37.828.827v38.07a.828.828 0 1 1-1.655 0V4.964c0-.457.37-.827.827-.827z" fill="#BEBEBE"/>
        <path d="M11.586 7.448v6.62H9.931a1.66 1.66 0 0 1-1.655-1.654v-3.31c0-.91.745-1.656 1.655-1.656h1.655zM12.414 16.552v6.62H9.93a1.66 1.66 0 0 1-1.655-1.655v-3.31c0-.91.744-1.655 1.655-1.655h2.483zM14.069 25.655v6.621H9.93a1.66 1.66 0 0 1-1.655-1.655v-3.31c0-.91.745-1.656 1.655-1.656h4.138zM16.552 34.759v6.62h-6.62a1.66 1.66 0 0 1-1.656-1.655v-3.31c0-.91.745-1.655 1.655-1.655h6.62zM14.896 14.069v-6.62h-2.482v6.62h2.482zM17.38 23.172v-6.62h-4.138v6.62h4.137zM23.172 32.276v-6.62h-8.276v6.62h8.276zM32.276 41.38v-6.621H17.379v6.62h14.897zM15.724 14.069v-6.62h.828c.91 0 1.655.744 1.655 1.654v3.31a1.66 1.66 0 0 1-1.655 1.656h-.828zM18.207 23.172v-6.62h1.655c.91 0 1.655.745 1.655 1.655v3.31a1.66 1.66 0 0 1-1.655 1.655h-1.655zM24 32.276v-6.62h3.31c.91 0 1.655.744 1.655 1.654v3.31a1.66 1.66 0 0 1-1.655 1.656H24zM33.103 41.38v-6.621h4.966c.91 0 1.655.745 1.655 1.655v3.31a1.66 1.66 0 0 1-1.655 1.656h-4.966z" fill="#878787"/>
        <path fill-rule="evenodd" clip-rule="evenodd" d="M29.342 21.36H27.92V13.77h-.052l-2.214 1.399V13.87l2.305-1.456h1.382v8.946zm1.587-.967 2.985-3.085c.944-1.005 1.413-1.567 1.413-2.34 0-.875-.688-1.43-1.596-1.43-.956 0-1.566.624-1.572 1.56h-1.236c-.012-1.617 1.188-2.684 2.832-2.684 1.645 0 2.808 1.08 2.82 2.51-.012.986-.462 1.773-2.083 3.402l-1.748 1.817v.075h3.972v1.149h-5.793v-.974h.006zm5.786-1.417v-.006.006zm0 0c.06 1.426 1.347 2.39 3.16 2.39 1.815 0 3.16-1.065 3.16-2.513.006-1.103-.694-1.904-1.89-2.07v-.062c.942-.235 1.561-.943 1.549-1.935.012-1.288-1.072-2.372-2.794-2.372-1.63 0-2.95.967-2.987 2.384h1.283c.025-.789.811-1.275 1.691-1.275.923 0 1.524.499 1.524 1.337s-.694 1.386-1.691 1.386h-.75v1.085h.75c1.252.006 1.97.634 1.97 1.479 0 .844-.768 1.417-1.828 1.417-.979 0-1.74-.487-1.79-1.251h-1.357z" fill="#878787"/>
        <path d="M39.517 4.965H29.173c-.572 0-1.035.695-1.035 1.552V8.38c0 .857.463 1.552 1.035 1.552h10.345c.57 0 1.034-.695 1.034-1.552V6.517c0-.857-.463-1.552-1.035-1.552z" fill="#BEBEBE"/>
    </g>
    <defs>
        <clipPath id="u7m7x02o8a">
            <path fill="#fff" d="M0 0h48v48H0z"/>
        </clipPath>
    </defs>
</svg>
