<svg width="48" height="48" viewBox="0 0 48 48" fill="none" xmlns="http://www.w3.org/2000/svg">
    <g clip-path="url(#oqzt3l01oa)">
        <rect x="8.276" y="7.448" width="5.793" height="6.621" rx="2" fill="#878787"/>
        <rect x="8.276" y="16.552" width="9.931" height="6.621" rx="2" fill="#878787"/>
        <rect x="8.276" y="25.655" width="22.345" height="6.621" rx="2" fill="#878787"/>
        <rect x="8.276" y="34.759" width="34.759" height="6.621" rx="2" fill="#878787"/>
        <path fill-rule="evenodd" clip-rule="evenodd" d="M30.17 21.36h-1.422V13.77h-.052l-2.213 1.399V13.87l2.305-1.456h1.381v8.946zm1.586-.967 2.985-3.085c.944-1.005 1.414-1.567 1.414-2.34 0-.875-.689-1.43-1.596-1.43-.957 0-1.566.624-1.572 1.56H31.75c-.012-1.617 1.188-2.684 2.833-2.684 1.645 0 2.808 1.08 2.82 2.51-.012.986-.463 1.773-2.083 3.402l-1.748 1.817v.075h3.971v1.149H31.75v-.974h.006zm5.787-1.417v-.006.006zm0 0c.059 1.426 1.347 2.39 3.16 2.39 1.815 0 3.16-1.065 3.16-2.513.005-1.103-.695-1.904-1.89-2.07v-.062c.941-.235 1.561-.943 1.549-1.935.012-1.288-1.072-2.372-2.795-2.372-1.63 0-2.949.967-2.986 2.384h1.282c.025-.789.812-1.275 1.692-1.275.923 0 1.524.499 1.524 1.337s-.694 1.386-1.691 1.386h-.75v1.085h.75c1.251.006 1.97.634 1.97 1.479 0 .844-.768 1.417-1.828 1.417-.979 0-1.741-.487-1.79-1.251h-1.357z" fill="#878787"/>
        <path d="M40.345 4.965H30c-.572 0-1.035.695-1.035 1.552V8.38c0 .857.463 1.552 1.035 1.552h10.345c.571 0 1.034-.695 1.034-1.552V6.517c0-.857-.463-1.552-1.034-1.552z" fill="#BEBEBE"/>
        <path fill-rule="evenodd" clip-rule="evenodd" d="M4.965 4.138c.457 0 .828.37.828.827v38.07a.828.828 0 1 1-1.655 0V4.964c0-.457.37-.827.827-.827z" fill="#BEBEBE"/>
    </g>
    <defs>
        <clipPath id="oqzt3l01oa">
            <path fill="#fff" d="M0 0h48v48H0z"/>
        </clipPath>
    </defs>
</svg>
