<svg width="48" height="48" viewBox="0 0 48 48" fill="none" xmlns="http://www.w3.org/2000/svg">
    <path fill-rule="evenodd" clip-rule="evenodd" d="M4.138 43.035a.83.83 0 0 1 .827-.828h38.07a.83.83 0 0 1 .827.828.83.83 0 0 1-.828.827H4.965a.83.83 0 0 1-.827-.827z" fill="#BEBEBE"/>
    <path fill-rule="evenodd" clip-rule="evenodd" d="M41.338 35.603h-9.201v-.017l-8.099-4.005-.636-.397-.73.198-9.345 2.5-7.938-1.879-.424-.1C5 28.809 5.033 23.016 5 19.458v-.737l7.913 7.928c.16.24.432.373.712.373a.947.947 0 0 0 .44-.116l7.905-3.302a.828.828 0 0 1 .432-.116c.289 0 .56.14.721.397l7.794 6.356a.84.84 0 0 0 .72.398h9.702c.933 0 1.696.744 1.696 1.655v3.773a3.46 3.46 0 0 0-1.696-.463zm1.629 2.88a1.685 1.685 0 0 1-1.637 1.241H7.433c-2.295 0-2.343-.511-2.407-1.201a5.849 5.849 0 0 0-.027-.247c.02-.929.024-.965.022-1.002-.003-.057-.022-.113-.022-3.657l8.345 1.97 9.77-2.616 8.514 4.27h9.702c.788 0 1.45.53 1.637 1.242zM19.41 21.36h-1.42V13.77h-.053l-2.213 1.399V13.87l2.305-1.456h1.382v8.946zm1.588-.967 2.985-3.085c.944-1.005 1.413-1.567 1.413-2.34 0-.875-.689-1.43-1.596-1.43-.957 0-1.566.624-1.572 1.56h-1.236c-.013-1.617 1.187-2.684 2.832-2.684 1.645 0 2.808 1.08 2.82 2.51-.012.986-.462 1.773-2.083 3.402l-1.748 1.817v.075h3.972v1.149h-5.793v-.974h.006zm5.786-1.417v-.006.006zm0 0c.06 1.426 1.347 2.39 3.16 2.39 1.815 0 3.16-1.065 3.16-2.513.006-1.103-.694-1.904-1.89-2.07v-.062c.942-.235 1.561-.943 1.549-1.935.012-1.288-1.072-2.372-2.794-2.372-1.63 0-2.95.967-2.987 2.384h1.283c.024-.789.811-1.275 1.691-1.275.923 0 1.524.499 1.524 1.337s-.694 1.386-1.691 1.386h-.75v1.085h.75c1.251.006 1.97.634 1.97 1.479 0 .844-.768 1.417-1.828 1.417-.979 0-1.74-.487-1.79-1.251h-1.357z" fill="#878787"/>
    <path d="M29.586 4.965H19.241c-.57 0-1.034.695-1.034 1.552V8.38c0 .857.463 1.552 1.034 1.552h10.345c.572 0 1.035-.695 1.035-1.552V6.517c0-.857-.463-1.552-1.035-1.552z" fill="#BEBEBE"/>
</svg>
