<svg width="58" height="58" viewBox="0 0 58 58" fill="none" xmlns="http://www.w3.org/2000/svg">
    <g clip-path="url(#2swnusxysa)">
        <path d="M6 6v46M52 52H6" stroke="#BEBEBE" stroke-width="2" stroke-miterlimit="10" stroke-linecap="round"/>
        <path d="M13 47h34.98c1.02 0 1.85-.77 1.98-1.75-.06-2.89-.17 1.06-.09-5.64L40.01 42l-11.52-3.16L20.45 44h-7.44c-.93 0-1.71.64-1.93 1.5.22.86 1 1.5 1.93 1.5H13z" fill="#4A4A4A"/>
        <path d="m19.85 42 7.55-4.84.75-.48.86.24 11.02 3.02 9.36-2.27.5-.12c-.04-3.74-.08-7.74-.04-12.04v-.89L38.52 34.2c-.19.29-.51.45-.84.45-.18 0-.35-.05-.52-.14l-7.32-3.99a.96.96 0 0 0-.51-.14c-.34 0-.66.17-.85.48l-7.19 7.68c-.18.3-.5.48-.85.48H13c-1.1 0-2 .9-2 2v1.56c.59-.34 1.27-.56 2-.56h6.85V42z" fill="#4A4A4A"/>
        <path d="m19.98 37 6.94-7.42c.56-.77 1.45-1.22 2.41-1.22.53 0 1.04.14 1.5.4l6.69 3.65 11.05-9.34 1.27-1.08c-.01-4.59-.01-8.76.02-11.4.01-1-1.29-1.4-1.83-.56-2.59 4.01-7 12.82-8.51 15.14-.29.45-.89.59-1.35.31l-8.32-4.99c-.47-.28-1.08-.13-1.37.33L21.29 32.5c-.18.3-.5.48-.85.48H13c-1.1 0-2 .9-2 2v2.56c.59-.34 1.27-.56 2-.56h6.98V37zM49.89 37.54h.03c-.02-3.61-.05-7.87-.07-12.04-.04 4.3 0 8.3.04 12.04z" fill="#4A4A4A"/>
    </g>
    <defs>
        <clipPath id="2swnusxysa">
            <path fill="#fff" d="M0 0h58v58H0z"/>
        </clipPath>
    </defs>
</svg>
