<svg width="48" height="48" viewBox="0 0 48 48" fill="none" xmlns="http://www.w3.org/2000/svg">
    <g clip-path="url(#xyh5tvsb3a)">
        <path fill-rule="evenodd" clip-rule="evenodd" d="M4.138 43.035c0-.457.37-.828.827-.828h38.07a.828.828 0 0 1 0 1.655H4.964a.828.828 0 0 1-.827-.827z" fill="#BEBEBE"/>
        <path fill-rule="evenodd" clip-rule="evenodd" d="M41.816 15.969c.642.241.966.957.725 1.599l-5.623 14.964c-.414 1.185-1.34 2.019-2.483 2.211-1.154.195-2.308-.3-3.074-1.312a1.24 1.24 0 0 1-.225-.49l-1.408-6.606c-.204-.188-.395-.209-.513-.191-.147.022-.382.135-.535.518l-2.08 7.231c-.008.03-.018.059-.029.088-.489 1.322-1.598 2.15-2.874 2.18-1.26.029-2.416-.725-3.038-1.975a1.246 1.246 0 0 1-.062-.147l-1.852-5.352c-.247-.45-.559-.541-.726-.537-.159.004-.431.094-.603.56l-1.527 4.113-.001.004c-.38 1.014-1.148 1.777-2.128 2.061-.99.287-2.05.04-2.882-.68-.213-.184-.401-.205-.527-.181-.122.022-.292.107-.435.35l-2.165 4.76a1.241 1.241 0 1 1-2.26-1.028l2.187-4.808c.012-.027.026-.054.04-.08.473-.866 1.255-1.462 2.175-1.635.92-.173 1.864.1 2.609.743l.002.002c.237.206.435.21.565.173.14-.041.355-.18.493-.546v-.002l1.525-4.108c.49-1.323 1.599-2.15 2.875-2.18 1.26-.03 2.415.725 3.038 1.975.023.047.044.096.061.147l1.853 5.352c.246.45.558.54.726.537.154-.004.416-.09.589-.523l2.08-7.232c.008-.03.017-.058.028-.087.432-1.169 1.37-1.976 2.507-2.148 1.141-.172 2.275.327 3.025 1.33.108.144.183.31.22.485l1.408 6.601c.21.192.406.21.525.19.152-.026.405-.153.554-.588l.012-.034 5.63-14.979a1.241 1.241 0 0 1 1.598-.725z" fill="#878787"/>
        <path fill-rule="evenodd" clip-rule="evenodd" d="M18.583 21.36h-1.42V13.77h-.053l-2.213 1.399V13.87l2.304-1.456h1.382v8.946zm1.587-.967 2.985-3.085c.944-1.005 1.413-1.567 1.413-2.34 0-.875-.688-1.43-1.596-1.43-.956 0-1.565.624-1.572 1.56h-1.236c-.012-1.617 1.188-2.684 2.832-2.684 1.645 0 2.809 1.08 2.82 2.51-.011.986-.462 1.773-2.082 3.402l-1.749 1.817v.075h3.972v1.149h-5.793v-.974h.006zm5.786-1.417v-.006.006zm0 0c.06 1.426 1.347 2.39 3.16 2.39 1.815 0 3.16-1.065 3.16-2.513.006-1.103-.694-1.904-1.89-2.07v-.062c.942-.235 1.562-.943 1.55-1.935.012-1.288-1.073-2.372-2.795-2.372-1.63 0-2.95.967-2.987 2.384h1.283c.025-.789.812-1.275 1.691-1.275.924 0 1.525.499 1.525 1.337s-.694 1.386-1.692 1.386h-.75v1.085h.75c1.252.006 1.97.634 1.97 1.479 0 .844-.768 1.417-1.827 1.417-.98 0-1.741-.487-1.791-1.251h-1.357z" fill="#878787"/>
        <path d="M28.759 4.965H18.414c-.572 0-1.035.695-1.035 1.552V8.38c0 .857.463 1.552 1.035 1.552h10.345c.571 0 1.034-.695 1.034-1.552V6.517c0-.857-.463-1.552-1.034-1.552z" fill="#BEBEBE"/>
    </g>
    <defs>
        <clipPath id="xyh5tvsb3a">
            <path fill="#fff" d="M0 0h48v48H0z"/>
        </clipPath>
    </defs>
</svg>
