<svg width="105" height="20" viewBox="0 0 105 20" fill="none" xmlns="http://www.w3.org/2000/svg">
    <g clip-path="url(#1rc7vj79ea)">
        <path d="M.12 11.8a1.423 1.423 0 0 1-.12-.541c0-.506.446-.883 1.05-.883.603 0 .929.283 1.098.883L4.15 17.47h.084l2.172-6.2c.193-.624.543-.895 1.074-.895.58 0 1.014.365 1.014.871 0 .153-.037.318-.145.553l-2.365 5.765c-.567 1.376-.893 1.682-1.762 1.682-.929 0-1.267-.318-1.798-1.682L.121 11.8zM12.392 19.306c-1.943 0-3.258-1.07-3.258-2.659 0-1.588 1.34-2.6 3.56-2.611h2.485v-.777c0-.988-.688-1.494-1.955-1.494-.796 0-1.34.247-1.918.765-.254.211-.495.294-.857.294-.459 0-.76-.27-.76-.67 0-.507.398-1 1.23-1.4.604-.295 1.4-.448 2.438-.448 2.522 0 3.922 1.059 3.922 2.965v5.012c0 .623-.363.988-1.014.988-.58 0-.941-.306-.99-.824v-.388h-.108c-.543.812-1.545 1.259-2.775 1.259v-.012zm.651-1.4c1.219 0 2.148-.73 2.148-1.67v-.942h-2.196c-1.11 0-1.75.46-1.75 1.26s.724 1.352 1.798 1.352zM26.799 19.26c-.664 0-1.062-.377-1.062-1.024v-4.46c0-1.235-.7-1.905-1.954-1.905-1.448 0-2.353.918-2.353 2.435v3.941c0 .647-.386 1.024-1.05 1.024s-1.05-.377-1.05-1.024v-6.894c0-.623.398-.988 1.038-.988s1.001.341 1.013.941v.706h.109c.41-1.07 1.508-1.706 2.992-1.706 2.136 0 3.355 1.083 3.355 2.977v4.976c0 .647-.386 1.012-1.05 1.012l.012-.012zM31.035 7.2c.723 0 1.254.435 1.254 1.024 0 .588-.53 1.047-1.255 1.047-.723 0-1.23-.436-1.23-1.047 0-.612.543-1.024 1.23-1.024zm0 12.059c-.628 0-1.05-.341-1.05-1.024v-6.87c0-.683.422-1.024 1.05-1.024.627 0 1.05.353 1.05 1.024v6.87c0 .683-.411 1.024-1.05 1.024zM34.425 18.247v-10c0-.682.41-1.023 1.038-1.023.627 0 1.061.34 1.061 1.023v10c0 .683-.422 1.024-1.062 1.024-.639 0-1.037-.341-1.037-1.024zM38.83 18.247v-10c0-.682.41-1.023 1.037-1.023s1.062.34 1.062 1.023v10c0 .683-.423 1.024-1.062 1.024-.64 0-1.038-.341-1.038-1.024zM45.876 19.306c-1.943 0-3.258-1.07-3.258-2.659 0-1.588 1.34-2.6 3.56-2.611h2.485v-.777c0-.988-.687-1.494-1.954-1.494-.797 0-1.34.247-1.919.765-.253.211-.495.294-.857.294-.458 0-.76-.27-.76-.67 0-.507.398-1 1.231-1.4.603-.295 1.4-.448 2.437-.448 2.522 0 3.922 1.059 3.922 2.965v5.012c0 .623-.362.988-1.014.988-.579 0-.94-.306-.99-.824v-.388h-.108c-.543.812-1.544 1.259-2.775 1.259v-.012zm.652-1.4c1.218 0 2.147-.73 2.147-1.67v-.942H46.48c-1.11 0-1.75.46-1.75 1.26s.725 1.352 1.799 1.352z" fill="#043F84"/>
        <path d="M80.76 14.2c0-2.329 1.76-3.929 4.331-3.929 2.57 0 4.199 1.553 4.199 3.706 0 .965-.266 1.27-1.098 1.27h-5.321v.412c0 1.353.965 2.212 2.534 2.212.796 0 1.4-.2 1.87-.576.495-.365.64-.46.965-.46.459 0 .76.295.76.718 0 .318-.229.67-.615.941-.64.542-1.81.86-3.125.86-2.812 0-4.55-1.471-4.55-3.906v-1.236l.05-.012zm6.515-.235v-.023c0-1.33-.845-2.189-2.148-2.189-1.303 0-2.232.883-2.232 2.189v.023h4.38zM91.715 11.953h-.603c-.58 0-.93-.282-.93-.741s.338-.741.93-.741h.64V9.188c0-.623.361-.988 1.013-.988.651 0 1.025.365 1.025.988v1.283h1.147c.579 0 .917.27.917.741 0 .47-.338.741-.917.741h-1.135v4.765c0 .859.242 1.13 1.074 1.13.266 0 .447-.024.652-.024.398 0 .676.235.676.6 0 .282-.145.517-.459.682-.314.165-.76.235-1.375.235-1.883 0-2.667-.682-2.667-2.482v-4.894l.012-.012zM100.102 19.306c-1.943 0-3.258-1.07-3.258-2.659 0-1.588 1.34-2.6 3.559-2.611h2.486v-.777c0-.988-.688-1.494-1.955-1.494-.796 0-1.34.247-1.918.765-.254.211-.495.294-.857.294-.459 0-.76-.27-.76-.67 0-.507.398-1 1.23-1.4.604-.295 1.4-.448 2.438-.448 2.522 0 3.921 1.059 3.921 2.965v5.012c0 .623-.362.988-1.013.988-.579 0-.941-.306-.99-.824v-.388h-.108c-.543.812-1.545 1.259-2.775 1.259v-.012zm.651-1.4c1.219 0 2.148-.73 2.148-1.67v-.942h-2.196c-1.11 0-1.75.46-1.75 1.26s.724 1.352 1.798 1.352z" fill="#0086D1"/>
        <path d="M55.733 20c-.144 0-.29-.012-.422-.047-.965-.235-1.568-1.188-1.327-2.13l2.136-8.588c.64-2.176 2.244-3.612 4.187-3.823 1.834-.2 3.583.764 4.573 2.505.277.483.64.742 1.001.706.35-.035.82-.353 1.074-1.164l1.243-3.824C68.958 1.282 70.84-.14 73.06 0c2.256.153 4.066 1.941 4.512 4.459l1.678 13.564c.12.965-.592 1.847-1.581 1.965-.99.118-1.895-.576-2.015-1.541L73.99 4.977c-.17-.93-.712-1.412-1.183-1.448-.458-.047-.929.412-1.17 1.165l-1.243 3.823c-.664 2.036-2.257 3.424-4.163 3.612-1.822.177-3.547-.788-4.525-2.506-.277-.494-.651-.753-1.001-.706-.459.048-.881.53-1.086 1.224l-2.112 8.518a1.806 1.806 0 0 1-1.761 1.353L55.733 20z" fill="url(#rau3h3vkfb)"/>
    </g>
    <defs>
        <linearGradient id="rau3h3vkfb" x1="59.8" y1="7.176" x2="81.224" y2="20.384" gradientUnits="userSpaceOnUse">
            <stop stop-color="#353A9B"/>
            <stop offset=".46" stop-color="#408CDA"/>
            <stop offset=".67" stop-color="#44A6EE"/>
            <stop offset=".85" stop-color="#46B6FA"/>
            <stop offset="1" stop-color="#47BCFF"/>
        </linearGradient>
        <clipPath id="1rc7vj79ea">
            <path fill="#fff" d="M0 0h105v20H0z"/>
        </clipPath>
    </defs>
</svg>
