<?xml version="1.0" encoding="utf-8"?>
<!-- Generator: Adobe Illustrator 19.0.0, SVG Export Plug-In . SVG Version: 6.00 Build 0)  -->
<svg version="1.1" id="Layer_1" xmlns="http://www.w3.org/2000/svg" xmlns:xlink="http://www.w3.org/1999/xlink" x="0px" y="0px"
	 viewBox="-124 126 50 50" style="enable-background:new -124 126 50 50;" xml:space="preserve">
<style type="text/css">
	.st0{fill:url(#SVGID_1_);}
	.st1{fill:url(#SVGID_2_);}
	.st2{fill:url(#SVGID_3_);}
</style>
<g transform="matrix(.569 0 0 .569 199.451 -82.735)">
	
		<linearGradient id="SVGID_1_" gradientUnits="userSpaceOnUse" x1="-27202.7539" y1="29714.7734" x2="-27173.1367" y2="29732.2754" gradientTransform="matrix(6.754030e-02 0 0 -6.754030e-02 1287.1091 2451.7942)">
		<stop  offset="0" style="stop-color:#909CA9"/>
		<stop  offset="1" style="stop-color:#EDEDEE"/>
	</linearGradient>
	<path class="st0" d="M-514.2,408l-17.1,5.6l-14.8,6.6l-4.2,1.1c-1.1,1.1-2.2,2-3.4,3.1c-1.4,1.1-2.5,2.2-3.5,2.9
		c-1.1,0.8-2.6,2.3-3.4,3.4c-1.2,1.5-2.2,3.1-2.5,4.2c-0.8,2.2-0.3,4.3,1.1,6.3c1.7,2.6,5.2,5.2,9.4,6.9c2,0.9,5.6,2.2,8.2,2.8
		c4.3,1.1,12.8,2.3,17.6,2.5h2.3c0.2,0,0.8-1.4,1.7-3.2c2.9-5.9,4.9-11.3,6-16.1c0.6-2.8,1.2-6.6,1.5-11.1c0.2-1.2,0.2-5.4,0-6.9
		c-0.2-2.3-0.3-4.2-0.6-6v-0.5c0,0,0.2-0.2,2.3-0.8L-514.2,408L-514.2,408z M-518.1,410.3c0.2,0,0.6,4,0.6,6.5v0.9
		c-0.2,0-2.2-1.2-3.7-2.2c-1.2-0.8-3.7-2.5-4.2-2.8c-0.2-0.2-0.2-0.2,0.9-0.5C-522.6,411.7-518.2,410.3-518.1,410.3L-518.1,410.3z
		 M-526.9,413.1c0.2,0,0.5,0.2,1.1,0.6c2.6,1.7,6.3,3.7,7.9,4.3c0.5,0.2,0.5,0.2-0.6,0.9c-2.3,1.5-5.2,3.2-9,4.8
		c-0.6,0.3-1.2,0.5-1.2,0.5s0-0.3,0.2-0.8c0.9-3.2,1.4-6.5,1.4-9.1C-527,413.1-527,413.1-526.9,413.1L-526.9,413.1z M-528.6,413.9
		c0.2,0.2,0,2.9-0.2,3.7c-0.3,1.9-0.6,3.7-1.2,5.6l-0.3,0.9c0,0-1.9-1.7-2.5-2.3c-1.1-1.2-1.9-2.3-2.3-3.4c-0.3-0.6-0.8-1.7-0.8-1.7
		C-535.5,416.3-528.7,413.7-528.6,413.9L-528.6,413.9z M-537.1,417.1c0,0,0.2,0.3,0.3,0.5c0.5,1.1,1.4,2.8,2.2,3.9
		c0.9,1.2,2,2.5,2.9,3.2c0.3,0.3,0.6,0.5,0.6,0.6c0.2,0.2,0.2,0-2,0.9c-2.5,0.9-5.1,1.9-8.2,2.8c-0.8,0.3-1.4,0.5-2.2,0.8
		c-0.2,0-0.2,0,0.3-0.6c1.5-2.3,3.9-6.9,5.1-10.3c0.2-0.6,0.5-1.1,0.5-1.2c0-0.2,0.2-0.3,0.3-0.3
		C-537.2,417.1-537.1,417.1-537.1,417.1L-537.1,417.1z M-539.7,418.2c0,0-0.6,1.4-1.2,2.6c-1.2,2.5-2.6,4.8-4.5,7.7
		c-0.3,0.5-0.6,0.9-0.6,1.1c0,0.2-0.2,0-0.3-0.3c-0.5-0.9-0.8-2-0.9-2.9c-0.2-1.1-0.2-2.8,0-3.9c0.2-0.8,0.2-0.8,0.6-0.9
		C-545.1,420.7-539.7,418.2-539.7,418.2z M-517.5,419.1v0.6c0,2.9-0.3,6.8-0.8,9.7c-0.2,0.5-0.2,0.9-0.2,0.9s-0.3-0.2-0.8-0.3
		c-2-0.6-4-1.5-6-2.5c-1.2-0.6-3.1-1.9-3.1-1.9l1.2-0.6c2.5-1.4,4.9-2.8,7.1-4.2c0.8-0.5,2-1.4,2.2-1.5L-517.5,419.1L-517.5,419.1z
		 M-549.4,423v0.6c0,0.3-0.2,0.9-0.2,1.4c-0.2,1.9,0.2,3.2,1.1,5.2c0.3,0.5,0.5,0.9,0.5,0.9c-0.2,0.2-8.6,2.6-11.3,3.4
		c-0.8,0.2-1.5,0.5-1.5,0.5c-0.2,0-0.2,0,0-0.2c0.3-1.9,1.7-4.3,3.7-6.5c1.4-1.4,2.5-2.2,4.3-3.2C-551.6,424.1-549.6,423-549.4,423
		L-549.4,423z M-529.3,426.5c0,0,0.3,0.2,0.8,0.3c2.8,1.5,6.6,3.1,9.9,3.9h0.3l-0.5,0.3c-1.7,0.9-7.4,3.2-13.1,5.4
		c-0.8,0.3-1.7,0.6-1.9,0.6c-0.2,0-0.3,0.2-0.3,0.2s0.3-0.5,0.5-1.1c1.5-3.1,3.2-6.6,4-9.3C-529.3,426.8-529.3,426.5-529.3,426.5z
		 M-531.4,427.1c0,0-0.2,0.3-0.2,0.6c-1.1,2.8-2.6,5.7-4.5,9.1c-0.5,0.9-0.9,1.5-0.9,1.5s-0.5-0.3-0.9-0.5c-2.8-1.7-5.1-3.7-6.8-5.7
		l-0.3-0.3l1.2-0.3c4.2-1.1,7.7-2.3,11.3-3.9C-531.8,427.5-531.4,427.1-531.4,427.1z M-518.5,431.6c0,0.3-0.6,2.9-1.2,4.9
		c-0.5,1.5-0.8,2.9-1.5,5.1l-0.6,1.9h-0.2c-3.9-0.8-7.3-1.7-10.5-2.9c-0.9-0.3-2.2-0.9-2.3-1.1c0,0,0.8-0.5,1.7-0.8
		c5.9-2.6,12-5.6,14-6.8L-518.5,431.6L-518.5,431.6z M-548,432.7c0,0-1.5,2.3-3.9,5.6c-0.8,1.1-1.7,2.5-2,2.9
		c-0.3,0.5-0.9,1.2-1.2,1.7l-0.6,0.8l-0.6-0.5l-2.5-2.5c-1.1-1.4-1.9-2.8-2.2-4.2c-0.2-0.6-0.2-0.9,0-0.9s3.7-0.9,6.9-1.5
		c1.9-0.5,3.9-0.9,4.6-1.1C-548.6,432.9-548,432.7-548,432.7z M-546.3,433.3l0.5,0.5c1.9,2,3.7,3.5,6,4.9c0.5,0.3,0.8,0.5,0.8,0.5
		c-0.2,0-8,2.9-11.6,4.2c-2,0.8-3.7,1.2-3.7,1.2s-0.2-0.2-0.3-0.2l-0.3-0.2l0.3-0.6c1.2-1.7,2.8-3.7,6-7.7L-546.3,433.3z
		 M-536.1,440.7c0,0,0.6,0.2,1.2,0.5c1.7,0.6,3.1,1.1,4.8,1.5c2.2,0.6,5.4,1.1,7.3,1.2c0.3,0,0.5,0,0.5,0.2c-0.2,0-2,0.6-3.4,1.1
		c-2.2,0.8-9,2.6-14.5,4.3c-1.1,0.3-1.9,0.6-2,0.6s-0.6-0.2-0.6-0.2l0.6-0.9c1.9-2.2,3.7-4.6,5.2-7.1
		C-536.4,441.2-536.1,440.7-536.1,440.7L-536.1,440.7z M-538.3,440.7c0,0-0.9,1.5-2.5,4c-0.6,1.1-1.4,2.3-1.7,2.8s-0.6,1.1-0.9,1.4
		l-0.3,0.6h-0.2c-0.5-0.2-3.7-1.2-4.6-1.7c-1.1-0.5-2.2-0.9-3.1-1.4c-1.1-0.6-2.3-1.4-2.2-1.4c0,0,1.9-0.5,3.9-1.1
		c5.7-1.5,8.8-2.5,10.8-3.1C-538.8,440.9-538.3,440.7-538.3,440.7L-538.3,440.7z M-522.2,444.6c0,0.2-2,6-2.8,7.7
		c-0.2,0.5-0.3,0.5-0.3,0.5c-0.2,0-3.2-0.5-5.1-0.8c-3.2-0.5-8.6-1.4-10-1.7h-0.3l1.9-0.5c4.2-0.9,6.2-1.4,8.2-2
		c2.5-0.8,5.1-1.7,7.6-2.9C-522.7,444.7-522.4,444.6-522.2,444.6z"/>
	
		<linearGradient id="SVGID_2_" gradientUnits="userSpaceOnUse" x1="-27191.3828" y1="30731.0547" x2="-27167.5508" y2="30731.0547" gradientTransform="matrix(6.754030e-02 0 0 -6.754030e-02 1287.1091 2451.7942)">
		<stop  offset="0" style="stop-color:#939FAB"/>
		<stop  offset="1" style="stop-color:#DCDEE1"/>
	</linearGradient>
	<path class="st1" d="M-531.8,368.2c-0.3,0-4.9,1.5-7.9,2.8c-4,1.7-7.1,3.2-9,4.5c-0.8,0.5-1.5,1.4-1.7,1.7c0,0.2-0.2,0.3-0.2,0.5
		l1.7,1.7l4.2,1.4l9.9,1.7l11.3,1.9l0.2-0.9h-0.2l-1.5-0.3l-0.3-0.5c-1.5-2.6-3.2-6-4.2-8.3c-0.8-1.7-1.5-3.7-1.9-5.2
		C-531.7,368.2-531.7,368.2-531.8,368.2L-531.8,368.2z M-532.1,368.8c0,0,0.2,0.3,0.2,0.8c0.2,1.9,0.6,3.5,1.2,5.4
		c0.5,1.4,0.5,1.4-0.2,1.2c-1.4-0.3-7.3-1.4-11.4-2c-0.6-0.2-1.2-0.2-1.2-0.2s3.1-1.7,4.5-2.3C-537.2,371-532.4,368.8-532.1,368.8z
		 M-544.5,374.5l0.5,0.2c2.8,0.9,9.6,2.3,13.4,2.6c0.5,0,0.8,0.2,0.8,0.2s-0.3,0.2-0.8,0.5c-1.9,0.9-3.9,2-5.2,2.9
		c-0.5,0.3-0.8,0.5-0.8,0.5s-0.3,0-0.6-0.2l-0.5-0.2l-1.2-1.2c-2.3-2.2-4-3.9-4.8-4.6L-544.5,374.5z M-545.1,375l1.9,2.3
		c0.9,1.2,2,2.5,2.2,2.8c0.2,0.3,0.5,0.5,0.5,0.5s-2.6-0.5-4-0.8c-1.4-0.3-2-0.5-2.8-0.8l-0.8-0.3v-0.2c0-0.9,1.1-2.2,2.9-3.5
		H-545.1L-545.1,375z M-529.5,378.1c0,0,0.2,0.2,0.3,0.5c0.5,0.9,1.9,3.5,2.2,4c0.2,0.2,0.3,0.2-1.5-0.2c-4.3-0.8-5.9-0.9-5.9-0.9
		s0.2-0.2,0.3-0.2c1.4-0.8,2.8-1.7,4-2.8C-530,378.4-529.7,378.2-529.5,378.1C-529.7,378.1-529.7,378.1-529.5,378.1L-529.5,378.1z"
		/>
	
		<radialGradient id="SVGID_3_" cx="-18625.791" cy="18585.2246" r="31.6402" gradientTransform="matrix(-6.486600e-02 -9.746971e-03 -1.971016e-02 0.1297 -1367.4716 -2194.3774)" gradientUnits="userSpaceOnUse">
		<stop  offset="0" style="stop-color:#EE352C"/>
		<stop  offset="1" style="stop-color:#A91D22"/>
	</radialGradient>
	<path class="st2" d="M-550.3,377c0,0-0.3,0.5,0,1.1c0.2,0.5,0.6,0.9,1.2,1.4c0,0,5.7,5.6,6.5,6.5c3.2,3.7,4.6,7.3,4.6,12.3
		c0.2,3.2-0.5,6-2,9.3c-2.6,5.9-8.3,12.3-17.1,19.4l1.2-0.5c0.8-0.6,2-1.2,4.6-2.8c6-3.4,13-6.3,21.3-9.6c12-4.5,31.9-9.9,43.2-11.6
		l1.2-0.2l-0.2-0.3c-1.1-1.5-1.7-2.6-2.6-3.7c-2.5-3.1-5.6-5.6-9.1-7.6c-5.1-2.8-11.6-5.1-19.9-6.6c-1.5-0.3-4.9-0.9-7.7-1.4
		c-5.9-0.9-9.7-1.5-13.9-2.3c-1.5-0.3-3.7-0.6-5.2-0.9c-0.8-0.2-2.3-0.5-3.4-0.9C-548.8,378.5-550,378.2-550.3,377L-550.3,377z
		 M-547.1,380.2c0,0,0.2,0,0.5,0.2c0.5,0.2,1.1,0.3,1.9,0.6c0.6,0.2,1.1,0.3,1.7,0.5c0.8,0.2,1.4,0.3,1.4,0.3
		c0.2,0.2,1.4,4.3,1.9,5.9c0.2,0.6,0.3,1.1,0.3,1.1s-0.2-0.2-0.3-0.5c-1.5-2.6-3.9-5.4-6.6-7.6
		C-546.8,380.5-547.1,380.2-547.1,380.2z M-540.6,382.1c0,0,0.3,0,0.8,0.2c2.2,0.5,6.2,1.2,8.6,1.7c0.5,0,0.8,0.2,0.8,0.2
		s-0.2,0.2-0.3,0.2c-0.5,0.2-2.2,1.2-2.8,1.7c-1.4,0.9-2.8,2-3.7,2.9c-0.3,0.3-0.8,0.6-0.8,0.6s-0.2-0.2-0.2-0.5
		c-0.5-1.9-1.4-4.5-2.3-6.3C-540.6,382.4-540.6,382.1-540.6,382.1L-540.6,382.1z M-529.5,384.2c0.2,0,0.2,0.5,0.5,1.4
		c0.5,1.9,0.8,4,0.6,5.9c0,0.6,0,1.1-0.2,1.1v0.2l-0.6-0.2c-1.4-0.5-3.7-1.1-5.6-1.7c-1.1-0.3-2-0.6-2-0.6c0-0.2,1.5-1.7,2.3-2.3
		C-533.2,386.9-529.7,384.1-529.5,384.2L-529.5,384.2z M-528.6,384.2c0,0,5.4,0.9,7.7,1.4c1.9,0.3,4.5,0.9,4.6,0.9s-0.2,0.2-1.1,0.6
		c-3.4,1.5-6,2.9-8.5,4.6c-0.6,0.5-1.2,0.8-1.2,0.8v-0.8c0-2.5-0.5-4.9-1.4-7.1C-528.6,384.5-528.6,384.2-528.6,384.2L-528.6,384.2z
		 M-514.8,387c0,0-0.2,1.1-0.3,1.7c-0.5,1.9-1.7,4.8-3.2,7.4c-0.3,0.5-0.5,0.9-0.6,0.9c0,0-0.3-0.2-0.8-0.5
		c-1.5-0.9-3.2-1.7-5.1-2.5c-0.5-0.2-0.9-0.5-0.9-0.5c-0.2-0.2,4-2.8,6.3-4.2C-517.8,388.6-514.8,387-514.8,387z M-513.9,387.2
		c0.2,0,2.5,0.6,3.7,1.1c3.1,0.9,6.5,2.2,8.8,3.2l0.9,0.5l-0.6,0.2c-5.6,1.2-10.3,2.8-15,4.6c-0.3,0.2-0.8,0.3-0.8,0.3l0.3-0.6
		c1.4-2.9,2.3-6,2.5-8.6C-513.9,387.3-513.9,387.2-513.9,387.2L-513.9,387.2z M-537.2,392.6c0,0,1.9,0.5,2.8,0.6
		c1.5,0.5,4.6,1.4,4.6,1.5c0,0-0.3,0.3-0.8,0.6c-1.7,1.4-3.4,2.9-5.2,4.8l-1.1,1.1v-0.2c0.3-2.2,0.3-4.9-0.2-7.7
		C-537.2,392.9-537.2,392.6-537.2,392.6L-537.2,392.6z M-499.6,392.6c0,0-0.8,1.4-1.4,2.2c-0.8,1.1-1.9,2.6-4.5,5.9
		c-1.4,1.7-2.9,3.7-3.4,4.3l-0.9,1.2c0,0-0.2-0.3-0.3-0.5c-1.4-2.2-3.2-4-5.2-5.7c-0.5-0.3-0.8-0.6-0.9-0.8
		c-0.2-0.2-0.3-0.2-0.3-0.2s2.2-0.9,3.9-1.7c2.9-1.2,6.9-2.6,9.9-3.5C-501.3,393-499.6,392.6-499.6,392.6L-499.6,392.6z
		 M-498.5,392.9c0,0,0.3,0.2,0.8,0.3c3.1,1.9,6.2,4.2,8.6,6.5c0.6,0.6,2.3,2.5,2.3,2.5s-0.6,0-1.2,0.2c-5.4,0.5-12.3,1.5-19.1,3.2
		c-0.5,0.2-0.9,0.2-0.9,0.2l1.1-1.1c3.9-3.9,5.7-6.2,7.9-10.5C-498.8,393.3-498.6,392.9-498.5,392.9
		C-498.6,392.9-498.6,392.9-498.5,392.9L-498.5,392.9z M-527.3,395.8c0.2,0,1.9,0.8,3.1,1.4c1.2,0.6,2.9,1.5,2.9,1.5
		s-0.6,0.3-1.4,0.8c-2.5,1.2-4.5,2.3-6.6,3.7c-0.6,0.3-1.1,0.6-1.1,0.6l0.3-0.6c1.2-2.2,2.2-4.6,2.6-7.1
		C-527.3,396-527.3,395.8-527.3,395.8L-527.3,395.8z M-529,396.1c0,0-0.5,1.7-0.6,2.5c-0.5,1.7-1.4,3.7-2.3,5.2l-0.6,1.2l-0.3,0.5
		l-0.8-0.8c-0.8-0.8-1.5-1.4-2.5-1.7l-0.6-0.3c0-0.2,2.2-2.2,3.9-3.5C-531.7,398.1-529,396.1-529,396.1L-529,396.1z M-518.7,400.3
		l0.6,0.5c1.4,0.9,3.1,2.2,4.5,3.2c0.8,0.6,2.2,1.9,2.5,2.2l0.2,0.2l-1.1,0.3c-5.9,1.7-10.5,3.1-15.9,5.1c-0.6,0.2-1.1,0.5-1.1,0.5
		c-0.2,0-0.2,0,1.2-1.2c3.4-3.1,6.5-6.6,8.6-10L-518.7,400.3L-518.7,400.3z M-521.5,400.9c0,0-1.7,2.5-2.8,3.9
		c-1.2,1.7-3.5,4.5-5.1,6.3c-0.6,0.8-1.2,1.4-1.2,1.4V412c0-1.5-0.5-3.2-1.1-4.6c-0.3-0.6-0.3-0.8-0.3-0.8c0.3-0.2,4-2.3,6.3-3.7
		C-523.9,402.3-521.5,400.9-521.5,400.9z M-537.8,404.9l0.6,0.3c0.8,0.5,1.5,0.9,2.2,1.5c0,0-0.3,0.3-0.8,0.6
		c-1.2,0.9-3.1,2.3-4.2,3.1c-1.1,0.9-1.2,0.9-1.1,0.8c0.9-1.2,1.2-2,1.7-2.9c0.5-0.8,0.8-1.9,1.1-2.6
		C-538,405.2-537.8,404.9-537.8,404.9z M-533.4,408.5c0,0,0.2,0.2,0.5,0.6c0.8,1.1,1.2,2.6,1.4,3.7v0.3l-1.7,0.6
		c-3.2,1.2-6,2.5-8,3.4l-2.2,1.1c-0.6,0.3-1.1,0.6-1.1,0.6l0.9-0.6c3.9-2.8,7.3-5.9,9.7-9C-533.7,408.8-533.5,408.5-533.4,408.5
		L-533.4,408.5z M-535.4,408.9c0,0-1.4,1.7-2.5,2.8c-2.5,2.5-4.9,4.5-8,6.5c-0.5,0.3-0.8,0.5-0.8,0.5c-0.2,0,0-0.2,1.4-1.5
		c0.9-0.9,1.5-1.7,2.2-2.6c0.5-0.6,0.6-0.8,1.2-1.2C-539.8,411.9-535.5,408.8-535.4,408.9L-535.4,408.9z"/>
</g>
</svg>
