<svg width="25" height="24" viewBox="0 0 25 24" fill="none" xmlns="http://www.w3.org/2000/svg">
    <path d="M12.49 1.788C6.696 1.786 2 6.478 2 12.27c0 4.58 2.937 8.472 7.027 9.902.55.138.466-.253.466-.52v-1.817c-3.18.373-3.31-1.732-3.523-2.083-.43-.736-1.45-.924-1.146-1.275.724-.373 1.463.093 2.318 1.357.619.916 1.826.761 2.438.609.133-.55.42-1.043.813-1.425-3.295-.59-4.669-2.602-4.669-4.992 0-1.16.382-2.227 1.132-3.087-.478-1.418.045-2.632.115-2.812 1.362-.122 2.777.975 2.888 1.061.773-.208 1.657-.318 2.646-.318.993 0 1.88.114 2.66.325.265-.201 1.577-1.143 2.843-1.029.068.18.579 1.367.129 2.766.76.863 1.146 1.938 1.146 3.1 0 2.396-1.383 4.41-4.688 4.99a2.987 2.987 0 0 1 .893 2.134v2.636c.019.211 0 .42.352.42 4.15-1.4 7.139-5.32 7.139-9.94 0-5.794-4.697-10.484-10.488-10.484z" fill="#fff"/>
</svg>
