<svg width="21" height="16" viewBox="0 0 21 16" fill="none" xmlns="http://www.w3.org/2000/svg">
    <path d="M1.923 15.894c-.114 0-.228-.01-.333-.037C.828 15.67.35 14.919.542 14.176l1.686-6.78C2.733 5.676 4 4.543 5.534 4.375c1.448-.157 2.829.604 3.61 1.98.22.38.505.584.79.556.277-.027.648-.278.849-.92l.98-3.018c.6-1.857 2.087-2.981 3.84-2.87 1.781.121 3.21 1.533 3.562 3.52l1.325 10.71c.095.761-.467 1.458-1.248 1.55-.782.093-1.496-.454-1.591-1.216L16.336 4.033c-.133-.734-.562-1.114-.933-1.142-.362-.037-.734.325-.924.92l-.982 3.018c-.524 1.607-1.781 2.703-3.286 2.851-1.439.14-2.8-.622-3.572-1.978-.22-.39-.515-.595-.791-.557-.362.037-.695.418-.857.966l-1.667 6.724a1.425 1.425 0 0 1-1.391 1.068l-.01-.01z" fill="#fff"/>
</svg>
