<svg width="224" height="146" viewBox="0 0 224 146" fill="none" xmlns="http://www.w3.org/2000/svg">
    <path fill="#fff" stroke="#D3D1D1" d="M.5.5h223v145H.5z"/>
    <rect x="8" y="8" width="46" height="61" rx="4" fill="#F5F6F8"/>
    <g opacity=".5" clip-path="url(#v2zqer6jsa)" stroke-miterlimit="10" stroke-linecap="round">
        <path d="M16.214 24.214v29.572M45.785 53.786H16.214" stroke="#BEBEBE" stroke-width="1.4"/>
        <path d="m20.071 44.786 6.429-8.357M26.5 36.429l7.714 4.5M34.214 40.929 44.5 30" stroke="#4A4A4A" stroke-width="2.4"/>
    </g>
    <rect x="116" y="8" width="46" height="61" rx="4" fill="#F5F6F8"/>
    <g opacity=".5" clip-path="url(#2ns22wc97b)" stroke-miterlimit="10" stroke-linecap="round">
        <path d="M124.214 24.214v29.572M153.785 53.786h-29.571" stroke="#BEBEBE" stroke-width="1.4"/>
        <path d="m128.071 44.786 6.429-8.357M134.5 36.429l7.714 4.5M142.214 40.929 152.5 30" stroke="#4A4A4A" stroke-width="2.4"/>
    </g>
    <rect x="62" y="8" width="46" height="61" rx="4" fill="#F5F6F8"/>
    <g opacity=".5" clip-path="url(#79q1kd4wvc)" stroke-miterlimit="10" stroke-linecap="round">
        <path d="M70.214 24.214v29.572M99.785 53.786H70.214" stroke="#BEBEBE" stroke-width="1.4"/>
        <path d="m74.071 44.786 6.429-8.357M80.5 36.429l7.714 4.5M88.214 40.929 98.5 30" stroke="#4A4A4A" stroke-width="2.4"/>
    </g>
    <rect x="170" y="8" width="46" height="61" rx="4" fill="#F5F6F8"/>
    <g opacity=".5" clip-path="url(#3ma4hadn6d)" stroke-miterlimit="10" stroke-linecap="round">
        <path d="M178.214 24.214v29.572M207.785 53.786h-29.571" stroke="#BEBEBE" stroke-width="1.4"/>
        <path d="m182.071 44.786 6.429-8.357M188.5 36.429l7.714 4.5M196.214 40.929 206.5 30" stroke="#4A4A4A" stroke-width="2.4"/>
    </g>
    <rect x="8" y="77" width="100" height="61" rx="4" fill="#F5F6F8"/>
    <g opacity=".5" clip-path="url(#jvh45tb26e)">
        <path d="M46.827 99.31h22.345c.683 0 1.242.559 1.242 1.242v3.103H45.585v-3.103c0-.683.559-1.242 1.241-1.242z" fill="#4A4A4A"/>
        <path d="M69.793 99H46.207a.62.62 0 0 0-.621.62V117a.62.62 0 0 0 .62.621h23.587a.62.62 0 0 0 .62-.621V99.62a.62.62 0 0 0-.62-.62zM51.793 117v-16.138M58 117v-16.138M64.207 117v-16.138M70.413 107.69H45.587M70.413 112.655H45.587M70.413 112.655H45.587M70.413 112.655H45.587" stroke="#4A4A4A" stroke-width="1.4" stroke-miterlimit="10" stroke-linecap="round"/>
    </g>
    <rect x="116" y="77" width="100" height="61" rx="4" fill="#F5F6F8"/>
    <g opacity=".5" clip-path="url(#95bvramynf)" fill="#4A4A4A">
        <path d="M180.878 107.845h-5.605a9.244 9.244 0 0 0-2.278-5.499 9.256 9.256 0 0 0-6.374-3.154v-5.604c-.205-.007-.41-.019-.621-.019-.211 0-.416.006-.621.019a14.733 14.733 0 0 0-4.45.887 14.885 14.885 0 0 0-5.884 3.91l.875.876 3.079 3.078a9.25 9.25 0 0 0-2.278 5.5h-5.599c-.006.204-.018.409-.018.62 0 .211.006.416.018.621a14.86 14.86 0 0 0 4.798 10.334l.875-.875 3.079-3.078a9.26 9.26 0 0 0 5.499 2.278v5.604c.205.007.41.019.621.019.211 0 .416-.006.621-.019a14.774 14.774 0 0 0 4.357-.856c.391-.137.776-.292 1.154-.466a14.812 14.812 0 0 0 4.829-3.482 14.816 14.816 0 0 0 3.923-9.459c.006-.205.019-.41.019-.621 0-.211-.007-.416-.019-.62v.006zm-8.758-4.624a8.027 8.027 0 0 1 1.918 4.624h-3.743a4.329 4.329 0 0 0-.819-1.974l2.644-2.644v-.006zm-2.644 7.839a4.291 4.291 0 0 0 .819-1.974h3.743a8.044 8.044 0 0 1-1.918 4.624l-2.644-2.644v-.006zm1.769 3.526c-.509.44-1.08.806-1.688 1.111-.367.18-.751.335-1.155.459a8.047 8.047 0 0 1-1.781.347v-3.742c.124-.019.248-.05.366-.075.41-.099.801-.242 1.161-.447.155-.087.304-.186.447-.298l2.644 2.645h.006zm-4.624-14.158a8.034 8.034 0 0 1 4.624 1.918l-2.644 2.644a4.297 4.297 0 0 0-1.974-.82v-3.742h-.006zm-1.242-5.605v4.363a9.483 9.483 0 0 0-2.346.466l-1.638-4.028a13.44 13.44 0 0 1 3.978-.795l.006-.006zm-4.624 7.516a8.09 8.09 0 0 1 2.744-1.545 8.138 8.138 0 0 1 1.88-.373v3.743a4.1 4.1 0 0 0-.471.099c-.41.106-.795.267-1.142.485a4.383 4.383 0 0 0-.367.242l-2.644-2.644v-.007zm-3.96-3.96a13.642 13.642 0 0 1 3.451-2.29l1.639 4.034a9.502 9.502 0 0 0-2.011 1.335l-3.079-3.079zm3.079 4.835 2.644 2.645a4.292 4.292 0 0 0-.819 1.973h-3.743a8.04 8.04 0 0 1 1.918-4.624v.006zm1.825 5.866c.105.732.397 1.409.819 1.974l-2.644 2.644a8.02 8.02 0 0 1-1.918-4.624h3.743v.006zm-5.785 8.584a13.585 13.585 0 0 1-3.563-8.584h4.364a9.25 9.25 0 0 0 2.277 5.499l-3.078 3.079v.006zm9.459-1.167a8.034 8.034 0 0 1-4.624-1.918l2.644-2.644a4.296 4.296 0 0 0 1.974.819v3.743h.006zm1.136-4.984c-.168.031-.341.05-.515.05a3.025 3.025 0 0 1-1.707-.515 3.08 3.08 0 0 1-.875-.876 3.045 3.045 0 0 1-.515-1.706c0-.212.024-.423.062-.621a3 3 0 0 1 .453-1.086c.217-.329.503-.615.825-.838l-.062-.155.112.111a3.07 3.07 0 0 1 2.328-.453 3.116 3.116 0 0 1 2.414 2.415c.043.198.062.409.062.62a3.025 3.025 0 0 1-.515 1.707 3.09 3.09 0 0 1-.875.875 1.332 1.332 0 0 1-.037.019c-.317.205-.671.36-1.056.434-.031.007-.068 0-.105.013l.006.006zm5.146 9.36a13.712 13.712 0 0 1-5.034 1.229v-4.363a8.966 8.966 0 0 0 2.247-.435c.397-.13.776-.292 1.148-.465a9.202 9.202 0 0 0 2.098-1.378l3.078 3.078a13.58 13.58 0 0 1-3.544 2.334h.007zm4.419-3.209-3.079-3.078a9.25 9.25 0 0 0 2.278-5.5h4.364a13.613 13.613 0 0 1-3.563 8.584v-.006z"/>
        <path d="m169.476 111.06 2.644 2.644a8.027 8.027 0 0 0 1.918-4.624h-3.743a4.344 4.344 0 0 1-.819 1.974v.006zM162.524 105.871l-2.644-2.644a8.02 8.02 0 0 0-1.918 4.624h3.743a4.333 4.333 0 0 1 .819-1.974v-.006zM168.594 104.99l2.644-2.644a8.014 8.014 0 0 0-4.624-1.918v3.742a4.341 4.341 0 0 1 1.974.82h.006zM173.001 114.585l3.079 3.079a13.59 13.59 0 0 0 3.562-8.584h-4.363a9.257 9.257 0 0 1-2.278 5.499v.006zM164.182 105.766l.062.155s.031-.031.049-.044l-.111-.111z"/>
    </g>
    <defs>
        <clipPath id="v2zqer6jsa">
            <path fill="#fff" transform="translate(13 21)" d="M0 0h36v36H0z"/>
        </clipPath>
        <clipPath id="2ns22wc97b">
            <path fill="#fff" transform="translate(121 21)" d="M0 0h36v36H0z"/>
        </clipPath>
        <clipPath id="79q1kd4wvc">
            <path fill="#fff" transform="translate(67 21)" d="M0 0h36v36H0z"/>
        </clipPath>
        <clipPath id="3ma4hadn6d">
            <path fill="#fff" transform="translate(175 21)" d="M0 0h36v36H0z"/>
        </clipPath>
        <clipPath id="jvh45tb26e">
            <path fill="#fff" transform="translate(40 90)" d="M0 0h36v36H0z"/>
        </clipPath>
        <clipPath id="95bvramynf">
            <path fill="#fff" transform="translate(148 90)" d="M0 0h36v36H0z"/>
        </clipPath>
    </defs>
</svg>
