<svg width="224" height="146" viewBox="0 0 224 146" fill="none" xmlns="http://www.w3.org/2000/svg">
    <path fill="#fff" stroke="#D3D1D1" d="M.5.5h223v145H.5z"/>
    <rect x="8" y="77" width="46" height="61" rx="4" fill="#F5F6F8"/>
    <g opacity=".5" clip-path="url(#izws7buy6a)">
        <path fill-rule="evenodd" clip-rule="evenodd" d="m30.703 108.49.102.108v-.006l.765.777 8.146 8.31a12.985 12.985 0 0 1-8.146 3.327 8.812 8.812 0 0 1-.949.007l-.185-.007c-5.997-.255-10.945-4.563-12.175-10.254-.08-.368-.142-.737-.188-1.117a13.137 13.137 0 0 1-.107-1.649 13.069 13.069 0 0 1 .669-4.127 13.074 13.074 0 0 1 3.656-5.566 12.984 12.984 0 0 1 8.145-3.327v13.252l.267.272zm.867-13.524v12.351l12.176-2.097c-1.23-5.691-6.179-10-12.176-10.254zm12.363 11.376-.006.001v-.001h.006zm-.006.001c.068.538.108 1.088.108 1.649a13.075 13.075 0 0 1-.67 4.126 13.08 13.08 0 0 1-2.845 4.773l-7.612-7.766-.743-.759 1.377-.238 10.385-1.785z" fill="#4A4A4A"/>
    </g>
    <rect x="170" y="8" width="46" height="61" rx="4" fill="#F5F6F8"/>
    <g opacity=".5" clip-path="url(#hcyg97pwzb)">
        <path fill-rule="evenodd" clip-rule="evenodd" d="m192.703 39.49.102.108v-.005l.765.776 8.146 8.31a12.986 12.986 0 0 1-8.146 3.327 9.35 9.35 0 0 1-.949.007l-.185-.007c-5.997-.255-10.945-4.563-12.175-10.254a11.75 11.75 0 0 1-.187-1.117 12.964 12.964 0 0 1 .561-5.776 13.08 13.08 0 0 1 3.656-5.566 12.984 12.984 0 0 1 8.145-3.327v13.252l.267.272zm.867-13.524v12.351l12.176-2.097c-1.23-5.691-6.179-10-12.176-10.254zm12.363 11.376-.006.001v-.001h.006zm-.006.001c.068.538.108 1.088.108 1.648a13.095 13.095 0 0 1-.669 4.127 13.081 13.081 0 0 1-2.846 4.773l-7.612-7.766-.743-.76 1.378-.237 10.384-1.785z" fill="#4A4A4A"/>
    </g>
    <rect x="170" y="77" width="46" height="61" rx="4" fill="#F5F6F8"/>
    <g opacity=".5" clip-path="url(#a12tqthbmc)">
        <path d="M181.827 99.31h22.345c.683 0 1.242.559 1.242 1.242v3.103h-24.828v-3.103c0-.683.559-1.242 1.241-1.242z" fill="#4A4A4A"/>
        <path d="M204.793 99h-23.586a.62.62 0 0 0-.621.62V117c0 .343.278.621.621.621h23.586a.621.621 0 0 0 .621-.621V99.62a.62.62 0 0 0-.621-.62zM186.793 117v-16.138M193 117v-16.138M199.207 117v-16.138M205.414 107.69h-24.828M205.414 112.655h-24.828M205.414 112.655h-24.828M205.414 112.655h-24.828" stroke="#4A4A4A" stroke-width="1.4" stroke-miterlimit="10" stroke-linecap="round"/>
    </g>
    <rect x="8" y="8" width="46" height="61" rx="4" fill="#F5F6F8"/>
    <g opacity=".5" clip-path="url(#vt44f472od)">
        <path fill-rule="evenodd" clip-rule="evenodd" d="M25.188 48.64h-1.827v-9.76h-.067l-2.846 1.8v-1.67l2.964-1.872h1.776V48.64zm2.04-1.243 3.837-3.966c1.214-1.292 1.817-2.015 1.817-3.01 0-1.124-.885-1.838-2.052-1.838-1.23 0-2.013.803-2.02 2.007h-1.59c-.016-2.08 1.527-3.452 3.641-3.452 2.115 0 3.61 1.389 3.626 3.227-.015 1.268-.595 2.28-2.678 4.375l-2.248 2.336v.096h5.107v1.477H27.22v-1.252h.007zm7.44-1.822v-.008.008zm0 0c.076 1.834 1.732 3.074 4.062 3.074 2.334 0 4.063-1.37 4.063-3.232.008-1.418-.892-2.448-2.43-2.662v-.08c1.211-.3 2.008-1.211 1.992-2.487.016-1.656-1.378-3.05-3.593-3.05-2.095 0-3.792 1.244-3.84 3.066h1.65c.031-1.014 1.043-1.64 2.174-1.64 1.187 0 1.96.642 1.96 1.72 0 1.077-.892 1.782-2.175 1.782h-.964v1.394h.964c1.61.008 2.533.816 2.533 1.901 0 1.086-.987 1.822-2.35 1.822-1.258 0-2.238-.626-2.302-1.608h-1.744z" fill="#4A4A4A"/>
        <path d="M29.604 28.076h-7.759c-.428 0-.776.52-.776 1.164v1.396c0 .643.348 1.164.776 1.164h7.759c.428 0 .776-.521.776-1.164V29.24c0-.643-.348-1.164-.776-1.164z" fill="#BEBEBE"/>
    </g>
    <rect x="62" y="8" width="100" height="130" rx="4" fill="#F5F6F8"/>
    <g opacity=".5" clip-path="url(#1h834y1vve)" stroke-miterlimit="10" stroke-linecap="round">
        <path d="M97.214 58.214v29.572M126.785 87.786H97.214" stroke="#BEBEBE" stroke-width="1.4"/>
        <path d="m101.071 78.786 6.429-8.357M107.5 70.429l7.714 4.5M115.214 74.929 125.5 64" stroke="#4A4A4A" stroke-width="2.4"/>
    </g>
    <defs>
        <clipPath id="izws7buy6a">
            <path fill="#fff" transform="translate(13 90)" d="M0 0h36v36H0z"/>
        </clipPath>
        <clipPath id="hcyg97pwzb">
            <path fill="#fff" transform="translate(175 21)" d="M0 0h36v36H0z"/>
        </clipPath>
        <clipPath id="a12tqthbmc">
            <path fill="#fff" transform="translate(175 90)" d="M0 0h36v36H0z"/>
        </clipPath>
        <clipPath id="vt44f472od">
            <path fill="#fff" transform="translate(13 21)" d="M0 0h36v36H0z"/>
        </clipPath>
        <clipPath id="1h834y1vve">
            <path fill="#fff" transform="translate(94 55)" d="M0 0h36v36H0z"/>
        </clipPath>
    </defs>
</svg>
