<svg width="224" height="146" viewBox="0 0 224 146" fill="none" xmlns="http://www.w3.org/2000/svg">
    <path fill="#fff" stroke="#D3D1D1" d="M.5.5h223v145H.5z"/>
    <rect x="8" y="8" width="100" height="61" rx="4" fill="#F5F6F8"/>
    <g opacity=".5" clip-path="url(#ltmbjxu5xa)" stroke-miterlimit="10" stroke-linecap="round">
        <path d="M43.214 24.214v29.572M72.785 53.786H43.214" stroke="#BEBEBE" stroke-width="1.4"/>
        <path d="m47.071 44.786 6.429-8.357M53.5 36.429l7.714 4.5M61.214 40.929 71.5 30" stroke="#4A4A4A" stroke-width="2.4"/>
    </g>
    <rect x="116" y="8" width="100" height="61" rx="4" fill="#F5F6F8"/>
    <g opacity=".5" clip-path="url(#flq5n8x91b)">
        <path fill-rule="evenodd" clip-rule="evenodd" d="m165.703 39.49.102.108v-.005l.765.776 8.146 8.31a12.986 12.986 0 0 1-8.146 3.327 9.35 9.35 0 0 1-.949.007l-.185-.007c-5.997-.255-10.945-4.563-12.175-10.254a11.75 11.75 0 0 1-.187-1.117 12.964 12.964 0 0 1 .561-5.776 13.08 13.08 0 0 1 3.656-5.566 12.984 12.984 0 0 1 8.145-3.327v13.252l.267.272zm.867-13.524v12.351l12.176-2.097c-1.23-5.691-6.179-10-12.176-10.254zm12.363 11.376-.006.001v-.001h.006zm-.006.001c.068.538.108 1.088.108 1.648a13.095 13.095 0 0 1-.669 4.127 13.081 13.081 0 0 1-2.846 4.773l-7.612-7.766-.743-.76 1.378-.237 10.384-1.785z" fill="#4A4A4A"/>
    </g>
    <rect x="8" y="77" width="208" height="61" rx="4" fill="#F5F6F8"/>
    <g opacity=".5" clip-path="url(#5z14ox45zc)">
        <path d="M100.827 99.31h22.345c.683 0 1.242.559 1.242 1.242v3.103H99.586v-3.103c0-.683.559-1.242 1.241-1.242z" fill="#4A4A4A"/>
        <path d="M123.793 99h-23.586a.62.62 0 0 0-.621.62V117a.62.62 0 0 0 .621.621h23.586a.621.621 0 0 0 .621-.621V99.62a.62.62 0 0 0-.621-.62zM105.793 117v-16.138M112 117v-16.138M118.207 117v-16.138M124.414 107.69H99.586M124.414 112.655H99.586M124.414 112.655H99.586M124.414 112.655H99.586" stroke="#4A4A4A" stroke-width="1.4" stroke-miterlimit="10" stroke-linecap="round"/>
    </g>
    <defs>
        <clipPath id="ltmbjxu5xa">
            <path fill="#fff" transform="translate(40 21)" d="M0 0h36v36H0z"/>
        </clipPath>
        <clipPath id="flq5n8x91b">
            <path fill="#fff" transform="translate(148 21)" d="M0 0h36v36H0z"/>
        </clipPath>
        <clipPath id="5z14ox45zc">
            <path fill="#fff" transform="translate(94 90)" d="M0 0h36v36H0z"/>
        </clipPath>
    </defs>
</svg>
