<svg width="24" height="24" viewBox="0 0 24 24" fill="none" xmlns="http://www.w3.org/2000/svg">
    <g clip-path="url(#y89usjpo7a)">
        <path d="M20.313 5.125v5.063c0 .621-.504 1.124-1.125 1.124h-5.063a1.124 1.124 0 1 1 0-2.25h2.229a5.639 5.639 0 0 0-4.486-2.242 5.624 5.624 0 0 0-5.618 5.617 5.625 5.625 0 0 0 5.618 5.618 5.57 5.57 0 0 0 3.37-1.122c.5-.37 1.204-.273 1.576.224a1.126 1.126 0 0 1-.224 1.575 7.803 7.803 0 0 1-4.718 1.577C7.533 20.31 4 16.776 4 12.437 4 8.1 7.533 4.566 11.871 4.566a7.892 7.892 0 0 1 6.191 3.028V5.125a1.124 1.124 0 1 1 2.25 0z" fill="#4A4A4A"/>
    </g>
    <defs>
        <clipPath id="y89usjpo7a">
            <path fill="#fff" d="M0 0h24v24H0z"/>
        </clipPath>
    </defs>
</svg>
