<svg width="18" height="18" viewBox="0 0 18 18" fill="none" xmlns="http://www.w3.org/2000/svg">
    <path d="M16 3.516v1.509c0 1.39-3.134 2.516-7 2.516S2 6.415 2 5.025v-1.51C2 2.127 5.134 1 9 1s7 1.126 7 2.516zM14.287 7.75c.622-.232 1.247-.531 1.713-.899v3.204c0 1.39-3.134 2.516-7 2.516s-7-1.126-7-2.516V6.852c.467.368 1.063.667 1.714.9 1.4.502 3.27.795 5.286.795 2.016 0 3.884-.293 5.287-.796zM3.714 12.783c1.4.503 3.27.795 5.286.795 2.016 0 3.884-.292 5.287-.795.622-.233 1.247-.532 1.713-.9v2.701c0 1.39-3.134 2.516-7 2.516s-7-1.126-7-2.516v-2.7c.467.367 1.063.666 1.714.899z" fill="#0F5AB3"/>
</svg>
