<svg width="16" height="16" viewBox="0 0 16 16" fill="none" xmlns="http://www.w3.org/2000/svg">
    <g clip-path="url(#bfepruse0a)">
        <path d="M8 15A7 7 0 1 0 8 1a7 7 0 0 0 0 14z" fill="url(#i5z3qxxplb)"/>
        <path d="M8 2c3.31 0 6 2.69 6 6s-2.69 6-6 6-6-2.69-6-6 2.69-6 6-6zm0-2C3.58 0 0 3.58 0 8s3.58 8 8 8 8-3.58 8-8-3.58-8-8-8z" fill="#141414"/>
    </g>
    <defs>
        <linearGradient id="i5z3qxxplb" x1="-1.26" y1="3.32" x2="14.29" y2="11.18" gradientUnits="userSpaceOnUse">
            <stop offset=".1" stop-color="#2870C4"/>
            <stop offset=".33" stop-color="#4ECEF6"/>
            <stop offset=".59" stop-color="#FFD43B"/>
            <stop offset=".93" stop-color="#FA5A5A"/>
        </linearGradient>
        <clipPath id="bfepruse0a">
            <path fill="#fff" d="M0 0h16v16H0z"/>
        </clipPath>
    </defs>
</svg>
