<svg width="18" height="18" viewBox="0 0 18 18" fill="none" xmlns="http://www.w3.org/2000/svg">
    <g clip-path="url(#wy8iit3taa)" fill="#fff">
        <path d="M4.94 17.32a3.998 3.998 0 0 1-2.83-6.83l1.41-1.41a.996.996 0 1 1 1.41 1.41L3.52 11.9c-.78.78-.78 2.05 0 2.83.78.78 2.05.78 2.83 0l2.83-2.83c.38-.38.58-.88.58-1.41 0-.53-.21-1.04-.58-1.41a.996.996 0 1 1 1.41-1.41c.75.75 1.17 1.76 1.17 2.83s-.41 2.08-1.17 2.83l-2.83 2.83c-.78.78-1.8 1.17-2.83 1.17l.01-.01z"/>
        <path d="M7.77 11.5c-.26 0-.51-.1-.71-.29a3.987 3.987 0 0 1-1.17-2.83c0-1.07.41-2.08 1.17-2.83l2.83-2.83c.75-.75 1.76-1.17 2.83-1.17s2.08.41 2.83 1.17c.75.75 1.17 1.76 1.17 2.83s-.42 2.08-1.17 2.83l-1.41 1.41a.996.996 0 1 1-1.41-1.41l1.41-1.41c.38-.38.58-.88.58-1.41 0-.53-.21-1.04-.58-1.41-.75-.75-2.08-.75-2.83 0L8.48 6.98c-.38.38-.58.88-.58 1.41 0 .53.21 1.04.58 1.41a.996.996 0 0 1-.71 1.7z"/>
    </g>
    <defs>
        <clipPath id="wy8iit3taa">
            <path fill="#fff" d="M0 0h18v18H0z"/>
        </clipPath>
    </defs>
</svg>
