<svg width="18" height="18" viewBox="0 0 18 18" xmlns="http://www.w3.org/2000/svg">
    <g clip-path="url(#ghdbxecz0a)">
        <path d="M3.59 16.111a.895.895 0 0 1-.746-.405c-.711-1.08-1.044-3.24-1.044-4.365 0-3.474 2.826-6.3 6.3-6.3h1.62V3.133a1.332 1.332 0 0 1 2.115-1.08.62.62 0 0 1 .117.1l5.103 5.228c.297.252.468.621.468 1.017 0 .396-.171.765-.468 1.017l-5.103 5.23s-.072.071-.117.098a1.328 1.328 0 0 1-1.386.108 1.322 1.322 0 0 1-.73-1.188V11.9H8.1c-1.871 0-3.06 1.152-3.635 3.52a.896.896 0 0 1-.72.674c-.054.01-.108.018-.153.018zm4.51-9.27a4.502 4.502 0 0 0-4.5 4.5c0 .342.036.765.099 1.188 1.197-1.944 2.96-2.42 4.4-2.42h2.52c.496 0 .9.404.9.9v1.502l4.006-4.104-4.005-4.104V5.95c0 .495-.405.9-.9.9H8.1v-.009z"/>
    </g>
    <defs>
        <clipPath id="ghdbxecz0a">
            <path d="M0 0h18v18H0z"/>
        </clipPath>
    </defs>
</svg>
