<svg width="20" height="20" viewBox="0 0 20 20" fill="none" xmlns="http://www.w3.org/2000/svg">
    <g clip-path="url(#v7la2croga)">
        <path d="M13.515 3.123c.83-.83 2.176-.83 3.006 0l.357.357c.83.83.83 2.177 0 3.006l-5.822 5.825a2.16 2.16 0 0 1-.921.54l-2.953.845a.672.672 0 0 1-.696-.207.653.653 0 0 1-.18-.67l.844-2.952c.1-.349.286-.665.54-.922l5.825-5.822zm1.978 1.002c-.25-.277-.7-.277-.977 0l-.86.858 1.362 1.361.859-.885c.277-.251.277-.7 0-.977l-.384-.357zm-6.98 6.131-.495 1.727 1.727-.496a.69.69 0 0 0 .307-.18l3.965-3.962-1.361-1.36-3.962 3.964a.69.69 0 0 0-.18.307zm-.108-5.981a.708.708 0 1 1 0 1.417H5.098a1.18 1.18 0 0 0-1.18 1.18v8.031c0 .653.528 1.181 1.18 1.181h8.03a1.18 1.18 0 0 0 1.181-1.18v-3.307c0-.393.316-.709.709-.709.393 0 .708.316.708.709v3.306a2.598 2.598 0 0 1-2.598 2.598h-8.03A2.598 2.598 0 0 1 2.5 14.903v-8.03a2.598 2.598 0 0 1 2.598-2.598h3.307z" fill="#767676"/>
    </g>
    <defs>
        <clipPath id="v7la2croga">
            <path fill="#fff" d="M0 0h20v20H0z"/>
        </clipPath>
    </defs>
</svg>
