<svg width="24" height="24" viewBox="0 0 24 24" fill="none" xmlns="http://www.w3.org/2000/svg">
    <g clip-path="url(#g4rzulqqra)">
        <path d="M16.218 3.747a2.55 2.55 0 0 1 3.607 0l.428.43a2.551 2.551 0 0 1 0 3.606l-6.986 6.99a2.591 2.591 0 0 1-1.105.649l-3.543 1.013a.806.806 0 0 1-.836-.248c-.216-.188-.301-.507-.216-.804L8.58 11.84c.12-.418.344-.797.648-1.105l6.99-6.988zm2.374 1.203c-.301-.332-.84-.332-1.173 0l-1.03 1.03 1.632 1.633 1.031-1.063c.333-.3.333-.84 0-1.171l-.46-.43zm-8.375 7.357L9.62 14.38l2.073-.595a.828.828 0 0 0 .368-.216l4.758-4.755-1.633-1.633-4.754 4.758a.826.826 0 0 0-.216.368zm-.131-7.177a.85.85 0 1 1 0 1.7H6.118c-.783 0-1.417.635-1.417 1.417v9.637c0 .783.634 1.417 1.417 1.417h9.636c.783 0 1.417-.634 1.417-1.417v-3.968c0-.471.38-.85.85-.85.472 0 .85.379.85.85v3.968A3.118 3.118 0 0 1 15.755 21H6.118A3.118 3.118 0 0 1 3 17.884V8.247A3.118 3.118 0 0 1 6.118 5.13h3.968z" fill="#4A4A4A"/>
    </g>
    <defs>
        <clipPath id="g4rzulqqra">
            <path fill="#fff" d="M0 0h24v24H0z"/>
        </clipPath>
    </defs>
</svg>
