<svg width="224" height="146" viewBox="0 0 224 146" fill="none" xmlns="http://www.w3.org/2000/svg">
    <path fill="#fff" stroke="#D3D1D1" d="M.5.5h223v145H.5z"/>
    <rect x="116" y="77" width="46" height="61" rx="4" fill="#F5F6F8"/>
    <g opacity=".5" clip-path="url(#d1p32ow7na)">
        <path fill-rule="evenodd" clip-rule="evenodd" d="m138.703 108.49.102.108v-.006l.765.777 8.146 8.31a12.988 12.988 0 0 1-8.146 3.327 8.812 8.812 0 0 1-.949.007l-.185-.007c-5.997-.255-10.945-4.563-12.175-10.254a11.72 11.72 0 0 1-.187-1.117 12.95 12.95 0 0 1 .561-5.776 13.075 13.075 0 0 1 3.656-5.566 12.984 12.984 0 0 1 8.145-3.327v13.252l.267.272zm.867-13.524v12.351l12.176-2.097c-1.23-5.691-6.179-10-12.176-10.254zm12.363 11.376-.006.001v-.001h.006zm-.006.001c.068.538.108 1.088.108 1.649a13.097 13.097 0 0 1-.669 4.126 13.084 13.084 0 0 1-2.846 4.773l-7.612-7.766-.743-.759 1.378-.238 10.384-1.785z" fill="#4A4A4A"/>
    </g>
    <rect x="62" y="77" width="46" height="61" rx="4" fill="#F5F6F8"/>
    <g opacity=".5" clip-path="url(#d2h4h6delb)">
        <path fill-rule="evenodd" clip-rule="evenodd" d="m84.703 108.49.102.108v-.006l.765.777 8.146 8.31a12.985 12.985 0 0 1-8.146 3.327 8.812 8.812 0 0 1-.949.007l-.185-.007c-5.997-.255-10.945-4.563-12.175-10.254-.08-.368-.142-.737-.188-1.117a13.137 13.137 0 0 1-.107-1.649 13.069 13.069 0 0 1 .669-4.127 13.074 13.074 0 0 1 3.656-5.566 12.984 12.984 0 0 1 8.145-3.327v13.252l.267.272zm.867-13.524v12.351l12.176-2.097c-1.23-5.691-6.179-10-12.176-10.254zm12.363 11.376-.006.001v-.001h.006zm-.006.001c.068.538.108 1.088.108 1.649a13.075 13.075 0 0 1-.67 4.126 13.08 13.08 0 0 1-2.845 4.773l-7.612-7.766-.743-.759 1.377-.238 10.385-1.785z" fill="#4A4A4A"/>
    </g>
    <rect x="8" y="77" width="46" height="61" rx="4" fill="#F5F6F8"/>
    <g opacity=".5" clip-path="url(#nq0l9s73xc)">
        <path fill-rule="evenodd" clip-rule="evenodd" d="m30.703 108.49.102.108v-.006l.765.777 8.146 8.31a12.985 12.985 0 0 1-8.146 3.327 8.812 8.812 0 0 1-.949.007l-.185-.007c-5.997-.255-10.945-4.563-12.175-10.254-.08-.368-.142-.737-.188-1.117a13.137 13.137 0 0 1-.107-1.649 13.069 13.069 0 0 1 .669-4.127 13.074 13.074 0 0 1 3.656-5.566 12.984 12.984 0 0 1 8.145-3.327v13.252l.267.272zm.867-13.524v12.351l12.176-2.097c-1.23-5.691-6.179-10-12.176-10.254zm12.363 11.376-.006.001v-.001h.006zm-.006.001c.068.538.108 1.088.108 1.649a13.075 13.075 0 0 1-.67 4.126 13.08 13.08 0 0 1-2.845 4.773l-7.612-7.766-.743-.759 1.377-.238 10.385-1.785z" fill="#4A4A4A"/>
    </g>
    <rect x="170" y="77" width="46" height="61" rx="4" fill="#F5F6F8"/>
    <g opacity=".5" clip-path="url(#8yyr1of0dd)">
        <path d="M181.827 99.31h22.345c.683 0 1.242.559 1.242 1.242v3.103h-24.828v-3.103c0-.683.559-1.242 1.241-1.242z" fill="#4A4A4A"/>
        <path d="M204.793 99h-23.586a.62.62 0 0 0-.621.62V117c0 .343.278.621.621.621h23.586a.621.621 0 0 0 .621-.621V99.62a.62.62 0 0 0-.621-.62zM186.793 117v-16.138M193 117v-16.138M199.207 117v-16.138M205.414 107.69h-24.828M205.414 112.655h-24.828M205.414 112.655h-24.828M205.414 112.655h-24.828" stroke="#4A4A4A" stroke-width="1.4" stroke-miterlimit="10" stroke-linecap="round"/>
    </g>
    <rect x="8" y="8" width="46" height="61" rx="4" fill="#F5F6F8"/>
    <g opacity=".5" clip-path="url(#5cbsvc7g4e)">
        <path fill-rule="evenodd" clip-rule="evenodd" d="M25.188 48.64h-1.827v-9.76h-.067l-2.846 1.8v-1.67l2.964-1.872h1.776V48.64zm2.04-1.243 3.837-3.966c1.214-1.292 1.817-2.015 1.817-3.01 0-1.124-.885-1.838-2.052-1.838-1.23 0-2.013.803-2.02 2.007h-1.59c-.016-2.08 1.527-3.452 3.641-3.452 2.115 0 3.61 1.389 3.626 3.227-.015 1.268-.595 2.28-2.678 4.375l-2.248 2.336v.096h5.107v1.477H27.22v-1.252h.007zm7.44-1.822v-.008.008zm0 0c.076 1.834 1.732 3.074 4.062 3.074 2.334 0 4.063-1.37 4.063-3.232.008-1.418-.892-2.448-2.43-2.662v-.08c1.211-.3 2.008-1.211 1.992-2.487.016-1.656-1.378-3.05-3.593-3.05-2.095 0-3.792 1.244-3.84 3.066h1.65c.031-1.014 1.043-1.64 2.174-1.64 1.187 0 1.96.642 1.96 1.72 0 1.077-.892 1.782-2.175 1.782h-.964v1.394h.964c1.61.008 2.533.816 2.533 1.901 0 1.086-.987 1.822-2.35 1.822-1.258 0-2.238-.626-2.302-1.608h-1.744z" fill="#4A4A4A"/>
        <path d="M29.604 28.076h-7.759c-.428 0-.776.52-.776 1.164v1.396c0 .643.348 1.164.776 1.164h7.759c.428 0 .776-.521.776-1.164V29.24c0-.643-.348-1.164-.776-1.164z" fill="#BEBEBE"/>
    </g>
    <rect x="62" y="8" width="46" height="61" rx="4" fill="#F5F6F8"/>
    <g opacity=".5" clip-path="url(#ir9ushj62f)">
        <path fill-rule="evenodd" clip-rule="evenodd" d="M79.188 48.64h-1.827v-9.76h-.067l-2.846 1.8v-1.67l2.964-1.872h1.776V48.64zm2.04-1.243 3.837-3.966c1.214-1.292 1.817-2.015 1.817-3.01 0-1.124-.885-1.838-2.052-1.838-1.23 0-2.013.803-2.02 2.007h-1.59c-.016-2.08 1.527-3.452 3.641-3.452 2.115 0 3.61 1.389 3.626 3.227-.015 1.268-.595 2.28-2.678 4.375l-2.248 2.336v.096h5.107v1.477h-7.449v-1.252h.008zm7.44-1.822v-.008.008zm0 0c.076 1.834 1.732 3.074 4.062 3.074 2.334 0 4.063-1.37 4.063-3.232.008-1.418-.892-2.448-2.43-2.662v-.08c1.211-.3 2.008-1.211 1.992-2.487.016-1.656-1.378-3.05-3.593-3.05-2.095 0-3.792 1.244-3.84 3.066h1.65c.031-1.014 1.043-1.64 2.174-1.64 1.187 0 1.96.642 1.96 1.72 0 1.077-.892 1.782-2.175 1.782h-.964v1.394h.964c1.61.008 2.533.816 2.533 1.901 0 1.086-.987 1.822-2.35 1.822-1.258 0-2.238-.626-2.302-1.608h-1.744z" fill="#4A4A4A"/>
        <path d="M83.604 28.076h-7.759c-.428 0-.776.52-.776 1.164v1.396c0 .643.348 1.164.776 1.164h7.759c.428 0 .776-.521.776-1.164V29.24c0-.643-.348-1.164-.776-1.164z" fill="#BEBEBE"/>
    </g>
    <rect x="116" y="8" width="46" height="61" rx="4" fill="#F5F6F8"/>
    <g opacity=".5" clip-path="url(#qxs86o1i6g)">
        <path fill-rule="evenodd" clip-rule="evenodd" d="M133.188 48.64h-1.827v-9.76h-.067l-2.846 1.8v-1.67l2.964-1.872h1.776V48.64zm2.039-1.243 3.838-3.966c1.214-1.292 1.817-2.015 1.817-3.01 0-1.124-.885-1.838-2.052-1.838-1.23 0-2.013.803-2.021 2.007h-1.589c-.016-2.08 1.527-3.452 3.641-3.452 2.115 0 3.611 1.389 3.627 3.227-.016 1.268-.596 2.28-2.679 4.375l-2.248 2.336v.096h5.107v1.477h-7.448v-1.252h.007zm7.441-1.822v-.008.008zm0 0c.076 1.834 1.732 3.074 4.062 3.074 2.334 0 4.063-1.37 4.063-3.232.008-1.418-.892-2.448-2.43-2.662v-.08c1.211-.3 2.008-1.211 1.992-2.487.016-1.656-1.378-3.05-3.593-3.05-2.095 0-3.792 1.244-3.839 3.066h1.649c.031-1.014 1.043-1.64 2.174-1.64 1.187 0 1.96.642 1.96 1.72 0 1.077-.892 1.782-2.175 1.782h-.964v1.394h.964c1.609.008 2.533.816 2.533 1.901 0 1.086-.987 1.822-2.35 1.822-1.258 0-2.238-.626-2.302-1.608h-1.744z" fill="#4A4A4A"/>
        <path d="M137.604 28.076h-7.759c-.428 0-.776.52-.776 1.164v1.396c0 .643.348 1.164.776 1.164h7.759c.428 0 .776-.521.776-1.164V29.24c0-.643-.348-1.164-.776-1.164z" fill="#BEBEBE"/>
    </g>
    <rect x="170" y="8" width="46" height="61" rx="4" fill="#F5F6F8"/>
    <g opacity=".5" clip-path="url(#hs3iwi60ph)">
        <path fill-rule="evenodd" clip-rule="evenodd" d="M187.188 48.64h-1.827v-9.76h-.067l-2.846 1.8v-1.67l2.964-1.872h1.776V48.64zm2.039-1.243 3.838-3.966c1.214-1.292 1.817-2.015 1.817-3.01 0-1.124-.885-1.838-2.052-1.838-1.23 0-2.013.803-2.021 2.007h-1.589c-.016-2.08 1.527-3.452 3.641-3.452 2.115 0 3.611 1.389 3.627 3.227-.016 1.268-.596 2.28-2.679 4.375l-2.248 2.336v.096h5.107v1.477h-7.448v-1.252h.007zm7.441-1.822v-.008.008zm0 0c.076 1.834 1.732 3.074 4.062 3.074 2.334 0 4.063-1.37 4.063-3.232.008-1.418-.892-2.448-2.43-2.662v-.08c1.211-.3 2.008-1.211 1.992-2.487.016-1.656-1.378-3.05-3.593-3.05-2.095 0-3.792 1.244-3.839 3.066h1.649c.031-1.014 1.043-1.64 2.174-1.64 1.187 0 1.96.642 1.96 1.72 0 1.077-.892 1.782-2.175 1.782h-.964v1.394h.964c1.609.008 2.533.816 2.533 1.901 0 1.086-.987 1.822-2.35 1.822-1.258 0-2.238-.626-2.302-1.608h-1.744z" fill="#4A4A4A"/>
        <path d="M191.604 28.076h-7.759c-.428 0-.776.52-.776 1.164v1.396c0 .643.348 1.164.776 1.164h7.759c.428 0 .776-.521.776-1.164V29.24c0-.643-.348-1.164-.776-1.164z" fill="#BEBEBE"/>
    </g>
    <defs>
        <clipPath id="d1p32ow7na">
            <path fill="#fff" transform="translate(121 90)" d="M0 0h36v36H0z"/>
        </clipPath>
        <clipPath id="d2h4h6delb">
            <path fill="#fff" transform="translate(67 90)" d="M0 0h36v36H0z"/>
        </clipPath>
        <clipPath id="nq0l9s73xc">
            <path fill="#fff" transform="translate(13 90)" d="M0 0h36v36H0z"/>
        </clipPath>
        <clipPath id="8yyr1of0dd">
            <path fill="#fff" transform="translate(175 90)" d="M0 0h36v36H0z"/>
        </clipPath>
        <clipPath id="5cbsvc7g4e">
            <path fill="#fff" transform="translate(13 21)" d="M0 0h36v36H0z"/>
        </clipPath>
        <clipPath id="ir9ushj62f">
            <path fill="#fff" transform="translate(67 21)" d="M0 0h36v36H0z"/>
        </clipPath>
        <clipPath id="qxs86o1i6g">
            <path fill="#fff" transform="translate(121 21)" d="M0 0h36v36H0z"/>
        </clipPath>
        <clipPath id="hs3iwi60ph">
            <path fill="#fff" transform="translate(175 21)" d="M0 0h36v36H0z"/>
        </clipPath>
    </defs>
</svg>
