<svg width="224" height="146" viewBox="0 0 224 146" fill="none" xmlns="http://www.w3.org/2000/svg">
    <path fill="#fff" stroke="#D3D1D1" d="M.5.5h223v145H.5z"/>
    <rect x="116" y="77" width="100" height="61" rx="4" fill="#F5F6F8"/>
    <g opacity=".5" clip-path="url(#x5a6qciefa)">
        <path d="M154.827 99.31h22.345c.683 0 1.242.559 1.242 1.242v3.103h-24.828v-3.103c0-.683.559-1.242 1.241-1.242z" fill="#4A4A4A"/>
        <path d="M177.793 99h-23.586a.62.62 0 0 0-.621.62V117c0 .343.278.621.621.621h23.586a.621.621 0 0 0 .621-.621V99.62a.62.62 0 0 0-.621-.62zM159.793 117v-16.138M166 117v-16.138M172.207 117v-16.138M178.414 107.69h-24.828M178.414 112.655h-24.828M178.414 112.655h-24.828M178.414 112.655h-24.828" stroke="#4A4A4A" stroke-width="1.4" stroke-miterlimit="10" stroke-linecap="round"/>
    </g>
    <rect x="62" y="77" width="46" height="61" rx="4" fill="#F5F6F8"/>
    <g opacity=".5" clip-path="url(#p0a5c6yu5b)" fill="#4A4A4A">
        <path d="M99.878 107.845h-5.605a9.251 9.251 0 0 0-2.278-5.499 9.257 9.257 0 0 0-6.374-3.154v-5.604c-.205-.007-.41-.019-.62-.019-.212 0-.417.006-.622.019a14.735 14.735 0 0 0-4.45.887 14.89 14.89 0 0 0-5.884 3.91l.875.876L78 102.339a9.256 9.256 0 0 0-2.278 5.5h-5.599c-.006.204-.019.409-.019.62 0 .211.007.416.02.621a14.86 14.86 0 0 0 4.797 10.334l.875-.875 3.079-3.078a9.259 9.259 0 0 0 5.5 2.278v5.604c.204.007.409.019.62.019.21 0 .416-.006.62-.019a14.77 14.77 0 0 0 4.358-.856c.39-.137.776-.292 1.154-.466a14.816 14.816 0 0 0 4.83-3.482 14.815 14.815 0 0 0 3.922-9.459c.006-.205.019-.41.019-.621 0-.211-.007-.416-.019-.62v.006zm-8.758-4.624a8.023 8.023 0 0 1 1.918 4.624h-3.743a4.334 4.334 0 0 0-.82-1.974l2.645-2.644v-.006zm-2.644 7.839a4.294 4.294 0 0 0 .82-1.974h3.742a8.04 8.04 0 0 1-1.918 4.624l-2.644-2.644v-.006zm1.769 3.526c-.51.44-1.08.806-1.688 1.111-.367.18-.751.335-1.155.459a8.045 8.045 0 0 1-1.781.347v-3.742c.124-.019.248-.05.366-.075.41-.099.8-.242 1.16-.447.156-.087.305-.186.448-.298l2.644 2.645h.006zm-4.624-14.158a8.033 8.033 0 0 1 4.624 1.918L87.6 104.99a4.295 4.295 0 0 0-1.974-.82v-3.742h-.006zm-1.242-5.605v4.363a9.482 9.482 0 0 0-2.346.466l-1.638-4.028a13.445 13.445 0 0 1 3.978-.795l.006-.006zm-4.624 7.516a8.097 8.097 0 0 1 2.744-1.545 8.136 8.136 0 0 1 1.88-.373v3.743a4.098 4.098 0 0 0-.471.099c-.41.106-.795.267-1.142.485a4.488 4.488 0 0 0-.367.242l-2.644-2.644v-.007zm-3.96-3.96a13.64 13.64 0 0 1 3.451-2.29l1.639 4.034a9.502 9.502 0 0 0-2.011 1.335l-3.079-3.079zm3.079 4.835 2.644 2.645a4.295 4.295 0 0 0-.82 1.973h-3.742a8.043 8.043 0 0 1 1.918-4.624v.006zm1.825 5.866c.105.732.397 1.409.819 1.974l-2.644 2.644a8.023 8.023 0 0 1-1.918-4.624h3.743v.006zm-5.785 8.584a13.586 13.586 0 0 1-3.563-8.584h4.364a9.25 9.25 0 0 0 2.278 5.499l-3.08 3.079v.006zm9.46-1.167a8.033 8.033 0 0 1-4.625-1.918l2.644-2.644a4.293 4.293 0 0 0 1.974.819v3.743h.006zm1.135-4.984c-.168.031-.341.05-.515.05a3.022 3.022 0 0 1-1.707-.515 3.094 3.094 0 0 1-.875-.876 3.054 3.054 0 0 1-.515-1.706c0-.212.024-.423.062-.621a3.01 3.01 0 0 1 .453-1.086c.217-.329.503-.615.825-.838l-.062-.155.112.111a3.069 3.069 0 0 1 2.328-.453 3.104 3.104 0 0 1 2.477 3.035c0 .211-.026.422-.063.621-.08.397-.236.763-.453 1.086-.23.348-.528.646-.875.875a.69.69 0 0 1-.037.019c-.317.205-.67.36-1.056.434-.03.007-.068 0-.105.013l.006.006zm5.146 9.36a13.715 13.715 0 0 1-5.034 1.229v-4.363a8.963 8.963 0 0 0 2.247-.435c.397-.13.776-.292 1.148-.465a9.19 9.19 0 0 0 2.098-1.378l3.078 3.078a13.602 13.602 0 0 1-3.544 2.334h.007zm4.419-3.209-3.079-3.078a9.256 9.256 0 0 0 2.278-5.5h4.364a13.613 13.613 0 0 1-3.563 8.584v-.006z"/>
        <path d="m88.476 111.06 2.644 2.644a8.023 8.023 0 0 0 1.918-4.624h-3.743a4.338 4.338 0 0 1-.82 1.974v.006zM81.524 105.871l-2.644-2.644a8.023 8.023 0 0 0-1.918 4.624h3.743a4.338 4.338 0 0 1 .819-1.974v-.006zM87.594 104.99l2.644-2.644a8.016 8.016 0 0 0-4.624-1.918v3.742a4.343 4.343 0 0 1 1.974.82h.006zM92.001 114.585l3.079 3.079a13.587 13.587 0 0 0 3.562-8.584H94.28A9.25 9.25 0 0 1 92 114.579v.006zM83.182 105.766l.062.155s.03-.031.05-.044l-.112-.111z"/>
    </g>
    <rect x="8" y="77" width="46" height="61" rx="4" fill="#F5F6F8"/>
    <g opacity=".5" clip-path="url(#1p36rg2qxc)" stroke-miterlimit="10" stroke-linecap="round">
        <path d="M16.214 93.214v29.572M45.785 122.786H16.214" stroke="#BEBEBE" stroke-width="1.4"/>
        <path d="m20.071 113.786 6.429-8.357M26.5 105.429l7.714 4.5M34.214 109.929 44.5 99" stroke="#4A4A4A" stroke-width="2.4"/>
    </g>
    <rect x="8" y="8" width="46" height="61" rx="4" fill="#F5F6F8"/>
    <g opacity=".5" clip-path="url(#x0v5gs8mdd)">
        <path fill-rule="evenodd" clip-rule="evenodd" d="m30.703 39.49.102.108v-.005l.765.776 8.146 8.31a12.984 12.984 0 0 1-8.146 3.327 9.35 9.35 0 0 1-.949.007l-.185-.007c-5.997-.255-10.945-4.563-12.175-10.254-.08-.368-.142-.737-.188-1.117a13.15 13.15 0 0 1-.107-1.65 13.073 13.073 0 0 1 .669-4.126 13.078 13.078 0 0 1 3.656-5.566 12.984 12.984 0 0 1 8.145-3.327v13.252l.267.272zm.867-13.524v12.351l12.176-2.097c-1.23-5.691-6.179-10-12.176-10.254zm12.363 11.376-.006.001v-.001h.006zm-.006.001c.068.538.108 1.088.108 1.648a13.073 13.073 0 0 1-.67 4.127 13.077 13.077 0 0 1-2.845 4.773l-7.612-7.766-.743-.76 1.377-.237 10.385-1.785z" fill="#4A4A4A"/>
    </g>
    <rect x="62" y="8" width="46" height="61" rx="4" fill="#F5F6F8"/>
    <g opacity=".5" clip-path="url(#7tufqtpvke)">
        <path fill-rule="evenodd" clip-rule="evenodd" d="m84.703 39.49.102.108v-.005l.765.776 8.146 8.31a12.984 12.984 0 0 1-8.146 3.327 9.35 9.35 0 0 1-.949.007l-.185-.007c-5.997-.255-10.945-4.563-12.175-10.254-.08-.368-.142-.737-.188-1.117a13.15 13.15 0 0 1-.107-1.65 13.073 13.073 0 0 1 .669-4.126 13.078 13.078 0 0 1 3.656-5.566 12.984 12.984 0 0 1 8.145-3.327v13.252l.267.272zm.867-13.524v12.351l12.176-2.097c-1.23-5.691-6.179-10-12.176-10.254zm12.363 11.376-.006.001v-.001h.006zm-.006.001c.068.538.108 1.088.108 1.648a13.073 13.073 0 0 1-.67 4.127 13.077 13.077 0 0 1-2.845 4.773l-7.612-7.766-.743-.76 1.377-.237 10.385-1.785z" fill="#4A4A4A"/>
    </g>
    <rect x="116" y="8" width="46" height="61" rx="4" fill="#F5F6F8"/>
    <g opacity=".5" clip-path="url(#1bp0vsd5nf)">
        <path fill-rule="evenodd" clip-rule="evenodd" d="m138.703 39.49.102.108v-.005l.765.776 8.146 8.31a12.986 12.986 0 0 1-8.146 3.327 9.35 9.35 0 0 1-.949.007l-.185-.007c-5.997-.255-10.945-4.563-12.175-10.254a11.75 11.75 0 0 1-.187-1.117 12.964 12.964 0 0 1 .561-5.776 13.08 13.08 0 0 1 3.656-5.566 12.984 12.984 0 0 1 8.145-3.327v13.252l.267.272zm.867-13.524v12.351l12.176-2.097c-1.23-5.691-6.179-10-12.176-10.254zm12.363 11.376-.006.001v-.001h.006zm-.006.001c.068.538.108 1.088.108 1.648a13.095 13.095 0 0 1-.669 4.127 13.081 13.081 0 0 1-2.846 4.773l-7.612-7.766-.743-.76 1.378-.237 10.384-1.785z" fill="#4A4A4A"/>
    </g>
    <rect x="170" y="8" width="46" height="61" rx="4" fill="#F5F6F8"/>
    <g opacity=".5" clip-path="url(#x3blk108ig)">
        <path fill-rule="evenodd" clip-rule="evenodd" d="m192.703 39.49.102.108v-.005l.765.776 8.146 8.31a12.986 12.986 0 0 1-8.146 3.327 9.35 9.35 0 0 1-.949.007l-.185-.007c-5.997-.255-10.945-4.563-12.175-10.254a11.75 11.75 0 0 1-.187-1.117 12.964 12.964 0 0 1 .561-5.776 13.08 13.08 0 0 1 3.656-5.566 12.984 12.984 0 0 1 8.145-3.327v13.252l.267.272zm.867-13.524v12.351l12.176-2.097c-1.23-5.691-6.179-10-12.176-10.254zm12.363 11.376-.006.001v-.001h.006zm-.006.001c.068.538.108 1.088.108 1.648a13.095 13.095 0 0 1-.669 4.127 13.081 13.081 0 0 1-2.846 4.773l-7.612-7.766-.743-.76 1.378-.237 10.384-1.785z" fill="#4A4A4A"/>
    </g>
    <defs>
        <clipPath id="x5a6qciefa">
            <path fill="#fff" transform="translate(148 90)" d="M0 0h36v36H0z"/>
        </clipPath>
        <clipPath id="p0a5c6yu5b">
            <path fill="#fff" transform="translate(67 90)" d="M0 0h36v36H0z"/>
        </clipPath>
        <clipPath id="1p36rg2qxc">
            <path fill="#fff" transform="translate(13 90)" d="M0 0h36v36H0z"/>
        </clipPath>
        <clipPath id="x0v5gs8mdd">
            <path fill="#fff" transform="translate(13 21)" d="M0 0h36v36H0z"/>
        </clipPath>
        <clipPath id="7tufqtpvke">
            <path fill="#fff" transform="translate(67 21)" d="M0 0h36v36H0z"/>
        </clipPath>
        <clipPath id="1bp0vsd5nf">
            <path fill="#fff" transform="translate(121 21)" d="M0 0h36v36H0z"/>
        </clipPath>
        <clipPath id="x3blk108ig">
            <path fill="#fff" transform="translate(175 21)" d="M0 0h36v36H0z"/>
        </clipPath>
    </defs>
</svg>
