<svg width="24" height="24" viewBox="0 0 24 24" fill="none" xmlns="http://www.w3.org/2000/svg">
    <g clip-path="url(#4vilyal09a)">
        <path d="M9.625 17.063c0 .309-.253.562-.563.562a.564.564 0 0 1-.562-.563V9.75c0-.31.253-.563.563-.563.309 0 .562.254.562.563v7.313zm2.813 0c0 .309-.254.562-.563.562a.564.564 0 0 1-.563-.563V9.75c0-.31.254-.563.563-.563.31 0 .563.254.563.563v7.313zm2.812 0c0 .309-.253.562-.563.562a.564.564 0 0 1-.562-.563V9.75c0-.31.253-.563.563-.563.309 0 .562.254.562.563v7.313zm-.088-13.186 1.29 1.936h2.454a.843.843 0 1 1 0 1.687h-.281v10.688A2.812 2.812 0 0 1 15.812 21H7.939a2.812 2.812 0 0 1-2.813-2.813V7.5h-.281a.843.843 0 1 1 0-1.688h2.454l1.29-1.935A1.97 1.97 0 0 1 10.226 3h3.298a1.97 1.97 0 0 1 1.638.877zM9.326 5.813h5.098l-.668-1a.283.283 0 0 0-.232-.125h-3.298c-.091 0-.21.047-.232.125l-.668 1zM6.812 18.188c0 .622.504 1.125 1.125 1.125h7.875c.623 0 1.126-.503 1.126-1.125V7.5H6.813v10.688z" fill="current"/>
    </g>
    <defs>
        <clipPath id="4vilyal09a">
            <path fill="#fff" d="M0 0h24v24H0z"/>
        </clipPath>
    </defs>
</svg>
