<svg width="20" height="20" viewBox="0 0 20 20" fill="none" xmlns="http://www.w3.org/2000/svg">
    <g clip-path="url(#bk6cdvc9ya)">
        <path d="M8.021 14.219a.47.47 0 0 1-.469.469.47.47 0 0 1-.468-.47V8.126a.47.47 0 0 1 .468-.469.47.47 0 0 1 .469.469v6.094zm2.344 0a.47.47 0 0 1-.469.469.47.47 0 0 1-.469-.47V8.126a.47.47 0 0 1 .469-.469.47.47 0 0 1 .469.469v6.094zm2.344 0a.47.47 0 0 1-.47.469.47.47 0 0 1-.468-.47V8.126a.47.47 0 0 1 .469-.469.47.47 0 0 1 .469.469v6.094zM12.635 3.23l1.075 1.613h2.045a.702.702 0 1 1 0 1.406h-.234v8.906a2.343 2.343 0 0 1-2.344 2.344H6.615a2.343 2.343 0 0 1-2.344-2.344V6.25h-.234a.702.702 0 1 1 0-1.406h2.045L7.157 3.23c.304-.457.817-.731 1.365-.731h2.748c.548 0 1.06.274 1.365.73zM7.772 4.844h4.248l-.557-.833a.235.235 0 0 0-.193-.105H8.522c-.076 0-.176.04-.193.105l-.557.833zM5.677 15.156c0 .519.42.938.938.938h6.562a.937.937 0 0 0 .938-.938V6.25H5.677v8.906z" fill="#767676"/>
    </g>
    <defs>
        <clipPath id="bk6cdvc9ya">
            <path fill="#fff" d="M0 0h20v20H0z"/>
        </clipPath>
    </defs>
</svg>
