<svg width="58" height="58" viewBox="0 0 58 58" fill="none" xmlns="http://www.w3.org/2000/svg">
    <g clip-path="url(#cyqom7sxma)">
        <path d="M6 6v46M52 52H6" stroke="#BEBEBE" stroke-width="2" stroke-miterlimit="10" stroke-linecap="round"/>
        <path d="M20.44 33H13c-1.1 0-2 .9-2 2v10c0 1.1.9 2 2 2h34.98c1.11 0 2.01-.91 2-2.02-.06-5.99-.2-26.7-.12-34.38.01-1-1.29-1.4-1.83-.56-2.59 4.01-7 12.82-8.51 15.14-.29.45-.89.59-1.35.31l-8.32-4.99c-.47-.28-1.08-.13-1.37.33l-7.19 11.68c-.18.3-.5.48-.85.48V33z" fill="#4A4A4A"/>
    </g>
    <defs>
        <clipPath id="cyqom7sxma">
            <path fill="#fff" d="M0 0h58v58H0z"/>
        </clipPath>
    </defs>
</svg>
