<svg width="58" height="58" viewBox="0 0 58 58" fill="none" xmlns="http://www.w3.org/2000/svg">
    <path d="M6 6v46M52 52H6" stroke="#BEBEBE" stroke-width="2" stroke-miterlimit="10" stroke-linecap="round"/>
    <path d="M24.5 41.5a9 9 0 1 0 0-18 9 9 0 0 0 0 18z" fill="#4A4A4A"/>
    <path d="M35.5 12.5c-5.6 0-10.29 3.84-11.61 9.03.2-.01.41-.03.61-.03 6.07 0 11 4.93 11 11 0 1.4-.27 2.73-.75 3.96.25.02.5.04.75.04 6.63 0 12-5.37 12-12s-5.37-12-12-12zM18.5 17a5.5 5.5 0 1 0 0-11 5.5 5.5 0 0 0 0 11zM45 46a4 4 0 1 0 0-8 4 4 0 0 0 0 8z" fill="#4A4A4A"/>
</svg>
