<svg width="58" height="58" viewBox="0 0 58 58" fill="none" xmlns="http://www.w3.org/2000/svg">
    <g clip-path="url(#67sn79hp4a)">
        <path d="M15 23h-4a2 2 0 0 0-2 2v21a2 2 0 0 0 2 2h4a2 2 0 0 0 2-2V25a2 2 0 0 0-2-2zM26 7h-4a2 2 0 0 0-2 2v37a2 2 0 0 0 2 2h4a2 2 0 0 0 2-2V9a2 2 0 0 0-2-2zM37 18h-4a2 2 0 0 0-2 2v26a2 2 0 0 0 2 2h4a2 2 0 0 0 2-2V20a2 2 0 0 0-2-2zM48 31h-4a2 2 0 0 0-2 2v13a2 2 0 0 0 2 2h4a2 2 0 0 0 2-2V33a2 2 0 0 0-2-2z" fill="#4A4A4A"/>
        <path d="M52 52H6" stroke="#BEBEBE" stroke-width="2" stroke-miterlimit="10" stroke-linecap="round"/>
    </g>
    <defs>
        <clipPath id="67sn79hp4a">
            <path fill="#fff" d="M0 0h58v58H0z"/>
        </clipPath>
    </defs>
</svg>
