<svg width="58" height="58" viewBox="0 0 58 58" fill="none" xmlns="http://www.w3.org/2000/svg">
    <g clip-path="url(#7t82qowsma)">
        <path d="M6 6v46" stroke="#BEBEBE" stroke-width="2" stroke-miterlimit="10" stroke-linecap="round"/>
        <path d="M36 15v-4a2 2 0 0 0-2-2H12a2 2 0 0 0-2 2v4a2 2 0 0 0 2 2h22a2 2 0 0 0 2-2zM52 26v-4a2 2 0 0 0-2-2H12a2 2 0 0 0-2 2v4a2 2 0 0 0 2 2h38a2 2 0 0 0 2-2zM41 37v-4a2 2 0 0 0-2-2H12a2 2 0 0 0-2 2v4a2 2 0 0 0 2 2h27a2 2 0 0 0 2-2zM28 48v-4a2 2 0 0 0-2-2H12a2 2 0 0 0-2 2v4a2 2 0 0 0 2 2h14a2 2 0 0 0 2-2z" fill="#4A4A4A"/>
    </g>
    <defs>
        <clipPath id="7t82qowsma">
            <path fill="#fff" d="M0 0h58v58H0z"/>
        </clipPath>
    </defs>
</svg>
