<svg width="58" height="58" viewBox="0 0 58 58" fill="none" xmlns="http://www.w3.org/2000/svg">
    <g clip-path="url(#hz2355agpa)">
        <path d="M11 10.75v31" stroke="#4A4A4A" stroke-width="2" stroke-miterlimit="10" stroke-linecap="round"/>
        <path d="M13.5 15.25h-5a2 2 0 0 0-2 2v15a2 2 0 0 0 2 2h5a2 2 0 0 0 2-2v-15a2 2 0 0 0-2-2z" fill="#4A4A4A"/>
        <path d="M23 34.75v-6.79M23 5.75v5.89" stroke="#4A4A4A" stroke-width="2" stroke-miterlimit="10" stroke-linecap="round"/>
        <path d="M25.5 13.25v13h-5v-13h5zm0-2h-5c-1.1 0-2 .9-2 2v13c0 1.1.9 2 2 2h5c1.1 0 2-.9 2-2v-13c0-1.1-.9-2-2-2z" fill="#4A4A4A"/>
        <path d="M35 17.75v31" stroke="#4A4A4A" stroke-width="2" stroke-miterlimit="10" stroke-linecap="round"/>
        <path d="M37.5 22.25h-5a2 2 0 0 0-2 2v13a2 2 0 0 0 2 2h5a2 2 0 0 0 2-2v-13a2 2 0 0 0-2-2z" fill="#4A4A4A"/>
        <path d="M47 16.75v35" stroke="#4A4A4A" stroke-width="2" stroke-miterlimit="10" stroke-linecap="round"/>
        <path d="M49.5 22.25h-5a2 2 0 0 0-2 2v20a2 2 0 0 0 2 2h5a2 2 0 0 0 2-2v-20a2 2 0 0 0-2-2z" fill="#4A4A4A"/>
    </g>
    <defs>
        <clipPath id="hz2355agpa">
            <path fill="#fff" d="M0 0h58v58H0z"/>
        </clipPath>
    </defs>
</svg>
