<svg width="58" height="58" viewBox="0 0 58 58" fill="none" xmlns="http://www.w3.org/2000/svg">
    <g clip-path="url(#bto0vwac1a)" fill="#4A4A4A">
        <path d="M29.07 44.21a2.5 2.5 0 1 0 0-5 2.5 2.5 0 0 0 0 5zM28.07 26.76V15.74a23.94 23.94 0 0 0-15.25 6.31l7.79 7.8c2.04-1.75 4.61-2.87 7.45-3.08l.01-.01zM16.07 39.71c0-3.23 1.18-6.18 3.13-8.45l-7.79-7.8a23.927 23.927 0 0 0-6.34 16.25h11zM37.52 29.85l7.79-7.8a23.918 23.918 0 0 0-15.25-6.31v11.03c2.84.22 5.42 1.34 7.45 3.08h.01zM53.07 39.71c0-6.27-2.4-11.97-6.34-16.25l-7.79 7.8a12.92 12.92 0 0 1 3.13 8.45h11zM45.32 22.05c.49.45.96.92 1.41 1.41z"/>
        <path d="m30.07 42.13.42-.42-.42-.41v.83zM27.66 41.71l.41.42v-.83l-.41.41z"/>
        <path d="M33.61 31.66 28 41l2.07 1.13 4.4-9.96c.27-.55-.5-1.01-.86-.52v.01z"/>
    </g>
    <defs>
        <clipPath id="bto0vwac1a">
            <path fill="#fff" d="M0 0h58v58H0z"/>
        </clipPath>
    </defs>
</svg>
