<svg width="58" height="58" viewBox="0 0 58 58" fill="none" xmlns="http://www.w3.org/2000/svg">
    <g clip-path="url(#sf3wakok4a)">
        <path fill-rule="evenodd" clip-rule="evenodd" d="m28.47 29.87.18.19v-.01L30 31.42l14.37 14.66A22.906 22.906 0 0 1 30 51.95c-.33.02-.66.03-1 .03-.228 0-.452-.009-.674-.018-.109-.004-.217-.009-.326-.012C17.42 51.5 8.69 43.9 6.52 33.86c-.14-.65-.25-1.3-.33-1.97-.12-.95-.19-1.92-.19-2.91 0-1.85.22-3.64.63-5.36.16-.65.34-1.29.55-1.92a23.071 23.071 0 0 1 6.45-9.82C17.47 8.42 22.49 6.25 28 6.01v23.38l.47.48zM30 6.01V27.8l21.48-3.7C49.31 14.06 40.58 6.46 30 6.01zm21.81 20.07-.01.002v-.002h.01zm-.01.002c.12.95.19 1.919.19 2.908 0 1.85-.22 3.64-.63 5.36-.16.65-.34 1.29-.55 1.92a23.071 23.071 0 0 1-5.02 8.42l-13.43-13.7-1.31-1.34 2.43-.42 18.32-3.148z" fill="#4A4A4A"/>
    </g>
    <defs>
        <clipPath id="sf3wakok4a">
            <path fill="#fff" d="M0 0h58v58H0z"/>
        </clipPath>
    </defs>
</svg>
