<svg width="58" height="58" viewBox="0 0 58 58" fill="none" xmlns="http://www.w3.org/2000/svg">
    <g clip-path="url(#gkx37uxjba)" fill="#4A4A4A">
        <path d="M52.97 28.75h-9.03c-.22-3.38-1.57-6.46-3.67-8.86-.44-.5-.91-.97-1.41-1.41-2.4-2.1-5.48-3.45-8.86-3.67V5.78c-.33-.01-.66-.03-1-.03-.34 0-.67.01-1 .03-2.51.1-4.91.61-7.17 1.43-.63.23-1.25.48-1.85.76-2.29 1.06-4.39 2.44-6.22 4.13-.49.45-.96.92-1.41 1.41l1.41 1.41 4.96 4.96c-2.1 2.4-3.45 5.48-3.67 8.86H5.03c-.01.33-.03.66-.03 1 0 .34.01.67.03 1 .24 5.86 2.6 11.19 6.32 15.24.45.49.92.96 1.41 1.41l1.41-1.41 4.96-4.96c2.4 2.1 5.48 3.45 8.86 3.67v9.03c.33.01.66.03 1 .03.34 0 .67-.01 1-.03 2.45-.1 4.8-.59 7.02-1.38.63-.22 1.25-.47 1.86-.75a23.874 23.874 0 0 0 7.78-5.61 23.87 23.87 0 0 0 6.32-15.24c.01-.33.03-.66.03-1 0-.34-.01-.67-.03-1v.01zM38.86 21.3c1.75 2.04 2.87 4.61 3.09 7.45h-6.03a6.985 6.985 0 0 0-1.32-3.18l4.26-4.26v-.01zM34.6 33.93c.69-.92 1.15-2 1.32-3.18h6.03c-.22 2.83-1.34 5.41-3.09 7.45l-4.26-4.26v-.01zm2.85 5.68c-.82.71-1.74 1.3-2.72 1.79-.59.29-1.21.54-1.86.74-.92.29-1.88.48-2.87.56v-6.03c.2-.03.4-.08.59-.12.66-.16 1.29-.39 1.87-.72.25-.14.49-.3.72-.48l4.26 4.26h.01zM30 16.8c2.83.22 5.41 1.34 7.45 3.09l-4.26 4.26c-.92-.69-2-1.15-3.18-1.32V16.8H30zm-2-9.03v7.03c-1.31.09-2.58.35-3.78.75l-2.64-6.49c2.02-.73 4.17-1.18 6.41-1.28l.01-.01zm-7.45 12.11a13.106 13.106 0 0 1 4.42-2.49c.96-.31 1.98-.52 3.03-.6v6.03c-.26.04-.51.09-.76.16-.66.17-1.28.43-1.84.78-.2.12-.4.25-.59.39l-4.26-4.26v-.01zm-6.38-6.38c1.64-1.5 3.52-2.74 5.56-3.69l2.64 6.5c-1.17.58-2.26 1.3-3.24 2.15l-4.96-4.96zm4.96 7.79 4.26 4.26c-.69.92-1.15 2-1.32 3.18h-6.03c.22-2.83 1.34-5.41 3.09-7.45v.01zm2.94 9.45c.17 1.18.64 2.27 1.32 3.18l-4.26 4.26a12.929 12.929 0 0 1-3.09-7.45h6.03v.01zm-9.32 13.83a21.89 21.89 0 0 1-5.74-13.83h7.03c.22 3.38 1.57 6.46 3.67 8.86l-4.96 4.96v.01zm15.24-1.88c-2.83-.22-5.41-1.34-7.45-3.09l4.26-4.26c.92.69 2 1.15 3.18 1.32v6.03h.01zm1.83-8.03c-.27.05-.55.08-.83.08-.34 0-.68-.04-1-.1-.64-.13-1.23-.38-1.75-.73-.56-.37-1.04-.85-1.41-1.41a4.93 4.93 0 0 1-.83-2.75c0-.34.04-.68.1-1 .13-.64.38-1.23.73-1.75.35-.53.81-.99 1.33-1.35l-.1-.25.18.18a4.93 4.93 0 0 1 2.75-.83c.34 0 .68.04 1 .1.64.13 1.23.38 1.75.73.56.37 1.04.85 1.41 1.41a4.93 4.93 0 0 1 .83 2.75c0 .34-.04.68-.1 1-.13.64-.38 1.23-.73 1.75-.37.56-.85 1.04-1.41 1.41l-.06.03c-.51.33-1.08.58-1.7.7-.05.01-.11 0-.17.02l.01.01zm8.29 15.08A22.085 22.085 0 0 1 30 51.72v-7.03c1.26-.08 2.47-.32 3.62-.7.64-.21 1.25-.47 1.85-.75 1.23-.59 2.37-1.33 3.38-2.22l4.96 4.96c-1.68 1.54-3.61 2.8-5.71 3.76h.01zm7.12-5.17-4.96-4.96c2.1-2.4 3.45-5.48 3.67-8.86h7.03a21.936 21.936 0 0 1-5.74 13.83v-.01z"/>
        <path d="m34.6 33.93 4.26 4.26c1.75-2.04 2.87-4.61 3.09-7.45h-6.03a6.985 6.985 0 0 1-1.32 3.18v.01zM23.4 25.57l-4.26-4.26a12.929 12.929 0 0 0-3.09 7.45h6.03c.17-1.18.64-2.27 1.32-3.18v-.01zM33.18 24.15l4.26-4.26a12.929 12.929 0 0 0-7.45-3.09v6.03c1.18.17 2.27.64 3.18 1.32h.01zM40.28 39.61l4.96 4.96a21.89 21.89 0 0 0 5.74-13.83h-7.03c-.22 3.38-1.57 6.46-3.67 8.86v.01zM26.07 25.4l.1.25s.05-.05.08-.07l-.18-.18z"/>
    </g>
    <defs>
        <clipPath id="gkx37uxjba">
            <path fill="#fff" d="M0 0h58v58H0z"/>
        </clipPath>
    </defs>
</svg>
