<svg width="58" height="58" viewBox="0 0 58 58" fill="none" xmlns="http://www.w3.org/2000/svg">
    <g clip-path="url(#ep2jpi5vta)" stroke-linecap="round">
        <path d="M6 6v46M52 52H6" stroke="#BEBEBE" stroke-width="2" stroke-miterlimit="10"/>
        <path d="m12 46 8.93-5.17M20.93 40.83l9.06 4.43M29.99 45.26l9.88-8.13M49.92 40.09l-10.05-2.96M12 37l9-4M21 33l9 4M30 37l10-11M50 24l-10 2" stroke="#4A4A4A" stroke-width="3" stroke-miterlimit="10"/>
        <path d="m11.5 30.5 3.66-5.13a2.244 2.244 0 0 1 3.18-.49c1.12.84 2.74.46 3.36-.79l1.87-3.74c.81-1.63 3.12-1.67 3.99-.07l1.88 3.44c.87 1.6 3.18 1.55 3.99-.07l2.56-5.12a2.25 2.25 0 0 1 3.72-.46l1.52 1.78c1.06 1.24 3.06.97 3.75-.51l5.52-6.84" stroke="#4A4A4A" stroke-width="3" stroke-linejoin="round"/>
    </g>
    <defs>
        <clipPath id="ep2jpi5vta">
            <path fill="#fff" d="M0 0h58v58H0z"/>
        </clipPath>
    </defs>
</svg>
