<svg width="58" height="58" viewBox="0 0 58 58" fill="none" xmlns="http://www.w3.org/2000/svg">
    <g clip-path="url(#zl24kqgnsa)">
        <path fill-rule="evenodd" clip-rule="evenodd" d="M19.636 44.532h-2.943V28.807h-.109L12 31.705v-2.688L16.774 26h2.862v18.532zm3.286-2.004 6.183-6.389c1.956-2.082 2.927-3.246 2.927-4.85 0-1.81-1.426-2.961-3.306-2.961-1.98 0-3.243 1.293-3.255 3.233h-2.562C22.884 28.211 25.37 26 28.777 26c3.407 0 5.817 2.237 5.842 5.199-.025 2.043-.96 3.673-4.316 7.048l-3.62 3.764v.155h8.226v2.38h-12v-2.018h.013zm11.988-2.935v-.013.013zm0 0c.122 2.954 2.79 4.952 6.545 4.952 3.76 0 6.545-2.208 6.545-5.207.013-2.285-1.438-3.944-3.914-4.289v-.127c1.95-.485 3.234-1.953 3.208-4.008.026-2.668-2.22-4.914-5.788-4.914-3.376 0-6.11 2.004-6.186 4.94h2.657c.05-1.634 1.68-2.643 3.503-2.643 1.913 0 3.157 1.034 3.157 2.77S43.2 33.94 41.134 33.94H39.58v2.246h1.553c2.592.013 4.08 1.315 4.08 3.064 0 1.748-1.59 2.935-3.785 2.935-2.028 0-3.607-1.008-3.71-2.59h-2.81z" fill="#4A4A4A"/>
        <path d="M26.75 11.4h-12.5c-.69 0-1.25.84-1.25 1.875v2.25c0 1.036.56 1.875 1.25 1.875h12.5c.69 0 1.25-.84 1.25-1.875v-2.25c0-1.036-.56-1.875-1.25-1.875z" fill="#BEBEBE"/>
    </g>
    <defs>
        <clipPath id="zl24kqgnsa">
            <path fill="#fff" d="M0 0h58v58H0z"/>
        </clipPath>
    </defs>
</svg>
