<svg width="114" height="114" viewBox="0 0 114 114" fill="none" xmlns="http://www.w3.org/2000/svg">
    <path fill="#F9F9FA" d="M0 0h114v114H0z"/>
    <path d="M12 4V2h1v2h-1zm.5 4h.5v2h-1V8h.5zm0 6h.5v2h-1v-2h.5zm0 6h.5v2h-1v-2h.5zm0 6h.5v2h-1v-2h.5zm0 6h.5v2h-1v-2h.5zm0 6h.5v2h-1v-2h.5zm0 6h.5v2h-1v-2h.5zm0 6h.5v2h-1v-2h.5zm0 6h.5v2h-1v-2h.5zm0 6h.5v2h-1v-2h.5zm0 6h.5v2h-1v-2h.5zm0 6h.5v2h-1v-2h.5zm0 6h.5v2h-1v-2h.5zm0 6h.5v2h-1v-2h.5zm0 6h.5v2h-1v-2h.5zm0 6h.5v2h-1v-2h.5zm0 6h.5v2h-1v-2h.5zm0 6h.5v2h-1v-2h.5zM2 13v-1h2v1H2zm8 0H8v-1h2v1zm4-.5V12h2v1h-2v-.5zm6 0V12h2v1h-2v-.5zm6 0V12h2v1h-2v-.5zm6 0V12h2v1h-2v-.5zm6 0V12h2v1h-2v-.5zm6 0V12h2v1h-2v-.5zm6 0V12h2v1h-2v-.5zm6 0V12h2v1h-2v-.5zm6 0V12h2v1h-2v-.5zm6 0V12h2v1h-2v-.5zm6 0V12h2v1h-2v-.5zm6 0V12h2v1h-2v-.5zm6 0V12h2v1h-2v-.5zm6 0V12h2v1h-2v-.5zm6 0V12h2v1h-2v-.5zm6 0V12h2v1h-2v-.5zm6 0V12h2v1h-2v-.5z" stroke="#E7E7E7" stroke-dasharray="4 2"/>
</svg>
