<svg width="1480" height="1006" viewBox="0 0 1480 1006" fill="none" xmlns="http://www.w3.org/2000/svg">
    <path d="M1350 0h1v1005.5c0 .28-.22.5-.5.5s-.5-.22-.5-.5V0zM1360 0h1v1005.5c0 .28-.22.5-.5.5s-.5-.22-.5-.5V0zM1370 0h1v1005.5c0 .28-.22.5-.5.5s-.5-.22-.5-.5V0zM1380 0h1v1005.5c0 .28-.22.5-.5.5s-.5-.22-.5-.5V0zM1390 0h1v1005.5c0 .28-.22.5-.5.5s-.5-.22-.5-.5V0zM1400 0h1v1005.5c0 .28-.22.5-.5.5s-.5-.22-.5-.5V0zM1410 0h1v1005.5c0 .28-.22.5-.5.5s-.5-.22-.5-.5V0zM1420 0h1v1005.5c0 .28-.22.5-.5.5s-.5-.22-.5-.5V0zM1450 0h1v1005.5c0 .28-.22.5-.5.5s-.5-.22-.5-.5V0zM1430 0h1v1005.5c0 .28-.22.5-.5.5s-.5-.22-.5-.5V0zM1460 0h1v1005.5c0 .28-.22.5-.5.5s-.5-.22-.5-.5V0zM1440 0h1v1005.5c0 .28-.22.5-.5.5s-.5-.22-.5-.5V0zM1470 0h1v1005.5c0 .28-.22.5-.5.5s-.5-.22-.5-.5V0z" fill="#fff"/>
    <path d="M0 50h1480c0 .552-.45 1-1 1H1a1 1 0 0 1-1-1zM0 90h1480c0 .552-.45 1-1 1H1a1 1 0 0 1-1-1zM0 130h1480c0 .552-.45 1-1 1H1a1 1 0 0 1-1-1zM0 170h1480c0 .552-.45 1-1 1H1a1 1 0 0 1-1-1zM0 210h1480c0 .552-.45 1-1 1H1a1 1 0 0 1-1-1zM0 250h1480c0 .552-.45 1-1 1H1a1 1 0 0 1-1-1zM0 290h1480c0 .552-.45 1-1 1H1a1 1 0 0 1-1-1zM0 330h1480c0 .552-.45 1-1 1H1a1 1 0 0 1-1-1zM0 370h1480c0 .552-.45 1-1 1H1a1 1 0 0 1-1-1zM0 410h1480c0 .552-.45 1-1 1H1a1 1 0 0 1-1-1zM0 450h1480c0 .552-.45 1-1 1H1a1 1 0 0 1-1-1zM0 490h1480c0 .552-.45 1-1 1H1a1 1 0 0 1-1-1zM0 530h1480c0 .552-.45 1-1 1H1a1 1 0 0 1-1-1zM0 570h1480c0 .552-.45 1-1 1H1a1 1 0 0 1-1-1zM0 610h1480c0 .552-.45 1-1 1H1a1 1 0 0 1-1-1zM0 650h1480c0 .552-.45 1-1 1H1a1 1 0 0 1-1-1zM0 660h1480c0 .552-.45 1-1 1H1a1 1 0 0 1-1-1zM0 670h1480c0 .552-.45 1-1 1H1a1 1 0 0 1-1-1zM0 680h1480c0 .552-.45 1-1 1H1a1 1 0 0 1-1-1zM0 690h1480c0 .552-.45 1-1 1H1a1 1 0 0 1-1-1zM0 700h1480c0 .552-.45 1-1 1H1a1 1 0 0 1-1-1zM0 710h1480c0 .552-.45 1-1 1H1a1 1 0 0 1-1-1zM0 720h1480c0 .552-.45 1-1 1H1a1 1 0 0 1-1-1zM0 730h1480c0 .552-.45 1-1 1H1a1 1 0 0 1-1-1zM0 740h1480c0 .552-.45 1-1 1H1a1 1 0 0 1-1-1zM0 750h1480c0 .552-.45 1-1 1H1a1 1 0 0 1-1-1zM0 760h1480c0 .552-.45 1-1 1H1a1 1 0 0 1-1-1zM0 770h1480c0 .552-.45 1-1 1H1a1 1 0 0 1-1-1zM0 780h1480c0 .552-.45 1-1 1H1a1 1 0 0 1-1-1zM0 790h1480c0 .552-.45 1-1 1H1a1 1 0 0 1-1-1zM0 800h1480c0 .552-.45 1-1 1H1a1 1 0 0 1-1-1zM0 810h1480c0 .552-.45 1-1 1H1a1 1 0 0 1-1-1zM0 820h1480c0 .552-.45 1-1 1H1a1 1 0 0 1-1-1zM0 830h1480c0 .552-.45 1-1 1H1a1 1 0 0 1-1-1zM0 840h1480c0 .552-.45 1-1 1H1a1 1 0 0 1-1-1zM0 850h1480c0 .552-.45 1-1 1H1a1 1 0 0 1-1-1zM0 860h1480c0 .552-.45 1-1 1H1a1 1 0 0 1-1-1zM0 870h1480c0 .552-.45 1-1 1H1a1 1 0 0 1-1-1zM0 880h1480c0 .552-.45 1-1 1H1a1 1 0 0 1-1-1zM0 890h1480c0 .552-.45 1-1 1H1a1 1 0 0 1-1-1zM0 900h1480c0 .552-.45 1-1 1H1a1 1 0 0 1-1-1zM0 910h1480c0 .552-.45 1-1 1H1a1 1 0 0 1-1-1zM0 920h1480c0 .552-.45 1-1 1H1a1 1 0 0 1-1-1zM0 930h1480c0 .552-.45 1-1 1H1a1 1 0 0 1-1-1zM0 940h1480c0 .552-.45 1-1 1H1a1 1 0 0 1-1-1zM0 950h1480c0 .552-.45 1-1 1H1a1 1 0 0 1-1-1zM0 960h1480c0 .552-.45 1-1 1H1a1 1 0 0 1-1-1zM0 970h1480c0 .552-.45 1-1 1H1a1 1 0 0 1-1-1zM0 980h1480c0 .552-.45 1-1 1H1a1 1 0 0 1-1-1zM0 990h1480c0 .552-.45 1-1 1H1a1 1 0 0 1-1-1zM0 1000h1480c0 .55-.45 1-1 1H1c-.552 0-1-.45-1-1zM0 30h1480c0 .552-.45 1-1 1H1a1 1 0 0 1-1-1zM0 70h1480c0 .552-.45 1-1 1H1a1 1 0 0 1-1-1zM0 110h1480c0 .552-.45 1-1 1H1a1 1 0 0 1-1-1zM0 150h1480c0 .552-.45 1-1 1H1a1 1 0 0 1-1-1zM0 190h1480c0 .552-.45 1-1 1H1a1 1 0 0 1-1-1zM0 230h1480c0 .552-.45 1-1 1H1a1 1 0 0 1-1-1zM0 270h1480c0 .552-.45 1-1 1H1a1 1 0 0 1-1-1zM0 310h1480c0 .552-.45 1-1 1H1a1 1 0 0 1-1-1zM0 350h1480c0 .552-.45 1-1 1H1a1 1 0 0 1-1-1zM0 390h1480c0 .552-.45 1-1 1H1a1 1 0 0 1-1-1zM0 430h1480c0 .552-.45 1-1 1H1a1 1 0 0 1-1-1zM0 470h1480c0 .552-.45 1-1 1H1a1 1 0 0 1-1-1zM0 510h1480c0 .552-.45 1-1 1H1a1 1 0 0 1-1-1zM0 550h1480c0 .552-.45 1-1 1H1a1 1 0 0 1-1-1zM0 590h1480c0 .552-.45 1-1 1H1a1 1 0 0 1-1-1zM0 630h1480c0 .552-.45 1-1 1H1a1 1 0 0 1-1-1zM0 20h1480c0 .552-.45 1-1 1H1a1 1 0 0 1-1-1zM0 10h1480c0 .552-.45 1-1 1H1a1 1 0 0 1-1-1zM0 60h1480c0 .552-.45 1-1 1H1a1 1 0 0 1-1-1zM0 100h1480c0 .552-.45 1-1 1H1a1 1 0 0 1-1-1zM0 140h1480c0 .552-.45 1-1 1H1a1 1 0 0 1-1-1zM0 180h1480c0 .552-.45 1-1 1H1a1 1 0 0 1-1-1zM0 220h1480c0 .552-.45 1-1 1H1a1 1 0 0 1-1-1zM0 260h1480c0 .552-.45 1-1 1H1a1 1 0 0 1-1-1zM0 300h1480c0 .552-.45 1-1 1H1a1 1 0 0 1-1-1zM0 340h1480c0 .552-.45 1-1 1H1a1 1 0 0 1-1-1zM0 380h1480c0 .552-.45 1-1 1H1a1 1 0 0 1-1-1zM0 420h1480c0 .552-.45 1-1 1H1a1 1 0 0 1-1-1zM0 460h1480c0 .552-.45 1-1 1H1a1 1 0 0 1-1-1zM0 500h1480c0 .552-.45 1-1 1H1a1 1 0 0 1-1-1zM0 540h1480c0 .552-.45 1-1 1H1a1 1 0 0 1-1-1zM0 580h1480c0 .552-.45 1-1 1H1a1 1 0 0 1-1-1zM0 620h1480c0 .552-.45 1-1 1H1a1 1 0 0 1-1-1zM0 40h1480c0 .552-.45 1-1 1H1a1 1 0 0 1-1-1zM0 80h1480c0 .552-.45 1-1 1H1a1 1 0 0 1-1-1zM0 120h1480c0 .552-.45 1-1 1H1a1 1 0 0 1-1-1zM0 160h1480c0 .552-.45 1-1 1H1a1 1 0 0 1-1-1zM0 200h1480c0 .552-.45 1-1 1H1a1 1 0 0 1-1-1zM0 240h1480c0 .552-.45 1-1 1H1a1 1 0 0 1-1-1zM0 280h1480c0 .552-.45 1-1 1H1a1 1 0 0 1-1-1zM0 320h1480c0 .552-.45 1-1 1H1a1 1 0 0 1-1-1zM0 360h1480c0 .552-.45 1-1 1H1a1 1 0 0 1-1-1zM0 400h1480c0 .552-.45 1-1 1H1a1 1 0 0 1-1-1zM0 440h1480c0 .552-.45 1-1 1H1a1 1 0 0 1-1-1zM0 480h1480c0 .552-.45 1-1 1H1a1 1 0 0 1-1-1zM0 520h1480c0 .552-.45 1-1 1H1a1 1 0 0 1-1-1zM0 560h1480c0 .552-.45 1-1 1H1a1 1 0 0 1-1-1zM0 600h1480c0 .552-.45 1-1 1H1a1 1 0 0 1-1-1z" fill="#fff"/>
    <path d="M0 49.74h1480c0 .593-.48 1.074-1.07 1.074H1.074C.481 50.814 0 50.334 0 49.74zM0 640h1480c0 .552-.45 1-1 1H1a1 1 0 0 1-1-1z" fill="#fff"/>
    <path d="M10 0h1v1006.5c0 .28-.224.5-.5.5s-.5-.22-.5-.5V0zM20 0h1v1006.5c0 .28-.224.5-.5.5s-.5-.22-.5-.5V0zM30 0h1v1006.5c0 .28-.224.5-.5.5s-.5-.22-.5-.5V0zM40 0h1v1006.5c0 .28-.224.5-.5.5s-.5-.22-.5-.5V0zM50 0h1v1006.5c0 .28-.224.5-.5.5s-.5-.22-.5-.5V0zM60 0h1v1006.5c0 .28-.224.5-.5.5s-.5-.22-.5-.5V0zM70 0h1v1006.5c0 .28-.224.5-.5.5s-.5-.22-.5-.5V0zM80 0h1v1006.5c0 .28-.224.5-.5.5s-.5-.22-.5-.5V0zM90 0h1v1006.5c0 .28-.224.5-.5.5s-.5-.22-.5-.5V0zM100 0h1v1006.5c0 .28-.224.5-.5.5s-.5-.22-.5-.5V0zM110 0h1v1006.5c0 .28-.224.5-.5.5s-.5-.22-.5-.5V0zM120 0h1v1006.5c0 .28-.224.5-.5.5s-.5-.22-.5-.5V0zM130 0h1v1006.5c0 .28-.224.5-.5.5s-.5-.22-.5-.5V0zM140 0h1v1006.5c0 .28-.224.5-.5.5s-.5-.22-.5-.5V0zM150 0h1v1006.5c0 .28-.224.5-.5.5s-.5-.22-.5-.5V0zM160 0h1v1006.5c0 .28-.224.5-.5.5s-.5-.22-.5-.5V0zM170 0h1v1006.5c0 .28-.224.5-.5.5s-.5-.22-.5-.5V0zM180 0h1v1006.5c0 .28-.224.5-.5.5s-.5-.22-.5-.5V0zM190 0h1v1006.5c0 .28-.224.5-.5.5s-.5-.22-.5-.5V0zM200 0h1v1006.5c0 .28-.224.5-.5.5s-.5-.22-.5-.5V0zM210 0h1v1006.5c0 .28-.224.5-.5.5s-.5-.22-.5-.5V0zM220 0h1v1006.5c0 .28-.224.5-.5.5s-.5-.22-.5-.5V0zM230 0h1v1006.5c0 .28-.224.5-.5.5s-.5-.22-.5-.5V0zM240 0h1v1006.5c0 .28-.224.5-.5.5s-.5-.22-.5-.5V0zM250 0h1v1006.5c0 .28-.224.5-.5.5s-.5-.22-.5-.5V0zM260 0h1v1006.5c0 .28-.224.5-.5.5s-.5-.22-.5-.5V0zM270 0h1v1006.5c0 .28-.224.5-.5.5s-.5-.22-.5-.5V0zM280 0h1v1006.5c0 .28-.224.5-.5.5s-.5-.22-.5-.5V0zM290 0h1v1006.5c0 .28-.224.5-.5.5s-.5-.22-.5-.5V0zM300 0h1v1006.5c0 .28-.224.5-.5.5s-.5-.22-.5-.5V0zM310 0h1v1006.5c0 .28-.224.5-.5.5s-.5-.22-.5-.5V0zM320 0h1v1006.5c0 .28-.224.5-.5.5s-.5-.22-.5-.5V0zM330 0h1v1006.5c0 .28-.224.5-.5.5s-.5-.22-.5-.5V0zM340 0h1v1006.5c0 .28-.224.5-.5.5s-.5-.22-.5-.5V0zM350 0h1v1006.5c0 .28-.224.5-.5.5s-.5-.22-.5-.5V0zM360 0h1v1006.5c0 .28-.224.5-.5.5s-.5-.22-.5-.5V0zM370 0h1v1006.5c0 .28-.224.5-.5.5s-.5-.22-.5-.5V0zM380 0h1v1006.5c0 .28-.224.5-.5.5s-.5-.22-.5-.5V0zM390 0h1v1006.5c0 .28-.224.5-.5.5s-.5-.22-.5-.5V0zM400 0h1v1006.5c0 .28-.224.5-.5.5s-.5-.22-.5-.5V0zM410 0h1v1006.5c0 .28-.224.5-.5.5s-.5-.22-.5-.5V0zM420 0h1v1006.5c0 .28-.224.5-.5.5s-.5-.22-.5-.5V0zM430 0h1v1006.5c0 .28-.224.5-.5.5s-.5-.22-.5-.5V0zM440 0h1v1006.5c0 .28-.224.5-.5.5s-.5-.22-.5-.5V0zM450 0h1v1006.5c0 .28-.224.5-.5.5s-.5-.22-.5-.5V0zM460 0h1v1006.5c0 .28-.224.5-.5.5s-.5-.22-.5-.5V0zM470 0h1v1006.5c0 .28-.224.5-.5.5s-.5-.22-.5-.5V0zM480 0h1v1006.5c0 .28-.224.5-.5.5s-.5-.22-.5-.5V0zM490 0h1v1006.5c0 .28-.224.5-.5.5s-.5-.22-.5-.5V0zM500 0h1v1006.5c0 .28-.224.5-.5.5s-.5-.22-.5-.5V0zM510 0h1v1006.5c0 .28-.224.5-.5.5s-.5-.22-.5-.5V0zM520 0h1v1006.5c0 .28-.224.5-.5.5s-.5-.22-.5-.5V0zM530 0h1v1006.5c0 .28-.224.5-.5.5s-.5-.22-.5-.5V0zM540 0h1v1006.5c0 .28-.224.5-.5.5s-.5-.22-.5-.5V0zM550 0h1v1006.5c0 .28-.224.5-.5.5s-.5-.22-.5-.5V0zM560 0h1v1006.5c0 .28-.224.5-.5.5s-.5-.22-.5-.5V0zM570 0h1v1006.5c0 .28-.224.5-.5.5s-.5-.22-.5-.5V0zM580 0h1v1006.5c0 .28-.224.5-.5.5s-.5-.22-.5-.5V0zM590 0h1v1006.5c0 .28-.224.5-.5.5s-.5-.22-.5-.5V0zM600 0h1v1006.5c0 .28-.224.5-.5.5s-.5-.22-.5-.5V0zM610 0h1v1006.5c0 .28-.224.5-.5.5s-.5-.22-.5-.5V0zM620 0h1v1006.5c0 .28-.224.5-.5.5s-.5-.22-.5-.5V0zM630 0h1v1006.5c0 .28-.224.5-.5.5s-.5-.22-.5-.5V0zM640 0h1v1006.5c0 .28-.224.5-.5.5s-.5-.22-.5-.5V0zM650 0h1v1006.5c0 .28-.224.5-.5.5s-.5-.22-.5-.5V0zM660 0h1v1006.5c0 .28-.224.5-.5.5s-.5-.22-.5-.5V0zM670 0h1v1006.5c0 .28-.224.5-.5.5s-.5-.22-.5-.5V0zM680 0h1v1006.5c0 .28-.224.5-.5.5s-.5-.22-.5-.5V0zM690 0h1v1006.5c0 .28-.224.5-.5.5s-.5-.22-.5-.5V0zM700 0h1v1006.5c0 .28-.224.5-.5.5s-.5-.22-.5-.5V0zM710 0h1v1006.5c0 .28-.224.5-.5.5s-.5-.22-.5-.5V0zM720 0h1v1006.5c0 .28-.224.5-.5.5s-.5-.22-.5-.5V0zM730 0h1v1006.5c0 .28-.224.5-.5.5s-.5-.22-.5-.5V0zM740 0h1v1006.5c0 .28-.224.5-.5.5s-.5-.22-.5-.5V0zM750 0h1v1006.5c0 .28-.224.5-.5.5s-.5-.22-.5-.5V0zM760 0h1v1006.5c0 .28-.224.5-.5.5s-.5-.22-.5-.5V0zM770 0h1v1006.5c0 .28-.224.5-.5.5s-.5-.22-.5-.5V0zM780 0h1v1006.5c0 .28-.224.5-.5.5s-.5-.22-.5-.5V0zM790 0h1v1006.5c0 .28-.224.5-.5.5s-.5-.22-.5-.5V0zM800 0h1v1006.5c0 .28-.224.5-.5.5s-.5-.22-.5-.5V0zM810 0h1v1006.5c0 .28-.224.5-.5.5s-.5-.22-.5-.5V0zM820 0h1v1006.5c0 .28-.224.5-.5.5s-.5-.22-.5-.5V0zM830 0h1v1006.5c0 .28-.224.5-.5.5s-.5-.22-.5-.5V0zM840 0h1v1006.5c0 .28-.224.5-.5.5s-.5-.22-.5-.5V0zM850 0h1v1006.5c0 .28-.224.5-.5.5s-.5-.22-.5-.5V0zM860 0h1v1006.5c0 .28-.224.5-.5.5s-.5-.22-.5-.5V0zM870 0h1v1006.5c0 .28-.224.5-.5.5s-.5-.22-.5-.5V0zM880 0h1v1006.5c0 .28-.224.5-.5.5s-.5-.22-.5-.5V0zM890 0h1v1006.5c0 .28-.224.5-.5.5s-.5-.22-.5-.5V0zM900 0h1v1006.5c0 .28-.224.5-.5.5s-.5-.22-.5-.5V0zM910 0h1v1006.5c0 .28-.224.5-.5.5s-.5-.22-.5-.5V0zM920 0h1v1006.5c0 .28-.224.5-.5.5s-.5-.22-.5-.5V0zM930 0h1v1006.5c0 .28-.224.5-.5.5s-.5-.22-.5-.5V0zM940 0h1v1006.5c0 .28-.224.5-.5.5s-.5-.22-.5-.5V0zM950 0h1v1006.5c0 .28-.224.5-.5.5s-.5-.22-.5-.5V0zM960 0h1v1006.5c0 .28-.224.5-.5.5s-.5-.22-.5-.5V0zM970 0h1v1006.5c0 .28-.224.5-.5.5s-.5-.22-.5-.5V0zM980 0h1v1006.5c0 .28-.224.5-.5.5s-.5-.22-.5-.5V0zM990 0h1v1006.5c0 .28-.224.5-.5.5s-.5-.22-.5-.5V0zM1000 0h1v1006.5c0 .28-.22.5-.5.5s-.5-.22-.5-.5V0zM1010 0h1v1006.5c0 .28-.22.5-.5.5s-.5-.22-.5-.5V0zM1020 0h1v1006.5c0 .28-.22.5-.5.5s-.5-.22-.5-.5V0zM1030 0h1v1006.5c0 .28-.22.5-.5.5s-.5-.22-.5-.5V0zM1040 0h1v1006.5c0 .28-.22.5-.5.5s-.5-.22-.5-.5V0zM1050 0h1v1006.5c0 .28-.22.5-.5.5s-.5-.22-.5-.5V0zM1060 0h1v1006.5c0 .28-.22.5-.5.5s-.5-.22-.5-.5V0zM1070 0h1v1006.5c0 .28-.22.5-.5.5s-.5-.22-.5-.5V0zM1080 0h1v1006.5c0 .28-.22.5-.5.5s-.5-.22-.5-.5V0zM1090 0h1v1006.5c0 .28-.22.5-.5.5s-.5-.22-.5-.5V0zM1100 0h1v1006.5c0 .28-.22.5-.5.5s-.5-.22-.5-.5V0zM1110 0h1v1006.5c0 .28-.22.5-.5.5s-.5-.22-.5-.5V0zM1120 0h1v1006.5c0 .28-.22.5-.5.5s-.5-.22-.5-.5V0zM1130 0h1v1006.5c0 .28-.22.5-.5.5s-.5-.22-.5-.5V0zM1140 0h1v1006.5c0 .28-.22.5-.5.5s-.5-.22-.5-.5V0zM1150 0h1v1006.5c0 .28-.22.5-.5.5s-.5-.22-.5-.5V0zM1160 0h1v1006.5c0 .28-.22.5-.5.5s-.5-.22-.5-.5V0zM1170 0h1v1006.5c0 .28-.22.5-.5.5s-.5-.22-.5-.5V0zM1180 0h1v1006.5c0 .28-.22.5-.5.5s-.5-.22-.5-.5V0zM1190 0h1v1006.5c0 .28-.22.5-.5.5s-.5-.22-.5-.5V0zM1200 0h1v1006.5c0 .28-.22.5-.5.5s-.5-.22-.5-.5V0zM1210 0h1v1006.5c0 .28-.22.5-.5.5s-.5-.22-.5-.5V0zM1220 0h1v1006.5c0 .28-.22.5-.5.5s-.5-.22-.5-.5V0zM1230 0h1v1006.5c0 .28-.22.5-.5.5s-.5-.22-.5-.5V0zM1240 0h1v1006.5c0 .28-.22.5-.5.5s-.5-.22-.5-.5V0zM1250 0h1v1006.5c0 .28-.22.5-.5.5s-.5-.22-.5-.5V0zM1260 0h1v1006.5c0 .28-.22.5-.5.5s-.5-.22-.5-.5V0zM1270 0h1v1006.5c0 .28-.22.5-.5.5s-.5-.22-.5-.5V0zM1280 0h1v1006.5c0 .28-.22.5-.5.5s-.5-.22-.5-.5V0zM1290 0h1v1006.5c0 .28-.22.5-.5.5s-.5-.22-.5-.5V0zM1300 0h1v1006.5c0 .28-.22.5-.5.5s-.5-.22-.5-.5V0zM1310 0h1v1006.5c0 .28-.22.5-.5.5s-.5-.22-.5-.5V0zM1320 0h1v1006.5c0 .28-.22.5-.5.5s-.5-.22-.5-.5V0zM1330 0h1v1006.5c0 .28-.22.5-.5.5s-.5-.22-.5-.5V0zM1340 0h1v1006.5c0 .28-.22.5-.5.5s-.5-.22-.5-.5V0z" fill="#fff"/>
</svg>
